<svg xmlns="http://www.w3.org/2000/svg" width="352.444" height="154.757">
    <defs>
        <style>
            .cls-2{fill:#1a1818}
        </style>
    </defs>
    <g id="Group_5010" data-name="Group 5010" transform="translate(-244.723 -220.259)">
        <path id="Path_8710" data-name="Path 8710" d="M426 331.817h11.67v5.427h6.665V325.65H414.4v6.236h4.623v28.146H414.4v6.233h16.968v-6.233H426v-10.615h11.982v-5.991H426zm135.152.069h5.048v-6.236h-11.045L542.7 348.242l-12.468-22.592H519.12v6.236h5.059l-1.3 28.146h-9.994l-6.231-11.049a11.781 11.781 0 0 0 7.645-11.051c0-8.268-6.669-12.282-15.978-12.282h-15.733v6.236h4.627v28.146h-8.161l-10.121-28.215h4.467v-6.167h-22.959v6.167h4.429l-10.127 28.215h-3.508v6.233h15.614v-6.188h-4.935l2.288-6.651h15.164l2.294 6.651h-4.69v6.188h32.29v-6.233h-5.06v-9.141c.87.059 2.027.059 3.333.059.8 0 1.592-.059 2.466-.12l8.149 15.435H534.6v-6.233h-4.866l.8-20.933 11.606 20.37h.919l11.6-20.37.81 20.933H550.6v6.233h16.659v-6.233h-4.824zM456.1 347.616l5.684-15.976 5.68 15.976zm42.047-2.588c-2.218 0-3.214-.056-3.951-.117v-13.025h3.764c5.61 0 9.121 2.039 9.121 6.3s-3.694 6.846-8.934 6.846m86.256-2.78c-4.078-1.478-7.462-2.957-7.462-6.294 0-2.965 2.335-4.988 6.344-4.988a10.319 10.319 0 0 1 5.379 1.233 3.525 3.525 0 0 0-.441 1.914 4.21 4.21 0 0 0 4.445 4.125c2.349 0 4.125-1.662 4.125-4.57 0-4.873-5.853-8.757-13.431-8.757-8.217 0-13.464 5.065-13.464 11.541 0 7.531 5.313 9.935 12.826 12.659 4.075 1.413 7.483 3.019 7.483 6.351 0 3.519-2.851 5.492-7.29 5.492a11.289 11.289 0 0 1-6.42-1.724 5.223 5.223 0 0 0 .563-2.462 4.233 4.233 0 0 0-4.447-4.022c-2.533 0-4.255 1.9-4.255 4.826 0 4.919 6.465 9.433 14.5 9.433 8.325 0 14.307-4.391 14.307-12.1 0-7.526-5.488-10.051-12.764-12.655" style="fill:#6d6f72"/>
        <path id="Path_8711" data-name="Path 8711" class="cls-2" d="M428.956 270.993c8.319 0 14.3-4.388 14.3-12.112 0-7.523-5.494-10.051-12.76-12.645-4.082-1.48-7.47-2.973-7.47-6.284 0-2.969 2.332-5 6.354-5a10.545 10.545 0 0 1 5.373 1.215 3.762 3.762 0 0 0-.423 1.926 4.194 4.194 0 0 0 4.433 4.137c2.337 0 4.129-1.664 4.129-4.572 0-4.875-5.857-8.769-13.453-8.769-8.21 0-13.451 5.075-13.451 11.551 0 7.522 5.292 9.931 12.829 12.657 4.079 1.416 7.473 3.016 7.473 6.349 0 3.511-2.831 5.5-7.274 5.5a11.3 11.3 0 0 1-6.426-1.746 5.1 5.1 0 0 0 .557-2.456 4.233 4.233 0 0 0-4.443-4.022c-2.531 0-4.247 1.914-4.247 4.826 0 4.939 6.471 9.443 14.5 9.443m33.928-6.983h-4.935V235.87h4.935v-6.232h-16.849v6.232h4.937v28.14h-4.937v6.232h16.848zm32.679-5.672h-6.727v5.737H477.67V235.87h5.37v-6.232h-16.976v6.232h4.636v28.14h-4.635v6.232h29.5zm85.743-5.373a11.775 11.775 0 0 0 7.656-11.056c0-8.267-6.676-12.271-16.006-12.271h-60.464v6.232H517l-8.736 22.274-8.777-22.274h4.255v-6.232H487.7v6.232h3.71l14.738 34.8h3.949l14.743-34.8h6.06v28.14h-4.629v6.232h47.622v-6.23h-5.045v-9.131c.857.065 2.031.065 3.331.065.782 0 1.6-.065 2.467-.117l8.143 15.415h9.38v-6.232h-4.629zm-19.446 11.047h-5.231v-5.372h-6.663v5.437h-12.116v-11.488h12.293v-5.917h-12.293v-10.861H549.9v5.433h6.655v-5.372h5.306zm10.915-15c-2.22 0-3.2-.051-3.933-.118V235.87h3.757c5.6 0 9.131 2.041 9.131 6.286s-3.7 6.851-8.957 6.851m-158.223 34.87h4.623v28.136h-4.623v6.245h16.962v-6.245h-5.367v-10.6h11.967v-6h-11.965v-11.607h11.659v5.449h6.656v-11.62h-29.91zm56.129 28.2h-12.11v-11.48h12.3v-5.91h-12.3v-10.881h12.045v5.449h6.667v-11.62h-30.3v6.242h4.63v28.136h-4.63v6.245h30.367v-11.619h-6.667zm70.724-28.2h5.059v19.264l-19.986-25.506h-10.544v6.242h4.615v28.136h-10.115l-6.242-11.041a11.742 11.742 0 0 0 7.655-11.059c0-8.266-6.656-12.278-15.988-12.278h-15.729v6.242h4.629v28.136h-4.629v6.245H496.8v-6.245h-5.061v-9.129c.856.063 2.047.063 3.337.063.786 0 1.6-.063 2.453-.126l8.151 15.437h26.713v-6.245h-5.053v-21.784l22.144 28.218 3.761-.134v-34.436h4.449v-6.242h-16.288zm-45.722 13.148a38.9 38.9 0 0 1-3.949-.139v-13.009h3.756c5.618 0 9.14 2.027 9.14 6.3 0 4.252-3.7 6.848-8.947 6.848"/>
        <g id="Group_5009" data-name="Group 5009">
            <path id="Path_8712" data-name="Path 8712" class="cls-2" d="M343.055 295.933a8.07 8.07 0 0 1 .752 3.571 12.661 12.661 0 0 0-2.386-3.117c-1.156.324-2.361.65-3.619.948-.976.247-3.021.8-5.121 1.409a10.5 10.5 0 0 1 1.113 1.2 17.942 17.942 0 0 1 2.631 4.562 24.545 24.545 0 0 0-7.3-4.771c-1.728.495-3 .839-3 .839a73.377 73.377 0 0 0-5.279 1.729 22.884 22.884 0 0 1 4.779 3.817 32.882 32.882 0 0 1 3.5 4.239c-2.848-1.92-8.81-4.925-13.935-5.32a45.664 45.664 0 0 0-6.272 4.52c3.277.972 6.956 3.005 11.2 7.207.7.683 1.432 1.428 2.155 2.258a37.421 37.421 0 0 0-18.309-4.441 49.253 49.253 0 0 0-5.223 7.218c4.228-.286 9.583.707 16.624 4.941a42.137 42.137 0 0 1 2.947 1.9c-5.814-1.934-17.274-2.319-22.813.21a30.608 30.608 0 0 0-1.045 7.908c11.209-2.126 17.681-.172 24.615 1.75 3.594-28.892 21.514-32.541 39.793-48.256h-.008a103.717 103.717 0 0 1-15.799 5.679z"/>
            <path id="Path_8713" data-name="Path 8713" class="cls-2" d="M322.083 220.259a77.378 77.378 0 1 0 77.359 77.378 77.369 77.369 0 0 0-77.359-77.378zM322 365.781c-1.229 0-2.434-.04-3.633-.113-.662-.1-1.367-.213-2.1-.342-17.608-2.683-24.623-13.726-26.206-23.23-2.062-12.313 2.794-19.078 5.548-23.264 8.757-12.864 20.691-18.51 31-21.359 0 0 9.213-2.584 11.687-3.214 11.815-2.908 19.455-5.953 22.953-7.928a22.892 22.892 0 0 0 8.73-8.588 17.6 17.6 0 0 0 2.481-10.377c-.74-6.94-5.784-10.512-10.4-10.838-.436 0-.863-.018-1.3 0a9.879 9.879 0 0 0-4.873 1.579 8.115 8.115 0 0 0-3 3.706 6.042 6.042 0 0 0-.5 2.356v.04a6.121 6.121 0 0 0 12.242 0 6.418 6.418 0 0 0-.576-2.624 6.241 6.241 0 0 1 2.85 4.469 10.776 10.776 0 0 1 .107 2.339 10.462 10.462 0 0 1-.286 1.934c-.641 2.209-1.923 4.22-5.611 5.512a37.026 37.026 0 0 1-4.637 1.027 9.5 9.5 0 0 1-2.1 6.024 8.338 8.338 0 0 1-.972 1.011 12.012 12.012 0 0 0 .312-6.616c-1.968.231-4.017.4-6.178.553a10.9 10.9 0 0 1-1.762 7.774 7.86 7.86 0 0 1-1.025 1.292 14.717 14.717 0 0 0-.7-8.874c-2.037.1-4.115.187-6.245.3a12.585 12.585 0 0 1-1.519 9.712 11.17 11.17 0 0 1-1.12 1.541 17.016 17.016 0 0 0-1.648-11.061c-2.319.132-4.7.3-7.1.513a15.159 15.159 0 0 1-.7 10.565 12.162 12.162 0 0 1-1.083 1.976h-.01c.476-4.2-1.128-8.779-3.149-12.009-2.625.341-5.294.76-7.977 1.329a18.487 18.487 0 0 1 1.835 11.751 14.244 14.244 0 0 1-.616 2.412c-.573-4.925-3.507-9.829-6.442-12.9a66.731 66.731 0 0 0-8.542 2.943 18.933 18.933 0 0 1 5.094 11.63 16.132 16.132 0 0 1-.013 2.679c-1.976-5.127-6.66-9.5-10.668-11.764a62.384 62.384 0 0 0-7.507 4.563 19.671 19.671 0 0 1 8.38 10.761 24.1 24.1 0 0 1 .893 3.457c-3.355-4.888-9.672-8.746-14.382-10.093a62.635 62.635 0 0 0-6.379 6.537c4.591 2.469 10.662 7.564 13.159 13.953v.018c-4.34-4.2-12.436-6.709-18.254-7.163a63.385 63.385 0 0 0-4.538 8.151c8.675 2.319 12.95 5.266 15.062 7.619v.018a4.566 4.566 0 0 1 1.357 4.014 61.451 61.451 0 0 0-.664 3.781c-1.256 8.308-.565 14.845 1.31 20.014A68.419 68.419 0 1 1 322 365.781z"/>
        </g>
        <path id="Path_8714" data-name="Path 8714" class="cls-2" d="M563.527 281.462c.453 0 .68-.194.68-.534 0-.365-.249-.535-.7-.535h-.293v1.069zm-1.493 1.436h.385v-2.505h-.385v-.755h1.517c.861 0 1.539.39 1.539 1.217a1.237 1.237 0 0 1-.656 1.1l.431.948h.407v.753h-.972l-.634-1.458h-.453v.705h.385v.753h-1.562zm-1.656-1.168a3.185 3.185 0 1 0 3.173-3.476 3.273 3.273 0 0 0-3.173 3.476m-.9-.025a4.084 4.084 0 1 1 4.078 4.328 4.181 4.181 0 0 1-4.078-4.328"/>
    </g>
</svg>
