
<svg id="desktop-logo" xmlns="http://www.w3.org/2000/svg" viewBox="0 0 841.9 471.3">
<title lang="en">Te Whare Wananga o Awanuiarangi logo</title>
<style>#desktop-logo .st1{fill:#006b35}#desktop-logo .st3{fill-rule:evenodd;clip-rule:evenodd;fill:#fff}#desktop-logo .st4{fill:#282829}</style><path class="st0" fill="#fff" d="M240.5 4.8h360.9L420.5 276.5z"></path><path class="st1" d="M420.5 285.1L231.6 0h378.7L420.5 285.1zM240.5 4.8l180.1 271.7L601.4 4.8H240.5z"></path><path class="st2" fill="#ba131a" d="M255.3 12.6l165.2 248.6L586 12.6z"></path><path class="st3" d="M420.6 128.8c-12.9-2-25.6-6.8-36.1-16.2-6.6-6-8.3-13.9-3.6-21.3 4.8-7.5 15-7.9 20.3-2.8 3.7 3.6 4.7 8.1 1.6 12.8-2.2 3.4-6.4 4.6-10.2 2.3-1.9-1.2-3.4-3.6-2.8-6.1.5-1.9 1.4-3.2 3.4-3.6-1.9-.6-4.6 1.3-5.1 4.3-1.1 7.1 10.1 13.3 22.9 16.9l.2-53.6s-.2-2.9-.7-6.8c-.3-2.1-3.5-11.4-14.3-14.7-3.7-1.1-7-1.7-9.6-1.7-25.8.2-35.8.2-58.7.3-6.4.2-6.8 3.3-6.8 4.4-.2 15.2 63.7 38.3 71.6 20.7 1.6-3.5-.9-7.8-2.4-8 1.9 1.8 1.9 3.8 1.1 6.1-1 3.1-4.4 4.4-7.1 4.3-5.6-.1-9-4.2-9-9.2 0-7.1 4.3-10.9 10.7-12.2 9.1-1.8 19.3 5.5 19.2 16.6-.1 11-7.3 18.2-18.4 20C325.6 91.1 274 21.2 274 21.2c5.1-.1 288-.1 293 0 0 0-51.5 69.9-112.8 60.1-11-1.8-18.3-8.9-18.4-20-.1-11.1 10.1-18.4 19.2-16.6 6.4 1.3 10.7 5.1 10.7 12.2 0 5-3.5 9.1-9.1 9.2-2.8.1-6.1-1.2-7.1-4.3-.8-2.3-.7-4.4 1.1-6.1-1.5.1-4 4.5-2.4 8 7.8 17.6 71.7-5.5 71.6-20.7 0-1.1-.4-4.2-6.8-4.4-22.9-.1-32.9-.1-58.7-.3-2.6 0-6 .5-9.6 1.7-10.8 3.3-14 12.6-14.3 14.7-.5 3.8-.7 6.8-.7 6.8l.2 53.6c12.8-3.6 24-9.8 22.9-16.9-.5-3-3.2-4.8-5.1-4.3 2 .4 2.9 1.7 3.4 3.6.6 2.5-.9 4.9-2.8 6.1-3.8 2.3-8 1.1-10.2-2.3-3.1-4.8-2.1-9.2 1.6-12.8 5.3-5.2 15.5-4.7 20.3 2.8 4.7 7.4 3 15.3-3.6 21.3-10.1 9.4-22.9 14.2-35.8 16.2"></path><path class="st1" d="M478.7 210.7c-2.8-9.2.6-15.5.6-19-.2-6.5-5.1-8.3-1.7-24.8 3.5-17.1 7.4-34.2.5-45.8-5.7-9.4-23.5-7.9-26.1-7.4-5.6.9-8.8 3.1-14.5 3.1-4.5 0-10.4-3.7-16.4-3.7h-.3c-6.1-.1-12.2 3.7-16.8 3.7-5.7 0-9-2.2-14.5-3.1-2.7-.4-20.5-2-26.1 7.4-7 11.5-3.1 28.6.5 45.8 3.4 16.4-1.6 18.3-1.7 24.8-.1 3.5 3.4 9.8.6 19-8.2 43.6 47.9 48.8 58 63.3 9.8-14.5 66.1-19.8 57.9-63.3"></path><path class="st3" d="M446.5 223.6c0-2.2 1.8-3.9 3.9-3.9 2.2 0 3.9 1.8 3.9 3.9 0 2.2-1.8 3.9-3.9 3.9-2.1 0-3.9-1.8-3.9-3.9M386.9 223.6c0-2.2 1.8-3.9 3.9-3.9 2.2 0 3.9 1.8 3.9 3.9 0 2.2-1.8 3.9-3.9 3.9-2.2.1-3.9-1.7-3.9-3.9M420.8 234.5c10.3 0 14.1-11.5 14.1-11.5 1.9-1.4 4.7-2.5 4.7-2.5-2 2.4-3.4 18.7-14.7 21.9-2.8.8-6.9.5-8.6 0-11.3-3.3-12.7-19.5-14.7-21.9 0 0 3.5 1 5.3 2.4 0 0 3.2 11.5 13.5 11.6h.4z"></path><path class="st3" d="M431.1 223.3c-1.5 4.3-5.6 7.5-10.4 7.5-4.9 0-9.2-3.2-10.4-7.5 2.8.6 6.3 2.6 10.4 6 4.4-3.7 7.9-5.6 10.4-6"></path><path class="st3" d="M473.1 217.1c-7.8-25-44.5-15.7-52.5-7-8.1-8.7-44.8-18-52.6 7-7.6 24.4 45.3 42.5 52.5 50.1 7.2-7.5 60.2-25.7 52.6-50.1m-52.6 33.3c-7.1-7.6-38.6-15.2-35.8-28.7 1.9-9.2 27.8-4.3 35.9 4.5 8-8.7 33.9-13.7 35.8-4.5 2.8 13.5-28.7 21.1-35.9 28.7M457.7 192.8c0-4.9 4-8.8 8.8-8.8s8.8 4 8.8 8.8c0 4.9-4 8.8-8.8 8.8s-8.8-3.9-8.8-8.8M365.4 192.9c0-4.9 4-8.8 8.8-8.8s8.8 4 8.8 8.8c0 4.9-4 8.8-8.8 8.8s-8.8-3.9-8.8-8.8"></path><path class="st3" d="M426 196c0-1.1 1.2-2 2.8-2 1.5 0 2.8.9 2.8 2s-1.2 2-2.8 2c-1.6.1-2.8-.8-2.8-2M409.6 196c0-1.1 1.2-2 2.8-2 1.5 0 2.8.9 2.8 2s-1.2 2-2.8 2c-1.5.1-2.8-.8-2.8-2"></path><path class="st3" d="M420.7 186.7c6 .3 10 2.5 12.3 6.8-3.6-3.9-9.4-1.9-9.6 2-.3 5.8-.3 9.3-2.8 9.1-2.5.2-2.7-3.3-2.9-9.1-.2-3.8-6.2-5.6-9.8-1.8 2.4-4.4 6.8-6.7 12.8-7M456.7 181.5c-5.7 0-10.2-4.6-10.2-10.2 0-1.1.2-2.2.5-3.2-5 9.1-8.5 19.5-10.5 31.2 11.2-5.2 20-11.9 26.5-20.1-1.7 1.5-3.9 2.3-6.3 2.3M456.7 161.1c5.7 0 10.2 4.6 10.2 10.2 0 1.3-.3 2.4-.7 3.5 6.7-10.3 10.2-22.7 10.3-37.1-11.5 6.9-20.6 15.8-27.3 26.6 1.9-2 4.6-3.2 7.5-3.2"></path><path class="st3" d="M453.6 171.3c0-1.7 1.4-3.1 3.1-3.1 1.7 0 3.1 1.4 3.1 3.1 0 1.7-1.4 3.1-3.1 3.1-1.7 0-3.1-1.4-3.1-3.1M394.2 168.2c.3 1 .5 2 .5 3.1 0 5.7-4.6 10.2-10.2 10.2-2.4 0-4.6-.9-6.4-2.3 6.5 8.2 15.3 14.9 26.5 20.1-1.9-11.6-5.4-22-10.4-31.1M374.3 171.3c0-5.7 4.6-10.2 10.2-10.2 2.9 0 5.5 1.2 7.4 3.1-6.7-10.8-15.8-19.6-27.3-26.5.1 14.5 3.6 26.9 10.4 37.2-.5-1.1-.7-2.3-.7-3.6"></path><path class="st3" d="M381.4 171.3c0-1.7 1.4-3.1 3.1-3.1s3.1 1.4 3.1 3.1c0 1.7-1.4 3.1-3.1 3.1s-3.1-1.4-3.1-3.1M420.7 165.1c1.6 3.4 3.8 6.7 6.5 9.7.1 3.6.6 7.2 1.4 10.9-2.1-1.8-4.7-2.7-7.9-2.7s-6 .9-8.1 2.7c.8-3.7 1.3-7.3 1.4-10.9 2.7-3 5-6.3 6.7-9.7M427.6 171.5c5.7-31 27.1-46 48.4-36.1 0 0 2.5-10.8-9.9-16.7-14.6-6.9-43 14.2-43.8 39.8-.2 5.5 5.3 13 5.3 13M413.6 171.5c-5.7-31-27.1-46-48.4-36.1 0 0-2.5-10.8 9.9-16.7 14.6-6.9 43 14.2 43.8 39.8.2 5.5-5.3 13-5.3 13M410.5 126.2c0-5.6 4.6-10.2 10.2-10.2s10.2 4.6 10.2 10.2-4.6 10.2-10.2 10.2c-5.7 0-10.2-4.5-10.2-10.2"></path><path class="st4" d="M44.9 471.3c-.2 0-.3-.1-.3-.3v-2.3c0-.2.1-.3.3-.3 5 0 7.7-.7 8.7-2.2.8-1.2.6-2.9-.6-5.6l-5.1-11.7H22.8l-5 11.7c-1.1 2.6-1.3 4.4-.5 5.6 1 1.5 3.8 2.3 8.7 2.3.2 0 .3.1.3.3v2.3c0 .2-.1.3-.3.3H.3c-.2 0-.3-.1-.3-.3v-2.3c0-.2.1-.3.3-.3 8.6 0 9.2-1.5 12.3-8.5l23.7-55c0-.1.2-.2.3-.2h2.5c.1 0 .2.1.3.2l23.9 55c3.1 7 3.7 8.5 12.2 8.5.2 0 .3.1.3.3v2.3c0 .2-.1.3-.3.3H44.9zm.9-27.2l-10.4-24.7-10.5 24.7h20.9zM131.3 472.1c-.1 0-.2-.1-.3-.2l-17.3-47.6-17.1 47.6c0 .1-.2.2-.3.2h-2.5c-.1 0-.2-.1-.3-.2L74 417.7c-2.7-7.4-4.5-9.2-12.4-9.2-.2 0-.3-.1-.3-.3v-2.3c0-.2.1-.3.3-.3h29.9c.2 0 .3.1.3.3v2.3c0 .2-.1.3-.3.3-4.4 0-6.8.6-7.8 2-.8 1.2-.8 3 .2 5.8l13.6 38.4 17.3-49c0-.1.2-.2.3-.2h2.5c.1 0 .2.1.3.2l17.1 49 13.8-38.4c1.1-3 1.2-4.8.4-5.9-.9-1.3-3.2-1.9-7.5-1.9-.2 0-.3-.1-.3-.3v-2.3c0-.2.1-.3.3-.3h24.6c.2 0 .3.1.3.3v2.3c0 .2-.1.3-.3.3-8.3 0-10 1.9-12.6 9.2l-19.5 54.2c0 .1-.2.2-.3.2h-2.6zM197 471.3c-.2 0-.3-.1-.3-.3v-2.3c0-.2.1-.3.3-.3 5 0 7.7-.7 8.7-2.2.8-1.2.6-2.9-.6-5.6l-5.1-11.7h-25l-5 11.7c-1.1 2.6-1.3 4.4-.5 5.6 1 1.5 3.8 2.3 8.7 2.3.2 0 .3.1.3.3v2.3c0 .2-.1.3-.3.3h-25.7c-.2 0-.3-.1-.3-.3v-2.3c0-.2.1-.3.3-.3 8.6 0 9.2-1.5 12.3-8.5l23.7-55c0-.1.2-.2.3-.2h2.5c.1 0 .2.1.3.2l23.9 55c3.1 7 3.7 8.5 12.2 8.5.2 0 .3.1.3.3v2.3c0 .2-.1.3-.3.3H197zm1-27.2l-10.4-24.7-10.5 24.7H198zM292.3 472.6c-.1 0-.2 0-.2-.1l-42.9-51.7V456c0 10.8 1.3 12.4 10.1 12.4.2 0 .3.1.3.3v2.3c0 .2-.1.3-.3.3h-25.4c-.2 0-.3-.1-.3-.3v-2.3c0-.2.1-.3.3-.3 8.7 0 10-1.6 10-12.4v-35.2c0-10.8-1.2-12.3-10-12.3-.2 0-.3-.1-.3-.3v-2.3c0-.2.1-.3.3-.3h15.3c.1 0 .2 0 .2.1l40.4 48.7v-33.6c0-10.8-1.2-12.3-10-12.3-.2 0-.3-.1-.3-.3v-2.3c0-.2.1-.3.3-.3h25.4c.2 0 .3.1.3.3v2.3c0 .2-.1.3-.3.3-8.8 0-10.1 1.6-10.1 12.3v51.5c0 .2-.1.3-.3.3h-2.5zM347.8 473.1c-18.2 0-26.3-13.2-26.3-26.3v-26c0-10.8-1.2-12.3-10-12.3-.2 0-.3-.1-.3-.3v-2.3c0-.2.1-.3.3-.3h29.7c.2 0 .3.1.3.3v2.3c0 .2-.1.3-.3.3-8.8 0-10 1.5-10 12.3v26.6c0 12.4 7 20.1 18.2 20.1 11.9 0 19.2-7.7 19.2-20.1v-26.6c0-10.7-1.3-12.3-10.1-12.3-.2 0-.3-.1-.3-.3v-2.3c0-.2.1-.3.3-.3h25.8c.2 0 .3.1.3.3v2.3c0 .2-.1.3-.3.3-8.8 0-10.1 1.6-10.1 12.3v26c.1 16-10.3 26.3-26.4 26.3M390.6 471.3c-.2 0-.3-.1-.3-.3v-2.3c0-.2.1-.3.3-.3 8.7 0 10-1.6 10-12.4v-35.2c0-10.8-1.2-12.3-10-12.3-.2 0-.3-.1-.3-.3v-2.3c0-.2.1-.3.3-.3h29.7c.2 0 .3.1.3.3v2.3c0 .2-.1.3-.3.3-8.8 0-10 1.5-10 12.3V456c0 10.8 1.3 12.4 10 12.4.2 0 .3.1.3.3v2.3c0 .2-.1.3-.3.3h-29.7zM471.2 471.3c-.2 0-.3-.1-.3-.3v-2.3c0-.2.1-.3.3-.3 5 0 7.7-.7 8.7-2.2.8-1.2.6-2.9-.6-5.6l-5.1-11.7h-25.1l-5 11.7c-1.1 2.6-1.3 4.4-.5 5.6 1 1.5 3.8 2.3 8.7 2.3.2 0 .3.1.3.3v2.3c0 .2-.1.3-.3.3h-25.7c-.2 0-.3-.1-.3-.3v-2.3c0-.2.1-.3.3-.3 8.6 0 9.2-1.5 12.3-8.5l23.7-55c0-.1.2-.2.3-.2h2.5c.1 0 .2.1.3.2l23.9 55c3.1 7 3.7 8.5 12.2 8.5.2 0 .3.1.3.3v2.3c0 .2-.1.3-.3.3h-30.6zm.9-27.2l-10.4-24.7-10.5 24.7h20.9zM554 471.3c-.1 0-.2 0-.2-.1l-21.4-28.4h-4.6V456c0 10.8 1.3 12.4 10 12.4.2 0 .3.1.3.3v2.3c0 .2-.1.3-.3.3h-29.7c-.2 0-.3-.1-.3-.3v-2.3c0-.2.1-.3.3-.3 8.7 0 10-1.6 10-12.4v-35.2c0-10.8-1.2-12.3-10-12.3-.2 0-.3-.1-.3-.3v-2.3c0-.2.1-.3.3-.3h29.1c16.3 0 23.6 9.4 23.6 18.6 0 9.8-7.4 17-19 18.4l10.3 12c4.9 5.7 12.4 12.8 20 13.7.2 0 .3.1.3.3v2.3c0 .2-.1.3-.3.3H554zm-17-33.1c8.4 0 13.5-5.2 13.5-13.9 0-6.7-3.5-13.9-13.5-13.9h-9.2v27.8h9.2zM622.7 471.3c-.2 0-.3-.1-.3-.3v-2.3c0-.2.1-.3.3-.3 5 0 7.7-.7 8.7-2.2.8-1.2.6-2.9-.6-5.6l-5.1-11.7h-25.1l-5 11.7c-1.1 2.6-1.3 4.4-.5 5.6 1 1.5 3.8 2.3 8.7 2.3.2 0 .3.1.3.3v2.3c0 .2-.1.3-.3.3h-25.7c-.2 0-.3-.1-.3-.3v-2.3c0-.2.1-.3.3-.3 8.6 0 9.2-1.5 12.3-8.5l23.7-55c0-.1.2-.2.3-.2h2.5c.1 0 .2.1.3.2l23.9 55c3.1 7 3.7 8.5 12.2 8.5.2 0 .3.1.3.3v2.3c0 .2-.1.3-.3.3h-30.6zm1-27.2l-10.4-24.7-10.5 24.7h20.9zM771.6 473.1c-20.1 0-34.7-14.6-34.7-34.7 0-19.8 14.4-34.7 33.6-34.7 8.1 0 15.4 3 20.7 8.6 1.5-1.2 2.6-3.3 3-5.5 0-.1.2-.2.3-.2h2c.2 0 .3.1.3.3v23.8c0 .2-.1.3-.3.3h-2.2c-.1 0-.3-.1-.3-.2-2.9-13.9-11.1-21.6-23.2-21.6-16.9 0-22.9 15.7-22.9 29.2 0 8.8 2.4 29.3 25 29.3 8.8 0 17.6-4.4 17.6-14.3 0-4.4-1.4-6.7-8.8-6.7-.2 0-.3-.1-.3-.3v-2.3c0-.2.1-.3.3-.3h25.2c.2 0 .3.1.3.3v2.3c0 .2-.1.3-.3.3-6.1 0-7.8 1.6-7.8 12.3v8.2c0 .2-.1.3-.3.3-6.1 0-10.1 1.5-13.9 2.9-3.8 1.3-7.7 2.7-13.3 2.7M811.9 471.3c-.2 0-.3-.1-.3-.3v-2.3c0-.2.1-.3.3-.3 8.7 0 10-1.6 10-12.4v-35.2c0-10.8-1.2-12.3-10-12.3-.2 0-.3-.1-.3-.3v-2.3c0-.2.1-.3.3-.3h29.7c.2 0 .3.1.3.3v2.3c0 .2-.1.3-.3.3-8.8 0-10 1.5-10 12.3V456c0 10.8 1.3 12.4 10 12.4.2 0 .3.1.3.3v2.3c0 .2-.1.3-.3.3h-29.7zM718.1 472.6c-.1 0-.2 0-.2-.1L675 420.8V456c0 10.8 1.3 12.4 10.1 12.4.2 0 .3.1.3.3v2.3c0 .2-.1.3-.3.3h-25.4c-.2 0-.3-.1-.3-.3v-2.3c0-.2.1-.3.3-.3 8.7 0 10-1.6 10-12.4v-35.2c0-10.8-1.2-12.3-10-12.3-.2 0-.3-.1-.3-.3v-2.3c0-.2.1-.3.3-.3H675c.1 0 .2 0 .2.1l40.4 48.7v-33.6c0-10.8-1.2-12.3-10-12.3-.2 0-.3-.1-.3-.3v-2.3c0-.2.1-.3.3-.3H731c.2 0 .3.1.3.3v2.3c0 .2-.1.3-.3.3-8.8 0-10.1 1.6-10.1 12.3v51.5c0 .2-.1.3-.3.3h-2.5zM477.6 400h-26.8c-.2 0-.3-.1-.3-.3v-4.2c0-.2.1-.3.3-.3h26.8c.2 0 .3.1.3.3v4.2c0 .2-.2.3-.3.3M12.7 366.8c-.2 0-.5-.2-.5-.5v-1.6c0-.2.2-.5.5-.5 5.9 0 6.7-1 6.7-8.3v-31h-6.8c-6.6 0-7.3 1.6-8.2 5.2l-.4 1.7c0 .2-.2.3-.4.3H2c-.1 0-.2-.1-.3-.1-.1-.1-.1-.2-.1-.3l.7-10c0-.2.2-.4.4-.4h40.6c.2 0 .4.2.5.4l.7 10c0 .1 0 .2-.1.3-.1.1-.2.1-.3.1h-1.6c-.2 0-.4-.1-.4-.3l-.4-1.5c-.9-3.6-1.6-5.2-8.2-5.2h-6.8v31c0 7.2.8 8.3 6.7 8.3.2 0 .5.2.5.5v1.6c0 .2-.2.5-.5.5H12.7zM47.8 366.8c-.2 0-.5-.2-.5-.5v-1.6c0-.2.2-.5.5-.5 5.8 0 6.6-1 6.6-8.3v-24.2c0-7.3-.7-8.2-6.6-8.2-.2 0-.5-.2-.5-.5v-1.6c0-.2.2-.5.5-.5h33.9c.2 0 .4.2.5.4l.7 10c0 .1 0 .2-.1.3-.1.1-.2.1-.3.1h-1.6c-.2 0-.4-.1-.4-.3l-.4-1.5c-.9-3.6-1.6-5.2-8.2-5.2H61.6v15.8h3c7.3 0 8.2-.7 8.2-6.5 0-.2.2-.5.5-.5h1.6c.2 0 .5.2.5.5v16.9c0 .3-.2.5-.5.5h-1.6c-.2 0-.5-.2-.5-.5 0-5.9-.8-6.5-8.2-6.5h-3V355c0 7.2.7 8 6.6 8h6.1c6.6 0 7.3-1.6 8.2-5.3l.4-1.5c.1-.2.2-.3.4-.3h1.6c.1 0 .2.1.3.1.1.1.1.2.1.3l-.6 10c0 .2-.2.4-.5.4H47.8zM151 367.4c-.2 0-.4-.1-.4-.3l-11.6-32-11.5 32c-.1.2-.2.3-.4.3h-1.7c-.2 0-.4-.1-.4-.3l-13.5-37.2c-1.8-4.9-3-6.2-8.3-6.2-.3 0-.5-.2-.5-.5v-1.6c0-.2.2-.5.5-.5h20.5c.2 0 .5.2.5.5v1.6c0 .2-.2.5-.5.5-2.9 0-4.6.4-5.2 1.3-.5.7-.5 1.9.2 3.8l9.1 25.7 11.6-32.9c.1-.2.2-.3.4-.3h1.7c.2 0 .4.1.4.3l11.5 32.9 9.2-25.7c.7-2 .8-3.1.3-3.8-.6-.8-2.2-1.2-5-1.2-.3 0-.5-.2-.5-.5v-1.6c0-.2.2-.5.5-.5h16.9c.3 0 .5.2.5.5v1.6c0 .2-.2.5-.5.5-5.3 0-6.6.9-8.4 6.2L153 367.2c-.1.2-.2.3-.4.3H151zM209.6 366.8c-.2 0-.5-.2-.5-.5v-1.6c0-.2.2-.5.5-.5 5.9 0 6.7-1 6.7-8.3v-11.5h-23.7v11.5c0 7.2.8 8.3 6.6 8.3.2 0 .5.2.5.5v1.6c0 .2-.2.5-.5.5h-20.4c-.2 0-.5-.2-.5-.5v-1.6c0-.2.2-.5.5-.5 5.8 0 6.6-1 6.6-8.3v-24.2c0-7.3-.7-8.2-6.6-8.2-.2 0-.5-.2-.5-.5v-1.6c0-.2.2-.5.5-.5h20.4c.2 0 .5.2.5.5v1.6c0 .2-.2.5-.5.5-5.9 0-6.6.9-6.6 8.2v8.8h23.7v-8.8c0-7.2-.8-8.2-6.7-8.2-.2 0-.5-.2-.5-.5v-1.6c0-.2.2-.5.5-.5h20.5c.2 0 .5.2.5.5v1.6c0 .2-.2.5-.5.5-5.9 0-6.7.9-6.7 8.2v24.2c0 7.3.8 8.3 6.7 8.3.2 0 .5.2.5.5v1.6c0 .2-.2.5-.5.5h-20.5zM264.6 366.8c-.2 0-.5-.2-.5-.5v-1.6c0-.2.2-.5.5-.5 3.3 0 5.1-.5 5.8-1.4.5-.7.4-1.9-.4-3.6l-3.5-7.9h-16.9l-3.4 7.9c-.7 1.7-.8 2.8-.4 3.6.6 1 2.5 1.4 5.7 1.4.2 0 .5.2.5.5v1.6c0 .2-.2.5-.5.5H234c-.2 0-.5-.2-.5-.5v-1.6c0-.2.2-.5.5-.5 5.7 0 6.1-.9 8.2-5.7l16.3-37.7c.1-.2.2-.3.4-.3h1.7c.2 0 .3.1.4.3l16.4 37.7c2.1 4.8 2.5 5.7 8.1 5.7.2 0 .5.2.5.5v1.6c0 .2-.2.5-.5.5h-20.9zm.2-19.1l-6.8-16.1-6.8 16.1h13.6zM320.9 366.8c-.1 0-.3-.1-.4-.2l-14.6-19.4h-2.8v8.8c0 7.2.8 8.3 6.6 8.3.2 0 .5.2.5.5v1.6c0 .2-.2.5-.5.5h-20.4c-.2 0-.5-.2-.5-.5v-1.6c0-.3.2-.5.5-.5 5.8 0 6.6-1 6.6-8.3v-24.2c0-7.3-.7-8.2-6.6-8.2-.2 0-.5-.2-.5-.5v-1.6c0-.2.2-.5.5-.5h19.9c11.4 0 16.4 6.5 16.4 13 0 6.7-5 11.7-12.8 12.8l6.7 7.9c4.7 5.5 9.5 8.8 13.5 9.3.2 0 .4.2.4.4v1.6c0 .2-.2.5-.5.5h-12zm-11.7-23.2c5.6 0 9-3.5 9-9.3s-3.4-9.3-9-9.3h-6.1v18.6h6.1zM337 366.8c-.2 0-.5-.2-.5-.5v-1.6c0-.2.2-.5.5-.5 5.8 0 6.6-1 6.6-8.3v-24.2c0-7.3-.7-8.2-6.6-8.2-.2 0-.5-.2-.5-.5v-1.6c0-.2.2-.5.5-.5h33.9c.2 0 .4.2.5.4l.7 10c0 .1 0 .2-.1.3-.1.1-.2.1-.3.1H370c-.2 0-.4-.1-.4-.3l-.4-1.5c-.9-3.6-1.6-5.2-8.2-5.2h-10.3v15.8h3c7.3 0 8.2-.7 8.2-6.5 0-.2.2-.5.5-.5h1.6c.2 0 .5.2.5.5v16.9c0 .3-.2.5-.5.5h-1.6c-.2 0-.5-.2-.5-.5 0-5.9-.8-6.5-8.2-6.5h-3V355c0 7.2.7 8 6.6 8h6.1c6.6 0 7.3-1.6 8.2-5.3l.4-1.5c.1-.2.2-.3.4-.3h1.6c.1 0 .2.1.3.1.1.1.1.2.1.3l-.6 10c0 .2-.2.4-.5.4H337zM439.4 367.4c-.2 0-.4-.1-.4-.3l-11.6-32-11.5 32c-.1.2-.2.3-.4.3h-1.7c-.2 0-.4-.1-.4-.3l-13.5-37.2c-1.8-4.9-3-6.2-8.3-6.2-.3 0-.5-.2-.5-.5v-1.6c0-.2.2-.5.5-.5h20.5c.3 0 .5.2.5.5v1.6c0 .2-.2.5-.5.5-2.9 0-4.6.4-5.2 1.3-.5.7-.5 1.9.2 3.8l9.1 25.7 11.6-32.9c.1-.2.2-.3.4-.3h1.7c.2 0 .4.1.4.3l11.5 32.9 9.2-25.7c.7-2 .8-3.1.3-3.8-.6-.8-2.2-1.2-5-1.2-.2 0-.5-.2-.5-.5v-1.6c0-.2.2-.5.5-.5h16.9c.3 0 .5.2.5.5v1.6c0 .2-.2.5-.5.5-5.3 0-6.6.9-8.4 6.2l-13.4 37.2c-.1.2-.2.3-.4.3h-1.6zM484.1 366.8c-.2 0-.5-.2-.5-.5v-1.6c0-.2.2-.5.5-.5 3.3 0 5.1-.5 5.8-1.4.5-.7.4-1.9-.4-3.6l-3.5-7.9h-16.9l-3.4 7.9c-.7 1.7-.8 2.8-.4 3.6.6 1 2.5 1.4 5.7 1.4.2 0 .5.2.5.5v1.6c0 .2-.2.5-.5.5h-17.6c-.2 0-.5-.2-.5-.5v-1.6c0-.2.2-.5.5-.5 5.7 0 6.1-.9 8.2-5.7l16.3-37.7c.1-.2.2-.3.4-.3h1.7c.2 0 .3.1.4.3l16.4 37.7c2.1 4.8 2.5 5.7 8.1 5.7.2 0 .5.2.5.5v1.6c0 .2-.2.5-.5.5h-20.8zm.3-19.1l-6.8-16.1-6.8 16.1h13.6zM549 367.7c-.1 0-.3-.1-.3-.2l-29-35V356c0 7.2.8 8.3 6.7 8.3.2 0 .5.2.5.5v1.6c0 .2-.2.5-.5.5H509c-.2 0-.5-.2-.5-.5v-1.6c0-.2.2-.5.5-.5 5.8 0 6.6-1 6.6-8.3v-24.2c0-7.3-.7-8.2-6.6-8.2-.2 0-.5-.2-.5-.5v-1.6c0-.2.2-.5.5-.5h10.5c.1 0 .3.1.3.2l27.3 32.9v-22.4c0-7.3-.7-8.2-6.6-8.2-.3 0-.5-.2-.5-.5v-1.6c0-.2.2-.5.5-.5h17.4c.2 0 .5.2.5.5v1.6c0 .2-.2.5-.5.5-5.9 0-6.7 1-6.7 8.2V367c0 .2-.2.5-.5.5H549zM591.9 366.8c-.2 0-.5-.2-.5-.5v-1.6c0-.2.2-.5.5-.5 3.3 0 5.1-.5 5.8-1.4.5-.7.4-1.9-.4-3.6l-3.5-7.9h-16.9l-3.4 7.9c-.7 1.7-.8 2.8-.4 3.6.6 1 2.5 1.4 5.7 1.4.2 0 .5.2.5.5v1.6c0 .2-.2.5-.5.5h-17.6c-.2 0-.5-.2-.5-.5v-1.6c0-.2.2-.5.5-.5 5.7 0 6.1-.9 8.2-5.7l16.3-37.7c.1-.2.2-.3.4-.3h1.7c.2 0 .3.1.4.3l16.4 37.7c2.1 4.8 2.5 5.7 8.1 5.7.2 0 .5.2.5.5v1.6c0 .2-.2.5-.5.5h-20.8zm.3-19.1l-6.8-16.1-6.8 16.1h13.6zM656.8 367.7c-.1 0-.3-.1-.3-.2l-29-35V356c0 7.2.8 8.3 6.7 8.3.2 0 .5.2.5.5v1.6c0 .2-.2.5-.5.5h-17.4c-.2 0-.5-.2-.5-.5v-1.6c0-.2.2-.5.5-.5 5.8 0 6.6-1 6.6-8.3v-24.2c0-7.3-.7-8.2-6.6-8.2-.2 0-.5-.2-.5-.5v-1.6c0-.2.2-.5.5-.5h10.5c.1 0 .3.1.3.2l27.3 32.9v-22.4c0-7.3-.7-8.2-6.6-8.2-.3 0-.5-.2-.5-.5v-1.6c0-.2.2-.5.5-.5h17.4c.2 0 .5.2.5.5v1.6c0 .2-.2.5-.5.5-5.9 0-6.7 1-6.7 8.2V367c0 .2-.2.5-.5.5h-1.7zM693 368.1c-13.9 0-24-10.1-24-24 0-13.7 10-24 23.3-24 5.5 0 10.6 2.1 14.2 5.8.9-.8 1.6-2.1 1.8-3.5 0-.2.2-.4.4-.4h1.3c.2 0 .5.2.5.5v16.4c0 .2-.2.5-.5.5h-1.5c-.2 0-.4-.2-.4-.4-2-9.4-7.5-14.6-15.7-14.6-11.4 0-15.5 10.7-15.5 19.8 0 6 1.6 19.9 16.9 19.9 5.9 0 11.8-3 11.8-9.6 0-2.9-.9-4.4-5.8-4.4-.2 0-.5-.2-.5-.5V348c0-.2.2-.5.5-.5h17.3c.2 0 .5.2.5.5v1.6c0 .2-.2.5-.5.5-3.8 0-5.1.7-5.1 8.2v5.7c0 .2-.2.5-.5.5-4.1 0-6.8 1-9.5 2-2.4.6-5.1 1.6-9 1.6M750.4 366.8c-.2 0-.5-.2-.5-.5v-1.6c0-.2.2-.5.5-.5 3.3 0 5.1-.5 5.8-1.4.5-.7.4-1.9-.4-3.6l-3.5-7.9h-16.9l-3.4 7.9c-.7 1.7-.8 2.8-.4 3.6.6 1 2.5 1.4 5.7 1.4.2 0 .5.2.5.5v1.6c0 .2-.2.5-.5.5h-17.6c-.2 0-.5-.2-.5-.5v-1.6c0-.2.2-.5.5-.5 5.7 0 6.1-.9 8.2-5.7l16.3-37.7c.1-.2.2-.3.4-.3h1.7c.2 0 .3.1.4.3l16.4 37.7c2.1 4.8 2.5 5.7 8.1 5.7.2 0 .5.2.5.5v1.6c0 .2-.2.5-.5.5h-20.8zm.3-19.1l-6.8-16.1-6.8 16.1h13.6zM815.1 368.1c-14.2 0-25.3-10.6-25.3-24 0-13.5 11.1-24 25.3-24 14.1 0 25.2 10.6 25.2 24s-11.1 24-25.2 24m0-44.2c-13.6 0-17.3 12.6-17.3 20.1s3.6 20.1 17.3 20.1c13.6 0 17.2-12.6 17.2-20.1s-3.7-20.1-17.2-20.1M488.6 317.4H470c-.1 0-.2-.1-.2-.2v-2.9c0-.1.1-.2.2-.2h18.6c.1 0 .2.1.2.2v2.9c0 .1-.1.2-.2.2"></path></svg>