<svg id="Layer_1" data-name="Layer 1" xmlns="http://www.w3.org/2000/svg" viewBox="0 0 826.45 1269.65"><defs><style>.cls-1{fill:#ed186a;fill-rule:evenodd;}.cls-2{fill:#5548cd;}.cls-3{fill:#fff;}</style></defs><title>blob_and_line</title><path class="cls-1" d="M826.45,0C385.73,9.42-91,457.89,158.9,837,248.12,972.4,359.83,1085.78,330,1258.65H826.45Z"/><path class="cls-2" d="M826.45,56V67.5a714.89,714.89,0,0,0-92.59-23.38c-91-12.45-179.46-10.25-258.8,7-83.91,18.19-157.58,53.16-213.17,105.28S168.86,277.52,157,364.27c-7.53,55-4.77,117,10.24,186.28,9.33,43,20.23,83.78,30.69,122.84,50.3,187.93,90.33,337.52-99.87,521.17A958.14,958.14,0,0,1,18,1263.65H0a960.86,960.86,0,0,0,90.5-76.93c185.57-179.18,146.27-326,96.89-510.52C176.9,637,166,596.11,156.57,552.85c-15.28-70.51-18.07-133.83-10.37-190,12.25-89.41,51-160.74,108.23-214.4S387,59,472.76,40.42C553.34,23,643.11,20.72,735.4,33.35l.36.06A746.23,746.23,0,0,1,826.45,56Z"/><path class="cls-3" d="M825.45,25.34V36.47q-12.59-2.76-25.84-5.27c-91-12.45-179.46-10.25-258.8,7C456.89,56.34,383.23,91.31,327.63,143.43s-93,121.17-104.91,207.92c-7.53,55-4.77,117,10.24,186.28,9.33,43,20.24,83.78,30.69,122.84C314,848.4,354,998,163.79,1181.64a988.46,988.46,0,0,1-105.29,88H39.89c37.56-26.76,76.47-57.34,116.35-95.85,185.58-179.18,146.27-326,96.89-510.52-10.49-39.2-21.43-80.09-30.81-123.35-15.29-70.51-18.08-133.83-10.38-190,12.25-89.41,51-160.74,108.24-214.4s132.54-89.4,218.33-108C619.09,10,708.85,7.8,801.15,20.43l.36.06c8.18,1.53,16.13,3.17,23.93,4.85Z"/></svg>