<svg id="Layer_1" data-name="Layer 1" xmlns="http://www.w3.org/2000/svg" viewBox="0 0 31.63 128.68"><defs><style>.cls-1{fill:#1f1b4b;}</style></defs><title>dots</title><path class="cls-1" d="M1.23,2.45A1.22,1.22,0,0,1,0,1.23H0A1.23,1.23,0,0,1,1.23,0h0A1.23,1.23,0,0,1,2.45,1.23h0A1.22,1.22,0,0,1,1.23,2.45Zm0,12.63A1.23,1.23,0,0,1,0,13.85H0a1.23,1.23,0,0,1,1.23-1.23h0a1.23,1.23,0,0,1,1.22,1.23h0A1.23,1.23,0,0,1,1.23,15.08Zm0,12.62A1.23,1.23,0,0,1,0,26.47H0a1.24,1.24,0,0,1,1.23-1.23h0a1.23,1.23,0,0,1,1.22,1.23h0A1.23,1.23,0,0,1,1.23,27.7Zm0,12.62A1.23,1.23,0,0,1,0,39.09H0a1.23,1.23,0,0,1,1.23-1.22h0a1.22,1.22,0,0,1,1.22,1.22h0A1.23,1.23,0,0,1,1.23,40.32Zm0,12.62A1.22,1.22,0,0,1,0,51.72H0a1.23,1.23,0,0,1,1.23-1.23h0a1.23,1.23,0,0,1,1.22,1.23h0A1.22,1.22,0,0,1,1.23,52.94Zm0,12.63A1.23,1.23,0,0,1,0,64.34H0a1.23,1.23,0,0,1,1.23-1.23h0a1.23,1.23,0,0,1,1.22,1.23h0A1.23,1.23,0,0,1,1.23,65.57Zm0,12.62A1.23,1.23,0,0,1,0,77H0a1.24,1.24,0,0,1,1.23-1.23h0A1.23,1.23,0,0,1,2.45,77h0A1.23,1.23,0,0,1,1.23,78.19Zm0,12.63A1.24,1.24,0,0,1,0,89.58H0a1.23,1.23,0,0,1,1.23-1.22h0a1.22,1.22,0,0,1,1.22,1.22h0A1.24,1.24,0,0,1,1.23,90.82Zm0,12.61A1.22,1.22,0,0,1,0,102.21H0A1.23,1.23,0,0,1,1.23,101h0a1.23,1.23,0,0,1,1.22,1.23h0A1.22,1.22,0,0,1,1.23,103.43Zm0,12.63A1.23,1.23,0,0,1,0,114.83H0a1.23,1.23,0,0,1,1.23-1.23h0a1.23,1.23,0,0,1,1.22,1.23h0A1.23,1.23,0,0,1,1.23,116.06Zm0,12.62A1.23,1.23,0,0,1,0,127.45H0a1.23,1.23,0,0,1,1.23-1.23h0a1.23,1.23,0,0,1,1.22,1.23h0A1.23,1.23,0,0,1,1.23,128.68Z"/><path class="cls-1" d="M15.81,2.45a1.22,1.22,0,0,1-1.22-1.22h0A1.23,1.23,0,0,1,15.81,0h0A1.23,1.23,0,0,1,17,1.23h0A1.22,1.22,0,0,1,15.81,2.45Zm0,12.63a1.23,1.23,0,0,1-1.22-1.23h0a1.23,1.23,0,0,1,1.22-1.23h0A1.23,1.23,0,0,1,17,13.85h0A1.23,1.23,0,0,1,15.81,15.08Zm0,12.62a1.23,1.23,0,0,1-1.22-1.23h0a1.23,1.23,0,0,1,1.22-1.23h0A1.24,1.24,0,0,1,17,26.47h0A1.23,1.23,0,0,1,15.81,27.7Zm0,12.62a1.23,1.23,0,0,1-1.22-1.23h0a1.22,1.22,0,0,1,1.22-1.22h0A1.23,1.23,0,0,1,17,39.09h0A1.23,1.23,0,0,1,15.81,40.32Zm0,12.62a1.22,1.22,0,0,1-1.22-1.22h0a1.23,1.23,0,0,1,1.22-1.23h0A1.23,1.23,0,0,1,17,51.72h0A1.22,1.22,0,0,1,15.81,52.94Zm0,12.63a1.23,1.23,0,0,1-1.22-1.23h0a1.23,1.23,0,0,1,1.22-1.23h0A1.23,1.23,0,0,1,17,64.34h0A1.23,1.23,0,0,1,15.81,65.57Zm0,12.62A1.23,1.23,0,0,1,14.59,77h0a1.23,1.23,0,0,1,1.22-1.23h0A1.24,1.24,0,0,1,17,77h0A1.23,1.23,0,0,1,15.81,78.19Zm0,12.63a1.24,1.24,0,0,1-1.22-1.24h0a1.22,1.22,0,0,1,1.22-1.22h0A1.23,1.23,0,0,1,17,89.58h0A1.24,1.24,0,0,1,15.81,90.82Zm0,12.61a1.22,1.22,0,0,1-1.22-1.22h0A1.23,1.23,0,0,1,15.81,101h0A1.23,1.23,0,0,1,17,102.21h0A1.22,1.22,0,0,1,15.81,103.43Zm0,12.63a1.23,1.23,0,0,1-1.22-1.23h0a1.23,1.23,0,0,1,1.22-1.23h0A1.23,1.23,0,0,1,17,114.83h0A1.23,1.23,0,0,1,15.81,116.06Zm0,12.62a1.23,1.23,0,0,1-1.22-1.23h0a1.23,1.23,0,0,1,1.22-1.23h0A1.23,1.23,0,0,1,17,127.45h0A1.23,1.23,0,0,1,15.81,128.68Z"/><path class="cls-1" d="M30.4,2.45a1.21,1.21,0,0,1-1.22-1.22h0A1.22,1.22,0,0,1,30.4,0h0a1.23,1.23,0,0,1,1.23,1.23h0A1.22,1.22,0,0,1,30.4,2.45Zm0,12.63a1.22,1.22,0,0,1-1.22-1.23h0a1.22,1.22,0,0,1,1.22-1.23h0a1.23,1.23,0,0,1,1.23,1.23h0A1.23,1.23,0,0,1,30.4,15.08Zm0,12.62a1.22,1.22,0,0,1-1.22-1.23h0a1.23,1.23,0,0,1,1.22-1.23h0a1.24,1.24,0,0,1,1.23,1.23h0A1.23,1.23,0,0,1,30.4,27.7Zm0,12.62a1.22,1.22,0,0,1-1.22-1.23h0a1.22,1.22,0,0,1,1.22-1.22h0a1.23,1.23,0,0,1,1.23,1.22h0A1.23,1.23,0,0,1,30.4,40.32Zm0,12.62a1.21,1.21,0,0,1-1.22-1.22h0a1.22,1.22,0,0,1,1.22-1.23h0a1.23,1.23,0,0,1,1.23,1.23h0A1.22,1.22,0,0,1,30.4,52.94Zm0,12.63a1.22,1.22,0,0,1-1.22-1.23h0a1.22,1.22,0,0,1,1.22-1.23h0a1.23,1.23,0,0,1,1.23,1.23h0A1.23,1.23,0,0,1,30.4,65.57Zm0,12.62A1.22,1.22,0,0,1,29.18,77h0a1.23,1.23,0,0,1,1.22-1.23h0A1.24,1.24,0,0,1,31.63,77h0A1.23,1.23,0,0,1,30.4,78.19Zm0,12.63a1.23,1.23,0,0,1-1.22-1.24h0a1.22,1.22,0,0,1,1.22-1.22h0a1.23,1.23,0,0,1,1.23,1.22h0A1.24,1.24,0,0,1,30.4,90.82Zm0,12.61a1.21,1.21,0,0,1-1.22-1.22h0A1.22,1.22,0,0,1,30.4,101h0a1.23,1.23,0,0,1,1.23,1.23h0A1.22,1.22,0,0,1,30.4,103.43Zm0,12.63a1.22,1.22,0,0,1-1.22-1.23h0a1.22,1.22,0,0,1,1.22-1.23h0a1.23,1.23,0,0,1,1.23,1.23h0A1.23,1.23,0,0,1,30.4,116.06Zm0,12.62a1.22,1.22,0,0,1-1.22-1.23h0a1.22,1.22,0,0,1,1.22-1.23h0a1.23,1.23,0,0,1,1.23,1.23h0A1.23,1.23,0,0,1,30.4,128.68Z"/></svg>