<svg xmlns="http://www.w3.org/2000/svg" xmlns:xlink="http://www.w3.org/1999/xlink" viewBox="0 0 912.75 853.36"><defs><style>.cls-1{isolation:isolate;}.cls-11,.cls-12,.cls-13,.cls-2,.cls-3,.cls-4,.cls-5,.cls-8,.cls-9{fill-rule:evenodd;}.cls-2{fill:url(#radial-gradient);}.cls-3{fill:#54577f;}.cls-3,.cls-5{opacity:0.3;}.cls-10,.cls-3,.cls-5{mix-blend-mode:multiply;}.cls-4{mix-blend-mode:soft-light;fill:url(#Áåçûìÿííûé_ãðàäèåíò_339);}.cls-5{fill:#5457a6;}.cls-6{fill:#ff8d2f;}.cls-7{fill:#ffe8bb;}.cls-8{fill:#b13d2f;}.cls-9{fill:url(#Áåçûìÿííûé_ãðàäèåíò_312);}.cls-10{opacity:0.58;}.cls-11{fill:#c4b0ff;}.cls-12{fill:url(#Áåçûìÿííûé_ãðàäèåíò_312-2);}.cls-13{fill:url(#Áåçûìÿííûé_ãðàäèåíò_312-3);}</style><radialGradient id="radial-gradient" cx="4.79" cy="70.96" r="306.38" gradientTransform="matrix(0.8, -0.61, -0.61, -0.8, 315.91, 632.14)" gradientUnits="userSpaceOnUse"><stop offset="0" stop-color="#454297"/><stop offset="0.84" stop-color="#21005b"/><stop offset="1" stop-color="#4e58cf"/></radialGradient><radialGradient id="Áåçûìÿííûé_ãðàäèåíò_339" cx="-890.08" cy="-656.29" r="122.22" gradientTransform="matrix(0.96, -0.27, -0.27, -0.96, 775.69, -68.19)" gradientUnits="userSpaceOnUse"><stop offset="0" stop-color="#fff"/><stop offset="1" stop-color="#a091cb"/></radialGradient><radialGradient id="Áåçûìÿííûé_ãðàäèåíò_312" cx="103.73" cy="191.03" r="544.55" gradientTransform="matrix(-1, 0, 0, 1, 725.62, 0)" gradientUnits="userSpaceOnUse"><stop offset="0" stop-color="#ff8425"/><stop offset="0.84" stop-color="#c03440"/><stop offset="0.93" stop-color="#a43166"/><stop offset="1" stop-color="#cf68d1"/></radialGradient><radialGradient id="Áåçûìÿííûé_ãðàäèåíò_312-2" cx="190.56" cy="157.79" r="680.77" xlink:href="#Áåçûìÿííûé_ãðàäèåíò_312"/><radialGradient id="Áåçûìÿííûé_ãðàäèåíò_312-3" cx="123.72" cy="160.53" r="680.77" xlink:href="#Áåçûìÿííûé_ãðàäèåíò_312"/></defs><title>left_planets1</title><g class="cls-1"><g id="Layer_1" data-name="Layer 1"><path class="cls-2" d="M305.28,510.25a188.7,188.7,0,0,0-52.83-28,178.41,178.41,0,0,0-29.35-7.6,191,191,0,0,0-162.28,48.4c-3.7,3.44-7.22,7-10.62,10.77a190.39,190.39,0,0,0-48.92,107c-.45,3.84-.78,7.73-1,11.6A190.79,190.79,0,0,0,224.7,850.27c4.71-.84,9.46-1.92,14.19-3.18H239c1.26-.34,2.51-.68,3.81-1.05a190.59,190.59,0,0,0,30.41-11.48c2.83-1.33,5.6-2.75,8.38-4.24a182.79,182.79,0,0,0,21.57-13.61,189.13,189.13,0,0,0,35.13-33.35l.05,0a190.46,190.46,0,0,0,35.26-66.55c.71-2.39,1.36-4.88,2-7.37a190,190,0,0,0-1.39-98.81q-.79-2.8-1.71-5.5A186.94,186.94,0,0,0,348,554.77,189.29,189.29,0,0,0,305.28,510.25Z"/><path class="cls-3" d="M147,770.19a6,6,0,0,1-3.46-.76c.46-1.7-1.69-3.64-.59-5.45,1.61.09,4.49-.91,5.08,1.42.09.33-.28,1-.27,1.33s.39,1,.24,1.5c-.32,1-2.38,2.51-3.13,3.3Z"/><path class="cls-4" d="M281.56,830.32c-.26,0-.55.06-.88.09a49.57,49.57,0,0,0-12,2.27,15,15,0,0,0-3,.81c-.63.35-.81.8-1.52,1.1-1.51.7-3.08,1.41-4.46,2.2-2.43,1.46-5.85,2-8.71,2.77-3.47,1-6.57,3.61-10.08,4.2-3.82.65-7.76.19-11.52,1.33l-2.63.74c-2.27.61-3.63-.41-6.36-.73-1-1.43-2.23-4.09-3.86-4.79a7.82,7.82,0,0,0-1.94-.46,37,37,0,0,0-5.16-.51,46.38,46.38,0,0,0-9.91.88A61.21,61.21,0,0,0,192,843c-5,2-9.75,4.07-15.3,3.23-3-.47-6.12-1.07-9.22-1.49a29.91,29.91,0,0,1-5.47-.93c-1.3-.43-2.48-1.2-3.73-1.71-1.51-.61-3.2-.2-4.81-.34a9.59,9.59,0,0,1-4.91-2.22c-2.09-1.58-2.52-4.07-4.27-5.74a7.86,7.86,0,0,0-3.77-1.51c-6.16-1.56-9.45-6.68-14.69-9.84-3.81-2.33-8.56-2.25-12.59-4.32a108.58,108.58,0,0,1-11.48-7.24c-2.53-1.72-4.23-1.94-7.08-2.31a22,22,0,0,1-8.46-2.85c-2.54-1.65-5-3.31-7.65-4.71-2.12-1.11-4.52-1.43-6.6-2.61-1.89-1.14-3.22-2.9-4.84-4.35-3.58-3.19-6.16-7.11-9.6-10.41C54.65,781,50.35,779,49,775.12a10.42,10.42,0,0,1-.53-3.63c-.06-2-1.1-3.87-1.55-5.81a12.89,12.89,0,0,1-.08-3.22,28.53,28.53,0,0,1-.19-4.33c.42-2.32,2-4.31,2.7-6.51a8,8,0,0,0-1.37-7.1c-1.5-2.22-3.14-4.46-4.77-6.57-2.5-3.27-6.69-5.56-8.68-9.24-.73-1.4-.6-2.94-.71-4.41a53.47,53.47,0,0,0-.76-5.5A14.33,14.33,0,0,0,31,713.67,13,13,0,0,0,28.31,711c-.46-.4-1.13-.55-1.6-.92a17.35,17.35,0,0,1-1.92-2.53c-.71-.83-2.25-2.84-3.41-3-2.43-.45-2,4-3.72,3.13-1.25-.62-1.18-3.08-1.63-4.22A16.16,16.16,0,0,0,13.21,699c-2.14-2.5-3.5-2.92-3.58-6.28a27.47,27.47,0,0,1,1-7.8c.87-3.19-.48-5.71-.58-8.79-.07-1.65-.84-3.18-1.22-4.77s0-3-.15-4.54A8,8,0,0,0,7.58,663c-.52-.66-1.59-.79-2.28-1.2-1.34-.85-1.72-2.08-2.5-3.4a21.52,21.52,0,0,1-2.52-5.94A190.83,190.83,0,0,0,224.7,850.26c4.74-.84,9.46-1.88,14.18-3.15l.06,0c1.29-.3,2.56-.66,3.82-1A190.58,190.58,0,0,0,281.56,830.32Z"/><path class="cls-5" d="M231,569.8c-3.05,2.19-7.59-1.4-7.47-5.15s3.14-6.77,6.31-8.79c3.81-2.43,8.65-4.06,12.83-2.34,7,2.89,7.12,14.15,1.17,18.91s-14.88,3.82-21.52.08Z"/><path class="cls-5" d="M250.38,642c-.18,3.54,5.28,5,7.88,2.62s2.61-6.56,1.59-10c-2.1-7-8.75-13.11-16.07-12.48s-13,10-8.71,16a15.23,15.23,0,0,0,5,4.11,48.69,48.69,0,0,0,11.3,4.66Z"/><path class="cls-5" d="M162,606.94c-2.95,2-.13,7.41,3.41,7s5.66-4.54,5.16-8.07-2.82-6.49-5.09-9.23a7.92,7.92,0,0,0-1.58,11.44Z"/><path class="cls-5" d="M320.42,758c-3.51-3.79-7.2-7.65-11.88-9.92-7.47-3.59-16.56-2.44-24.1,1.1s-13.8,9.21-20,14.81c-5.87,5.36-12.17,11.53-12.66,19.45-.27,4.88,1.74,9.6,3.76,14q4.4,9.83,8.73,19.58a159,159,0,0,0,8.9,17.47c2.83-1.33,5.6-2.75,8.38-4.24a182.79,182.79,0,0,0,21.57-13.61,189.13,189.13,0,0,0,35.13-33.35l.05,0-.87-2.22C333.73,772.27,327,765.08,320.42,758Z"/><path class="cls-5" d="M213.53,799c-.27,2.7-3.84,4-4.51,6.58-1,3.88,4.54,5.89,8.53,5.68,7.34-.39,15.37-2.7,19.19-9,2.22-3.65,2.66-8.1,2.75-12.37.09-4.55-.24-9.39-2.85-13.13-3.08-4.42-8.82-6.36-14.21-6.23s-10.57,2-15.63,3.89c-3.63,1.33-7.71,3.13-8.86,6.83-.8,2.55.09,5.33,1.27,7.73a33.06,33.06,0,0,0,13.28,14.13Z"/><path class="cls-5" d="M69.46,663.37a14.12,14.12,0,0,1,.67-5.75,12,12,0,0,1,3.29-4.42c7.88-7.13,19.94-7.89,30.05-4.65s18.72,9.88,27.11,16.38c5.8,4.49,12,9.69,13.13,16.94,3,19.76-22.69,37.3-40.44,31.2S70.2,681,69.46,663.37Z"/><circle class="cls-6" cx="537.69" cy="375.09" r="364.67" transform="translate(-107.75 490.07) rotate(-45)"/><circle class="cls-7" cx="537.69" cy="375.09" r="319.52" transform="translate(-107.75 490.07) rotate(-45)"/><path class="cls-8" d="M322.35,187.61c-9.78,18.21-69.88,61.56-85.74,58.37s50.83-104.78,70.94-109S333.69,166.44,322.35,187.61Zm40.22,23.46c33.85,15.14,166.45,109,167.9,218S381.61,544.37,264.15,454.94,325.37,194.43,362.57,211.07ZM477.18,58.31c27.54,6.36,53.35,36.64,40.22,55-7,9.89-39.49,9.16-69.09,14.14s-62.12-7.77-60-21.17S449.7,51.94,477.18,58.31Zm17.65-12c-14.07-2.8-20.78-10.56-18.71-15.14s41.28,1.39,44.8,9.49C524.21,48.19,509,49.14,494.83,46.3ZM770,211.07c-32.84-2.06-194.77-13.79-226.5-71.55s-4-116.9,66.64-110.59c100.57,9,170.08,80,193.71,122.88C814.39,170.91,802.83,213.19,770,211.07ZM602.8,568.22c2.13-11.4,31.56-7.37,35.08,12.73,3.3,18.72-12,21.06-26.08,14S600.68,579.61,602.8,568.22ZM660,573c25.41-68.7,133.33-165.16,164-142.54s58.37,118.08,0,179.91C745.68,693.28,634.53,641.78,660,573ZM431.55,677c1.23-25.75,135.28-77.92,188.18-67.37s95.68,84.24,60.32,99.48C586.94,749.36,430.26,702.78,431.55,677Zm-190-119.54c29.66-5.92,102.61,69.71,82.78,73.73C281.8,639.88,212,563.47,241.58,557.49ZM162.66,380.05c2.62,204.88,169.58,370.1,375,370.1s372.39-165.22,375-370.1C910.57,213.2,799.48,72.56,647.27,26.14l-5.2-1.51c-1.39-.44-2.79-.84-4.19-1.17A373.16,373.16,0,0,0,537.68,9.89C332.18,9.89,165.28,175.17,162.66,380.05Z"/><path class="cls-9" d="M162.6,375.08c0,1.67,0,3.35.06,5,2.62,204.88,169.58,370.1,375,370.1s372.39-165.22,375-370.1c0-1.62,0-3.3,0-5C912.75,168,744.85,0,537.68,0S162.6,168,162.6,375.08Zm145-248c20.11-4.19,26.14,29.5,14.8,50.67-9.78,18.2-69.88,61.55-85.74,58.36S287.44,131.32,307.55,127.07ZM517.4,103.45c-7,9.88-39.49,9.16-69.09,14.13s-62.12-7.77-60-21.17,61.38-54.35,88.86-48S530.53,85.07,517.4,103.45Zm-22.57-67c-14.07-2.79-20.78-10.56-18.71-15.14s41.28,1.4,44.8,9.5C524.21,38.32,509,39.27,494.83,36.42ZM647.27,26.14c64.62,20.5,136.9,80,156.62,115.79,10.5,19.1-1.06,61.39-33.85,59.27s-194.77-13.8-226.5-71.56S539.3,16,610.18,19.05a132.18,132.18,0,0,1,27.7,4.41c1.4.33,2.8.73,4.19,1.17C643.8,25.08,645.54,25.58,647.27,26.14ZM602.8,558.34c2.13-11.39,31.56-7.37,35.08,12.74,3.3,18.71-12,21-26.08,14S600.68,569.74,602.8,558.34ZM660,563.15C685.36,494.44,793.28,398,824,420.6s58.37,118.08,0,179.91C745.68,683.4,634.53,631.9,660,563.15Zm-228.4,104c1.23-25.75,135.28-77.92,188.18-67.36s95.68,84.23,60.32,99.48C586.94,739.48,430.26,692.9,431.55,667.15Zm-190-119.53c29.66-5.92,102.61,69.71,82.78,73.73C281.8,630,212,553.59,241.58,547.62Zm121-346.42c33.85,15.13,166.45,109,167.9,218S381.61,534.49,264.15,445.06,325.37,184.55,362.57,201.2Z"/><g class="cls-10"><path class="cls-11" d="M202.88,269.59c2.91,2,8.46,4.74,7.53,9.14-.43,2-1.64,3.8-2.28,5.77a24,24,0,0,0-1.07,5.36c-.21,2.47-1.53,6.29-3.29,8.19-1.35,1.45-2.76-.06-3.66-1.41a10,10,0,0,1-2.09-4.86,33.66,33.66,0,0,0-.82-6.94c-.23-.88-.9-1.68-1.11-2.6a15.66,15.66,0,0,1-.15-3.81C196,275.73,198,270.62,202.88,269.59Z"/><path class="cls-11" d="M588.51,218.22a2.72,2.72,0,0,0-.66-3c-4.32.1-5.84,8.64-1.77,10.31,4.67,1.91,5.25-4.52,3.82-7.31Z"/><path class="cls-11" d="M668.2,273c-2.27-1.09-4.14-2.59-6.64-2a9.85,9.85,0,0,0-5.23,3.33c-1.75,2-2.48,4.56-3.23,7.07-.37,1.23-1,2.39-.63,3.68,1.35,5.1,7.16,8.69,11.78,10.15a35.48,35.48,0,0,0,8,2.05c1.9.15,3.84.44,5.72.76,1.59.27,3.05.92,4.69.5a12.25,12.25,0,0,0,3.68-2.06,11.52,11.52,0,0,0,4.84-9.55c-.25-6.64-8.16-11.93-13.56-14.63C673.13,270,666.11,267.3,668.2,273Z"/><path class="cls-11" d="M647.41,264c.63,1.9,1.19,2.48-.34,3.52a4.51,4.51,0,0,1-3.84.31c-2.33-.77-5.23-4.27-3.51-6.65.88-1.2,2.93-3.35,4.38-3.49,2.84-.29,6.41,3.78,6.08,6.31Z"/><path class="cls-11" d="M872.33,241.79a8.67,8.67,0,0,1,1.27,2.76c.79,2.45,1.6,4.89,2.39,7.35,1.48,4.62,3.67,9,5.2,13.61a68.67,68.67,0,0,1,2.2,10.32c.3,1.78.54,3.69.69,5.46-.44,0-.78-.79-1.08-1.12-1-1.09-1.79-2.4-2.86-3.4-2.41-2.26-4.86-4.64-7.1-7.08a8.12,8.12,0,0,0-1.21-1.4c-.64-.45-1.5-.81-2.17-1.21a13.24,13.24,0,0,1-3.32-2.64c-2.16-2.49-3.31-6-4.18-9.11-.29-1.08-.34-2.17-.67-3.25a32.91,32.91,0,0,1-.89-3.45,20.39,20.39,0,0,1,.52-7.65c.62-2.91.84-7.71,3.77-9.44,1.42-.84,2.55.67,3.19,1.84.82,1.48,1.34,3.09,2.08,4.6C871.14,240,872.69,242.25,872.33,241.79Z"/><path class="cls-11" d="M557.33,305.87c-.73-1.23-1.72-3.48-3.56-3.08s-1.86,3-1.66,4.4c.49,3.36,4.8-.15,4.53-2.36Z"/><path class="cls-11" d="M524.41,327a6.16,6.16,0,0,1,.89,4c-.42,2.08-2,2.9-4,3-3.08.12-5.19-.66-5.82-3.83-.39-1.95.93-4.92,2.35-6.25a4.09,4.09,0,0,1,2.53-1.05c1.9-.14,2.8,1.34,3.72,2.79Z"/><path class="cls-11" d="M328,133a36.23,36.23,0,0,0-7.7,5.22c-2,1.88-3.22,4.25-4.93,6.33-2.41,2.92-5.52,5-8.38,7.51-2.51,2.2-4.66,4.49-5.7,7.73a9.8,9.8,0,0,0,.8,8.05,18.15,18.15,0,0,0,3.63,4c.66.56,1.29,1,1.95,1.58a7.63,7.63,0,0,0,1.14,1c.69.41.85.2,1.22-.37a5.27,5.27,0,0,0,1.07-3.31,16.07,16.07,0,0,1,1.45-6c.74-1.83,1.34-3.68,2.2-5.46s1.69-3.48,2.5-5.25c.7-1.51,1.34-3.06,2-4.58s1.6-2.88,2.39-4.32c.66-1.21,1.55-2.26,2.18-3.48a21.69,21.69,0,0,1,1.25-2.21,9.36,9.36,0,0,0,.95-1.76,16.49,16.49,0,0,1,1-1.63A13.3,13.3,0,0,0,328,133Z"/><path class="cls-11" d="M249.52,520.94c.51.26,1.14.45,1.41,1a3.24,3.24,0,0,1,.22.93c.11,1.41-1.83,2-2.79,2.32a10.7,10.7,0,0,1-8.54-.9c-1.63-1-3.46-3.15-3.67-5.27-.28-2.94,1.93-5.28,4-6.52s5-2.15,7.16-.7a4.61,4.61,0,0,1,1.89,2.15c.27.73.22,1.51.42,2.26.27,1,1,1.74.83,2.84A3.45,3.45,0,0,1,249.52,520.94Z"/><path class="cls-11" d="M233.65,525.7a1.62,1.62,0,0,0-.78-1.47,1.26,1.26,0,0,0-1.65-.24,2.15,2.15,0,0,0-.44,3,2.23,2.23,0,0,0,2.05.63,1.75,1.75,0,0,0,1.28-1.83Z"/><path class="cls-11" d="M194.51,466.27a3.72,3.72,0,0,1,2.58,1.26,1.71,1.71,0,0,1,.64,1.51,7.56,7.56,0,0,1-2.62,4.64,3.85,3.85,0,0,1-3.27.64,11.29,11.29,0,0,1-2.76-1.8,27.13,27.13,0,0,1-2.21-1.83c-1.24-1.11-2.35-2.44-1.92-4.26a4.75,4.75,0,0,1,3.24-3.49,6.27,6.27,0,0,1,3.26.32C192.57,463.56,193.54,463.69,194.51,466.27Z"/><path class="cls-11" d="M201.82,471.49a5.88,5.88,0,0,0-2.09,1.35c.14.41-.24.75,0,1.19.4.61,1.34.13,1.8,0a2.41,2.41,0,0,0,1.38-1.25c.09-.22.53-1.18,0-1.09Z"/><path class="cls-11" d="M288.74,503.66c.79.89,1.68,1.87,1.12,3.25s-2.14,1.49-3.28,1.26c-.6-.12-1.29-.25-1.56-.91s-.39-1.48-.61-2.18c-.52-1.68-2.37-2.46-1.47-4.47a3.15,3.15,0,0,1,2.26-1.75c1.61-.1,2.88,1.47,3.82,2.77Z"/><path class="cls-11" d="M862.49,337a16.22,16.22,0,0,1,7.77,4.24c0,.38-.07.77-.1,1.15a7.44,7.44,0,0,1-.16,6.06c-3.1,5.91-9.26,5.2-14.86,5.17-6,0-13.63.64-10.87-7.66,1.26-3.79,3-10,6.51-12.36,1.86-1.26,2.81-.67,4.62,0,2.27.84,5.28,1.68,7.09,3.4Z"/><path class="cls-11" d="M638.05,500.24c-.91-1.63-2.27-4.76-4.62-5-1.9-.22-2.56.89-3.95,1.89-3,2.17-5.91,5-2.91,8.91a8.07,8.07,0,0,0,6.81,2.47c2-.35,5.32-2.78,4.67-5.13Z"/><path class="cls-11" d="M419.36,217c1.49,3.07,1.63,3.26.76,6.36-.66,2.34-1.1,5-2.85,6.8-2.33,2.42-5.51,1.83-8.43,2.46-2.29.49-3.6.65-5.6-.9a21.69,21.69,0,0,1-5-6c-3.92-6.95-3.74-17.12-.57-24.26,2.08-4.68,5.18-10,10.48-11.52,4.46-1.26,9.56-.24,12.72,3.18s4,8.49,3,13c-.3,1.06-.6,2.12-.88,3.18a21.15,21.15,0,0,0-.1,4.13C422.77,214.83,421.94,216.16,419.36,217Z"/><path class="cls-11" d="M614,260.34c-2.94,2.34-2.51,1.94-3,4.91-.2,1.3-.72,1.59-.44,2.83a4.48,4.48,0,0,0,4.13,2.86c1.26-.11,3.17-2.47,3.68-3.42.78-1.46.48-2.25-.21-3.67Z"/><path class="cls-11" d="M358.57,94.51c.63,2.55,1.47,5.58-1.36,7.32-1.92,1.18-4.88,0-6.57-1.32A17.58,17.58,0,0,1,345.26,91c-.43-3.25,3.48-6.71,6.47-7.08,6.06-.76,9.3,8.87,9.65,13.41Z"/><path class="cls-11" d="M745.1,135.27c.35-.73,1.81-2.79,1.56-3.69-.11-.43-.61-.51-.81-.83-.75-1.23-1.59-2.32-3-2.55a6.2,6.2,0,0,0-6.9,3.2c-1,1.73-1,3.5.44,4.92,1.58,1.57,5,2.29,6.62.35Z"/><path class="cls-11" d="M372.17,646.64c2.93,3.64,4,8.29,4.53,13,.33,3,1.05,6.91-1.3,9-5.53,4.81-14.86-9.28-17.48-13.89a36.89,36.89,0,0,1-4.5-13c-.33-2.7,0-8.38,1.85-10.35,2.4-2.53,6.25-1.37,8.74.71,5.74,4.79,6.88,12.72,10.7,18.94Z"/><path class="cls-11" d="M375.17,644.69c.7-.06,3.69-.63,4.89-.16.86.32,2.21.81,2.68,1.71a4.4,4.4,0,0,1-.34,3.88c-.37.69-1.21,1.56-2,1.43-.65-.09-1.39-.87-1.91-1.32a18.28,18.28,0,0,1-2.51-2.85,8.88,8.88,0,0,1-1.09-1.5c-.42-.9,0-1.39,0-2.2Z"/><path class="cls-11" d="M389.54,681.49l-1.84,1.75c.42.91.42,2.11,1.42,2.5a3.76,3.76,0,0,0,2.75-.6,2.42,2.42,0,0,0,.84-2.73c-.4-1.27-1.57-1.5-2.67-1.43Z"/><path class="cls-11" d="M600.78,552.45c.39,1.23.54,2.16-.46,3.17a3.82,3.82,0,0,1-5.15.52c-2.2-1.72-4.64-5.57-4-8.53.4-1.87,2.81-4,4.7-2.91a14.93,14.93,0,0,1,3,2.13,8.78,8.78,0,0,1,1.92,5.26Z"/><path class="cls-11" d="M593,450.31c.88.82,1.32,1.08,1.54,2.21a4.83,4.83,0,0,1-.37,3.69c-1.44,2.29-5.08,3.83-7.66,4.43a7,7,0,0,1-6.18-1.17,9,9,0,0,1-4-6.27c-.39-2.82.16-4.86,2.59-6.58a18.37,18.37,0,0,1,7-3.29,6.15,6.15,0,0,1,5.42,1.68C592.81,446.27,594.77,448.54,593,450.31Z"/><path class="cls-11" d="M573.31,459.08c0-.73.1-1.58-.71-1.79-1-.26-2.9.71-3.57,1.42a4.18,4.18,0,0,0-1,2.78,2.84,2.84,0,0,0,1.27,1.61,2.48,2.48,0,0,0,2.84.21c.62-.38,2.15-1.19,1.9-2.12Z"/><path class="cls-11" d="M633.36,366a4.79,4.79,0,0,1-.7,3.15,13.3,13.3,0,0,1-4.2,4.18,12.27,12.27,0,0,1-7.39,2.21c-1.83-.16-3.59-2.23-3.86-3.95a10.31,10.31,0,0,1,1.71-6.75c2.42-3.24,6.75-5.88,10.93-5.53C634.66,359.74,634.83,366.89,633.36,366Z"/><path class="cls-11" d="M612.64,382.88a3.64,3.64,0,0,0,1.08-1.73c-.7-.32-.93-1.11-1.68-1.38a3,3,0,0,0-2.31.28,2.94,2.94,0,0,0-1.67,2.48c-.06,1.24.42,1.5,1.42,2,.73.38.88.54,1.67.11a9.11,9.11,0,0,0,1.49-1.08Z"/><path class="cls-11" d="M516,248.8c4.82-.45,11.18-1.69,16.3-.91A84.92,84.92,0,0,1,544,250.47c6,1.81,11.76,4.61,17.66,6.8,11.71,4.36,26.08,7.43,31.22,20.5,2.52,6.4.16,12.61-.48,19.22a158.3,158.3,0,0,0-.19,17.43c.1,6.16-1,11.31-5.42,15.93s-10.94,6.44-16.9,8.2c-4.45,1.31-9.29,2.34-13.93,1.73-8.13-1.08-13.69-8.54-18.88-14.17-2.05-2.24-4.08-4.77-6.56-6.58s-4.64-2.07-7.3-3c-5.2-1.74-11-2.77-14.71-7-10.67-12.18-16.69-32.78-9.57-47.87a70.46,70.46,0,0,1,10.75-15.93C511.18,244.07,514.65,240.85,516,248.8Z"/><path class="cls-11" d="M517.07,229.75a10.7,10.7,0,0,0,.92-5.27c-2.08-1-2.76-5.09-4.61-6.81a6.06,6.06,0,0,0-6.06-1.51c-4.7,1.45-5.79,6.68-3.51,10.46.26.42.86.56,1.12,1s.42,1.52.74,1.9c1.14,1.38,1.72,1,3.36,1.4s1.76,1.36,3.81.74c1.87-.56,2.65-2.38,4.23-3Z"/><path class="cls-11" d="M891.72,456.24a33.47,33.47,0,0,0,6.45-21.88c-.18-3.34.18-9.38-4.57-8.92-6.39.63-9.66,10.52-11.44,15.49-2.63,7.35-5.21,14.86-4.27,22.78,1.28,10.87,15.58-10.77,17-12.77Z"/><path class="cls-11" d="M878,420.25c1.14,6.3-1.69,15.29-8.52,17.29-2.41.71-3.35-.79-4.63-3.11s-2.1-4.87-1.19-7.34a23.49,23.49,0,0,1,3-4.72,16.61,16.61,0,0,0,1.76-2.64c.45-1,.28-1.8,1.08-2.7,1.89-2.15,9.29-3.92,8.54,1.11Z"/><path class="cls-11" d="M770,436.13a20.41,20.41,0,0,0-7.8-9.79,41.54,41.54,0,0,0-13.36-5.93c-3.92-.85-10-.88-13.55,1-4.17,2.22-7.89,5.54-11.85,8.12-3.59,2.34-7.2,3.66-10.34,6.77a28.59,28.59,0,0,0-6.38,10.13c-2.16,5.75-3.76,14.56-1.31,20.38,2.24,5.33,5.39,5.4,10.7,5.31,7.56-.13,14.68-6.22,19.39-11.66,2.39-2.75,4.17-5.54,7.1-7.85,3.38-2.67,6.93-5.14,10.5-7.57,3.3-2.25,7-3.81,10.07-6.42C764.6,437.45,769,434.1,770,436.13Z"/><path class="cls-11" d="M692.76,472.11c.56,3.31,1.42,4.75-1,6.36a4.4,4.4,0,0,1-5.1.09c-1.83-1.08-5.87-5-5.36-7.27,1.05-4.83,13.18-5,12.53.82Z"/><path class="cls-11" d="M479,145.09a7.31,7.31,0,0,0,1-4.23c-5.36-1.21-7.73,5.93-9.75,9.59-1.17,2.12-3.38,5.26-.54,7.13a21.7,21.7,0,0,0,4,1,7.43,7.43,0,0,0,3.17.31c4.55-.95,4.19-5,4.24-8.54Z"/><path class="cls-11" d="M492.73,622.39c-.53-11.5-10.78-23.93-20.67-29.16C458,585.77,439.6,590.7,427,599c-10.6,7-18,19.6-17.94,32.46,0,3.45,1.07,6.6,1.15,10,.07,2.6-.1,4.18,2.68,5.19,6.9,2.52,16.86,1.59,23.83.37,7.66-1.34,16.19-2.73,23.24-6.06,6.33-3,12.16-7,18.46-10.1,3.21-1.59,6.09-2.79,8.86-5.08C488.64,624.64,492.5,623.67,492.73,622.39Z"/><path class="cls-11" d="M419.71,582.18c-.71,2.52-.55,3.72-2.66,4.84a6.44,6.44,0,0,1-5.23,0c-2-.76-5.12-3.33-4.68-5.88.78-4.53,11.61-6.69,11.51-1.06Z"/><path class="cls-11" d="M259.9,468.94c-.4-1.38-1.06-4.75-2.2-5.74-.9-.77-2.17-.8-3.59-.66a7.25,7.25,0,0,0-5.64,3.25c-.91,1.18-2.09,2.29-2.39,3.65-1.72,7.8,12,4.42,13.82-.5Z"/></g><path class="cls-8" d="M481.23,334.73C457.05,309,397,282.22,375.37,288.55s-15,60.21-3.32,85,111.44,27.1,114.77,14.25S490.05,344.11,481.23,334.73Z"/><path class="cls-12" d="M475.76,340.46c-23.08-23.29-80.4-47.54-101-41.82s-14.29,54.53-3.18,77,106.36,24.54,109.54,12.9S484.18,349,475.76,340.46Z"/><path class="cls-8" d="M352,398.19c-15.15-21.14-32.8-23.24-46-17.82-1.46.6-6.71,5.72-7.22,7.05-4.07,10.76,25.09,38.34,43.91,41.29C363.8,432,359.6,408.81,352,398.19Z"/><path class="cls-13" d="M346.86,403.67c-15.15-21.13-32.8-23.23-46-17.81s20.66,39.54,41.81,42.85S354.48,414.29,346.86,403.67Z"/></g></g></svg>