<svg id="Layer_1" data-name="Layer 1" xmlns="http://www.w3.org/2000/svg" viewBox="0 0 804.79 990.05"><defs><style>.cls-1{fill:#ed186a;fill-rule:evenodd;}</style></defs><title>red_cricles</title><path class="cls-1" d="M0,500.3C-.76,649.5,34.46,761.36,134.18,870.75,275.77,1022.19,464.3,1027,622.5,899.13c90.11-72.83,145-169.65,171.93-284.81,37.52-168.82-30.66-360.43-144-481.39C525.18,7.81,360.38-53.16,206.72,58.68,71,161.4,12.43,286.13,1.38,460.42.53,473.87.2,486.83,0,500.3ZM47.79,710c-49-114.6-40.63-296.84-.69-413C85,189.87,147.19,117,238.43,55.37,353.54-18.17,499,23,599.19,104.83,751.65,229.39,824.77,454.88,770.13,649.72c-30.12,91.9-79.23,170-149.9,232.92-170.4,143.83-389.72,111.8-517.81-73.06C80.14,777.42,63.63,746,47.79,710ZM59.61,471.6c-1.46,98,5.63,198.84,51,286.2,66,118.47,144.91,155,272.19,166.36,109.47,9.77,214.6-52.94,281.37-140.74C770.3,630.17,777.8,478.34,701.07,308.69a483.78,483.78,0,0,0-23.61-44.18C605.57,152.64,483.66,57.05,348.58,69.89c-98.44,9.37-206.72,110.1-249,200.48C72.42,332.14,61.3,404,59.61,471.6Zm62.48,276.21c-47.7-96.58-57.74-244.35-43-351,22.09-133.37,96.19-247.2,219.48-297.16,145.54-59,296.16,58.33,370.1,182.12l4.94,8.28C759.22,440.91,761.8,610,665,755l-6.09,9.13C573.74,884.47,445.11,932.64,306,896.46c-85.6-22.25-140.15-69.18-183.89-148.65Zm1.26-137.43c27,162.55,119.16,241.75,274.29,252,103.21,6.81,180.83-38,238.35-128.89,73-115.48,72.5-262.34,20.39-386.64C595.87,215.94,480.9,98.35,331.24,132.53,219.88,158,147.43,266.18,122.87,377.39,107,455.17,112.12,532.43,123.35,610.38Zm6.13-167C136.33,328,180,219.78,284.08,166.19c113.6-58.5,244.33,7.12,313.78,108.23,101.47,147.73,110.87,321.19,10,472.33-81.45,106.31-178.17,119.47-298,81.55C189.54,790.22,149.67,699.64,134.21,576,128.63,531.39,128,488.29,129.48,443.39Zm38.06,41.22c3.94,118.58,16.41,254.58,140,297.62,86.9,30.24,182.61,39.19,250.28-38.74,72.58-83.58,90-211.12,69.33-318.77-28.08-114.13-103.9-206.14-216.8-231.58C349.1,179.34,284.94,206.81,240.15,250,180.24,311.13,166.18,400.47,167.54,484.61ZM617.7,546C598,717.5,507.86,838.39,332.09,773.12,189.74,720.26,176.4,583.26,181.41,444.47c6.92-101.4,43.66-196.2,142.3-232.34,94-34.43,209,39.78,254.69,124.41C614,402.47,623.1,471.39,617.7,546ZM233.25,372.46c-29.61,99.07-29.43,291.25,70.91,347.63,50.75,28.52,133.64,37.95,185.59,6,32.75-20.1,52.54-49.67,66-86.14,45.8-149,10.13-351.49-154.31-393.53-91.12-23.29-139.6,45.15-168.21,126ZM551.67,586c-18.67,115.88-86,167.77-197.79,137.67C222.63,688.4,215.93,510.43,241,396.85,272.25,281.5,333.57,220.43,447.51,280c48.68,25.46,87.41,90.57,100.74,145.06,13.08,53.52,10.54,106.78,3.42,160.94Zm-268.21-7.23c22.64,81.67,70.91,144,159.47,108.5,88.09-35.31,80.53-227,51.32-303.47l-2.9-7.62C470.61,325.66,428.5,296.29,376.71,293c-23.89-1.5-57.22,27.31-70.65,47.68C264.26,404.09,267.48,506.69,283.46,578.81Zm208,11.71c-17.16,64.19-52.27,110-121.94,86.31-125.68-42.66-107.94-401.57,25.12-366.18l8.54,2.7c67,25.72,94.76,106.88,97,176,1.11,34.87-2.66,67-8.68,101.18Zm-40.79-99c-2.65-41.57-16.85-181.56-85.59-132C321.13,391.17,317,474.72,322.49,525c5.61,37,31.41,134.58,81.81,121.59,45.57-11.74,46.74-116.38,46.36-155Zm-14.53,26.79c-.84,28.11-3.63,127.3-49.46,112-37.51-12.5-52.83-117-53.08-152.9,1.68-28,15.72-115.49,56.43-110.67,37.38,4.43,43.53,99,45.35,128.35.38,7.83.63,15.37.76,23.2Z"/></svg>