<svg xmlns="http://www.w3.org/2000/svg" xmlns:xlink="http://www.w3.org/1999/xlink" viewBox="0 0 569.11 457.57"><defs><style>.cls-1{isolation:isolate;}.cls-2,.cls-5,.cls-6,.cls-9{mix-blend-mode:screen;}.cls-3{fill:#2d2242;}.cls-4{fill:url(#Áåçûìÿííûé_ãðàäèåíò_6);}.cls-5{fill:#334211;}.cls-6{fill:url(#Áåçûìÿííûé_ãðàäèåíò_5);}.cls-7{fill:#fff5d4;}.cls-8{fill:url(#Áåçûìÿííûé_ãðàäèåíò_14);}.cls-9{fill:#482702;}.cls-10{fill:#f2cff1;mix-blend-mode:multiply;}.cls-11{fill:#aa044a;}.cls-12{fill:url(#Áåçûìÿííûé_ãðàäèåíò_14-2);}</style><radialGradient id="Áåçûìÿííûé_ãðàäèåíò_6" cx="896.58" cy="359.33" r="357.8" gradientTransform="matrix(0.95, -0.32, 0.32, 0.95, -532.67, 199.75)" gradientUnits="userSpaceOnUse"><stop offset="0" stop-color="#00f5c3"/><stop offset="0.68" stop-color="#118786"/><stop offset="0.75" stop-color="#0f9089"/><stop offset="0.86" stop-color="#09a793"/><stop offset="1" stop-color="#00cca2"/></radialGradient><linearGradient id="Áåçûìÿííûé_ãðàäèåíò_5" x1="958.52" y1="492.4" x2="822.98" y2="258.56" gradientTransform="matrix(0.9, 0.44, -0.44, 0.9, -227.22, -449.55)" gradientUnits="userSpaceOnUse"><stop offset="0" stop-color="#8b742c"/><stop offset="1"/></linearGradient><radialGradient id="Áåçûìÿííûé_ãðàäèåíò_14" cx="108.15" cy="259.39" r="174.28" gradientTransform="matrix(0.84, 0.54, -0.54, 0.84, 220.59, -33.39)" gradientUnits="userSpaceOnUse"><stop offset="0" stop-color="#ffa23f"/><stop offset="0.11" stop-color="#f99240"/><stop offset="0.32" stop-color="#e86841"/><stop offset="0.62" stop-color="#ce2444"/><stop offset="0.73" stop-color="#c30945"/><stop offset="0.77" stop-color="#c60f43"/><stop offset="0.84" stop-color="#d01f3c"/><stop offset="0.91" stop-color="#e13b30"/><stop offset="0.98" stop-color="#f76020"/><stop offset="1" stop-color="#fd6a1c"/></radialGradient><radialGradient id="Áåçûìÿííûé_ãðàäèåíò_14-2" cx="475.21" cy="321.47" r="112.94" gradientTransform="matrix(-0.97, -0.23, -0.23, 0.97, 626.72, 139.26)" xlink:href="#Áåçûìÿííûé_ãðàäèåíò_14"/></defs><title>right_planets1</title><g class="cls-1"><g id="Layer_1" data-name="Layer 1"><g class="cls-2"><path class="cls-3" d="M453.52,74.59c-3.65-3.82,1.93-9.19,6-6.41C463.84,71.84,457.86,79.67,453.52,74.59Z" transform="translate(0 0)"/></g><path class="cls-4" d="M566.12,217.86v.24a228,228,0,0,1-1.64,41.2q-1.23,9.4-3.22,18.54c-1.21,5.65-2.64,11.2-4.27,16.69q-1.87,6.3-4.1,12.44a221.4,221.4,0,0,1-9.64,22.68c-2.33,4.78-4.84,9.45-7.49,14l-.63,1.09a227.85,227.85,0,0,1-185.26,112.5C226.76,463.53,121.49,371,111,249.11c-.23-2.68-.42-5.38-.55-8.08q-.26-5-.3-9.87c0-3.67,0-7.34.18-11q.39-9.93,1.62-19.64c.74-5.86,1.72-11.66,2.9-17.38.33-1.63.69-3.25,1.06-4.86a227.94,227.94,0,0,1,7.25-25q2.61-7.32,5.68-14.41a229.3,229.3,0,0,1,65-86A228.1,228.1,0,0,1,243,22.15,227.36,227.36,0,0,1,326.72,1.62c1.18-.06,2.37-.11,3.55-.15,3.79-.14,7.58-.17,11.37-.12l2.14,0c1.73,0,3.47.09,5.21.17l2.44.14c.72,0,1.45.08,2.17.13l1.84.12q1.08.11,2.16.18c.69.05,1.37.11,2.06.18l2,.2c.68.06,1.37.13,2.05.21s1.37.15,2.05.24l3.15.4c.73.09,1.46.2,2.19.31l.53.07,1.95.3c1.66.25,3.33.53,5,.83,1,.18,2,.35,3,.55s1.89.36,2.83.57q6,1.21,11.86,2.77c1.95.5,3.87,1,5.79,1.61l3.28,1,2.48.79,2.86.94c.95.31,1.9.64,2.85,1l2.83,1c1.9.68,3.77,1.39,5.63,2.14l2.79,1.12,2.77,1.16c.92.39,1.85.79,2.76,1.2q2.76,1.21,5.48,2.5h0c1.81.85,3.6,1.72,5.37,2.63.73.36,1.44.73,2.16,1.11s1.63.85,2.44,1.29q.95.49,1.89,1c1,.54,2,1.08,2.94,1.64.8.45,1.61.91,2.4,1.38s1.8,1,2.69,1.58l3.19,2,2.39,1.51c.77.5,1.56,1,2.33,1.51s1.53,1,2.29,1.53c.4.26.78.52,1.17.79l1.22.84A229.37,229.37,0,0,1,531.47,108l0,0,.86,1.37q4,6.49,7.61,13.27,3.88,7.31,7.24,14.93,1.92,4.38,3.67,8.87a227.17,227.17,0,0,1,12.5,45.61A231.09,231.09,0,0,1,566.12,217.86Z" transform="translate(0 0)"/><path class="cls-5" d="M447.41,429.83a227.17,227.17,0,0,1-97.53,27.44C226.76,463.53,121.49,371,111,249.11c1.75,2.12,3.62,4.14,5.52,6,8.32,8.37,17.85,16.71,20.57,28.2s-2.55,20.65,6.67,30.46c4.78,5.1,10.93,8.66,16.36,13.06,10.78,8.76,18.49,20.61,27.52,31.15,9.38,10.92,19.2,15.71,31.45,22.34,3.91,2.12,10.43,7.94,15.21,4.09,3.66-2.95,1.18-7.37-1.71-10.1-4.62-4.37-9.69-7.61-14.33-11.81-2.71-2.46-4.18-7.11-1.56-9.65,2-1.9,4.47-1.64,6.94-2,3.29-.46,6.35-1.94,9.67-2.3,9.83-1.06,21.91,6.18,30.06,11,15.75,9.32,29.16,22.25,40.84,36.23,6.88,8.25,13.35,17,21.72,23.7s19.13,11.34,29.74,9.66c8.44-1.34,15.8-6.45,24.05-8.71,15.05-4.14,30.8,1.53,45.83,5.72A89,89,0,0,0,447.41,429.83Zm-196-7.42c10.59,7,23.68,9.94,36.17,7.11,1.81-.4,3.73-1,4.79-2.54,2-2.91-.34-6.83-2.84-9.35a61.58,61.58,0,0,0-38-17.88,16.55,16.55,0,0,0-7.73.73C231.65,405.49,246,418.83,251.45,422.41Zm-45.89-74.67c4.57.5,12.9-4.73,7-8.94a34.42,34.42,0,0,0-19.72-6.31c-1.58,0-3.54.39-4,1.91a3.56,3.56,0,0,0,.58,2.62A21.36,21.36,0,0,0,205.56,347.74ZM531.49,108.08l0,0A229.37,229.37,0,0,0,468.29,42l-1.22-.84c-.39-.27-.77-.53-1.17-.79-.76-.51-1.53-1-2.29-1.53s-1.56-1-2.33-1.51l-2.39-1.51-3.19-2c-.89-.54-1.79-1.07-2.69-1.58s-1.6-.93-2.4-1.38c-1-.56-2-1.1-2.94-1.64q-.94-.53-1.89-1c-.81-.44-1.63-.87-2.44-1.29s-1.43-.75-2.16-1.11q-2.67-1.33-5.37-2.63h0q-2.71-1.29-5.48-2.5c-.91-.41-1.84-.81-2.76-1.2l-2.77-1.16L422,17.19c-1.87-.74-3.74-1.45-5.63-2.14l-2.83-1c-.95-.33-1.9-.66-2.85-1l-2.86-.94-2.48-.79-3.28-1c-1.91-.56-3.85-1.1-5.79-1.61Q390.37,7.2,384.4,6c-.94-.21-1.88-.39-2.83-.57s-2-.37-3-.55c-1.65-.3-3.32-.58-5-.83l-1.95-.3-.53-.07c-.73-.11-1.46-.22-2.19-.31L365.81,3c-.68-.09-1.37-.17-2.05-.24s-1.37-.15-2.05-.21l-2-.2c-.69-.07-1.37-.13-2.06-.18S356.16,2,355.44,2l-1.84-.12c-.72-.05-1.45-.1-2.17-.13L349,1.56c-1.74-.08-3.48-.13-5.21-.17l-2.14,0c-3.79-.05-7.58,0-11.37.12-1.18,0-2.37.09-3.55.15A227.36,227.36,0,0,0,243,22.15c4.13.54,8.25,1.22,12.4,2,24.24,4.69,48,11.31,72.92,9.66C344.36,32.41,359.92,27,376,26a120.66,120.66,0,0,1,66.69,15.84c5.29,3.08,11,8.27,9.4,14.16-1.11,4-5.29,6.49-6.39,10.46-1.19,4.32,1.85,8.87,5.75,11.06S460,80.23,464.4,81a93.07,93.07,0,0,1,36.94,15c4.94,3.39,9.51,9.38,14.92,11.79,4.42,2,11.12,1.5,15.82,1.56C531.88,108.91,531.69,108.49,531.49,108.08ZM385.28,47.24c-2.46,1.19-5.07,3.21-4.95,5.95s2.63,4.37,4.94,5.58a71.38,71.38,0,0,0,40.67,7.62,9.57,9.57,0,0,0,4.21-1.19c5.35-3.5-9.89-14.75-13.92-17.09C406.94,42.69,394.87,42.86,385.28,47.24ZM285.46,347.56c5.37,3.24,12,3.47,18.25,3.33,3.71-.08,7.94-.52,10.15-3.5,1.8-2.41,1.64-5.78.72-8.65a22.14,22.14,0,0,0-10.75-12.43,30.48,30.48,0,0,0-16.33-3.22C273.62,324,275.84,341.74,285.46,347.56Zm75.42,67.7a18,18,0,0,0,8.82-2.68c2.56-1.77,4.41-4.82,4-7.91-.52-4.34-4.83-7-8.68-9.1-12.48-6.68-25.11-13.42-38.81-17-3-.78-6.1-1.41-9.1-.73s-5.83,3-6.19,6c-.47,4,3.19,7.21,6.68,9.21,7.36,4.2,11.72,11.2,18.77,15.81A39.38,39.38,0,0,0,360.88,415.26ZM180.47,305.92c-.75-6.9-6.05-12.38-11.46-16.75s-11.41-8.43-14.67-14.57c-4.72-8.88-2.72-20.37-8.14-28.85-6.19-9.67-18.33-9.56-26.83-16.55a75.34,75.34,0,0,1-9-9c-.15,3.65-.21,7.32-.18,11,7,7.27,14.14,14.07,21.62,20.8a42.13,42.13,0,0,1,13,23.77c1.85,10.45-1.8,21.89,6.91,30.15,5.65,5.34,13.76,7.4,21.53,7.37,2,0,4.21-.21,5.65-1.61S180.69,308,180.47,305.92ZM534.87,344c-15,5.07-29.86,10.24-45.46,11-8.28.4-17.32-.5-24.16,4.19-7.66,5.22-9.86,15.61-16.36,22.21-12.6,12.81-33.24,9.28-49.15,12.5-2.74.55-5.87,1.56-6.86,4.19a5.81,5.81,0,0,0,1.62,5.88,15.32,15.32,0,0,0,5.54,3.22c22.08,8.69,51.68,16.66,67.65-7.1,5.32-7.93,8.06-18.36,16.41-23,8.76-4.89,19.71-1.18,29.65-2.53l.66-.09a227.85,227.85,0,0,0,20.73-29.65l.63-1.09Zm-5-31.49A15.23,15.23,0,0,0,525,315a5.67,5.67,0,0,0-2.17,4.9c.24,1.82,1.64,3.26,3.08,4.41a25.53,25.53,0,0,0,17.39,5.34A221.4,221.4,0,0,0,552.9,307C544.94,306.85,535.12,310.66,529.91,312.49ZM540,122.72c-8.19-.23-16.29-.82-24-3.62-7.19-2.62-13.56-7-20.06-11.08C474.27,94.54,450,84.77,424.66,81.66c-9.05-1.12-18.57-1.49-26.47-6-3.68-2.12-6.81-5.06-10.14-7.7-22-17.49-51.42-21.75-79.31-25.38l-44.06-5.75c-14.41-1.89-29.05-3.75-43.49-3.14a224.93,224.93,0,0,0-27.31,19.22c14.68-1.17,29.63-.41,44.37.38,25,1.34,50.48,7.12,75.21,11.42,5.1.89,10.39,1.87,14.5,5,6.41,4.85,8.39,13.54,13.37,19.85,5.24,6.66,13.58,10.27,21.94,11.59s16.9.62,25.35.09q20.16-1.26,40.37-1.09c7.51.06,15.18.3,22.26,2.85,9.18,3.29,16.53,10.14,24.55,15.68,5.46,3.78,11.72,7.14,18.41,8s12.32-1.22,19.13.56c11.59,3,21.71,10.2,33.86,10.45Q543.84,130,540,122.72ZM226.31,144.83c2.95,1.94,5.26,4.71,8.09,6.81A22.31,22.31,0,0,0,247.49,156a12,12,0,0,0,5-.88c4.5-2,6.3-7.61,5.91-12.52a7.28,7.28,0,0,0-1-3.49c-2.43-3.62-8-5.87-11.22-9-3.43-3.39-6-5.67-10.72-7.55-10.45-4.2-22.09-5-33.23-4.34-4,.22-8.89,1.21-10.24,5a7.82,7.82,0,0,0,.48,5.59C197.8,141.47,216.51,138.35,226.31,144.83Zm175-25.44c-1.37.62-2.85,1.49-3.21,3-.56,2.35,2,4.14,4.2,5.18L445.66,148a66.37,66.37,0,0,0,13,5.08c5.05,1.18,11,.91,14.57-2.89,3.19-3.43,3.4-8.89,1.56-13.19s-5.38-7.66-9.08-10.52C449.31,113.76,420.45,110.73,401.35,119.39Zm-60.81-.06c2.46-.81,3.9-3.44,4.27-6,.78-5.37-2.14-10.74-6.24-14.3s-9.25-5.62-14.3-7.6a2.41,2.41,0,0,0-1.5-.24,2.06,2.06,0,0,0-1.07,1c-1.6,2.54-1.2,5.08,0,7.69a42.11,42.11,0,0,1,2.84,7,17.33,17.33,0,0,0,5.63,8.81C332.73,117.76,337.05,120.48,340.54,119.33Zm210.33,27.19c-8.91-1.19-17.86-1.17-26.81-2.8-10.34-1.89-21.74-4.1-31.47,1.27-6.8,3.76-11.28,10.55-15.49,17.08a3.61,3.61,0,0,0-.78,2.1,3.34,3.34,0,0,0,1.53,2.17c12,9.37,29.12,6.79,43.88,10.5,14.36,3.62,27.2,13.49,41.64,15.29A227.17,227.17,0,0,0,550.87,146.52Zm15.26,71.58a228,228,0,0,1-1.64,41.2,159.8,159.8,0,0,0-77,20.36c-7.59,4.28-14.84,9.18-22.73,12.89a88.36,88.36,0,0,1-23.73,7.2c-15.18,2.4-33.35-.42-41.16-13.67-1.95-3.31-3.1-7-5-10.35-5-8.59-14.59-13.32-23.88-16.87a199.64,199.64,0,0,0-113.77-8.26c-9.45,2.11-19.26,4.92-28.66,2.62-9.93-2.41-17.58-10.33-26.87-14.28-11.52-4.89-13-14.6-18.92-24.32-7.18-11.8-17.54-18.34-30.47-22-12.42-3.53-25.16-7.65-36.35-14.31a227.94,227.94,0,0,1,7.25-25c3.46,2,6.29,5,9.3,7.6,10.88,9.6,24.33,13.84,36.67,20.83A163.27,163.27,0,0,0,190,191.86c13.93,5.47,29,8.35,43.91,5.77,10.35-1.79,20.22-6.13,30.69-7.08,21-1.9,40.7,9.92,61.59,12.81,21.81,3,44.62-3.8,65.79,2.3,14.92,4.29,27.55,14.63,42.51,18.84,25.33,7.14,52.07-4.38,78.37-3.52,10.94.35,21.87,2.85,32.74,1.49C552.53,221.6,559.24,219.16,566.13,218.1ZM422.61,269.56c2.38,2.78,6.27,3.66,9.9,4.12a79.27,79.27,0,0,0,59.55-17.15c2.59-2.12,5.27-5,4.72-8.32-.72-4.4-6.26-5.8-10.69-6.23l-56.93-5.57c-6.81-.67-20.86-.87-17,9.38,1.51,4,5,7,6.41,11.14S419.59,266,422.61,269.56ZM249.48,233.09c5-.56,10.19-1.42,14.55-4s7.78-7.31,7.53-12.37a7.07,7.07,0,0,0-.7-2.9,7.23,7.23,0,0,0-3.34-3.05c-3.58-1.75-7.84-1.42-11.71-.44s-7.58,2.58-11.5,3.29c-10,1.81-20.3-2.32-30.46-1.38-11.23,1,1.19,13.57,5.22,15.91C228.48,233.58,238.85,234.26,249.48,233.09Zm289-23.61c-1.79,3.48-6.75,3.3-10.61,2.6-13.14-2.41-26.39-5-39.8-5.18-12.63-.13-24.11,5.62-36.34,5-12.46-.65-25.23-5.55-35.8-12-8.88-5.44-18.56-11-27-17.21a35.86,35.86,0,0,0-5.67-3.78c-5-2.37-10.79-1.78-16.26-1.14-2,.24-4.21.52-5.74,1.89-1.3,1.16-1.91,2.89-2.88,4.34-2.39,3.54-6.92,5.15-11.18,5.09s-8.38-1.49-12.4-2.92c-11.82-4.21-23.59-8.75-35.51-12.64-8.47-2.77-19.23-3-26.68-8.29-4.51-3.23-6.43-12.51.15-15.21a10.75,10.75,0,0,1,4.77-.39,53.64,53.64,0,0,0,24.32-4.48,5.76,5.76,0,0,0,2.17-1.4c1.76-2.05.21-5.25-1.71-7.16-10.26-10.28-27.25-8.62-40.48-14.61-5.08-2.3-9.54-5.72-14.41-8.42-12.26-6.82-26.63-8.87-40.65-9-8.27-.07-16.91.6-24,4.84s-12.09,13-9.6,20.88c3.22,10.21,14.29,12.24,23.07,15.1,11.55,3.75,22.88,11.87,33.19,18.33a7.66,7.66,0,0,1,3,2.75c1.63,3.2-1.7,6.71-4.93,8.27-15.95,7.63-39.82,1.19-55.63-4.59a96.19,96.19,0,0,1-42.29-30.25c-.25-.31-.5-.63-.74-1a228.46,228.46,0,0,1,45.39-68A274.24,274.24,0,0,1,243,69a146.73,146.73,0,0,1,43.16,10.66c10.1,4.33,20.1,10.5,25.18,20.24,2.89,5.51,4.05,11.92,7.65,17,6.85,9.66,20.06,11.7,31.79,13.25,38.79,5.14,80.21,15.66,104.74,46.13,8.62,10.69,16.08,9.13,29,9.78s25.76,2.21,37.92,6.58c5.39,1.93,10.79,4.56,14.34,9C538.53,203.85,539.79,207,538.49,209.48ZM268.67,107.34c6.27,2,12.89,2.67,19.45,3.29,2.94.28,6.67.12,7.82-2.6.86-2.06-.38-4.38-1.77-6.12C286,91.68,272.25,88,259.29,86.34c-3.68-.47-7.65-.77-10.85,1.1a2.12,2.12,0,0,0-1,1.06c-.72,2.17,6.33,9.47,8,11.12A33.08,33.08,0,0,0,268.67,107.34Zm292.6,170.5c-1.21,5.65-2.64,11.2-4.27,16.69-1.39,0-2.78,0-4.17,0-11.54.08-24.53,1.77-31.52,11-6.52,8.59-5.77,21.45-13.24,29.23-6.18,6.45-15.95,7.38-24.83,8.24-13.42,1.29-28.47,4.31-35.71,15.7-3.46,5.43-4.73,12.31-9.36,16.79-10.2,9.87-28,8.41-40.88,7.28-18.35-1.61-34.58-7.73-51.68-14-8.35-3.07-20.36-8-16-19.26,2.63-6.83,12.25-9.86,13.06-17.14.4-3.48-1.54-6.89-4.2-9.18-10-8.6-26.91-10.92-38.81-16.18-6.84-3-16.54-4.39-22.26,1.89-2.9,3.18-3.8,7.78-6.51,11.14-7.38,9.16-23.24,5.1-33,3.16-21.68-4.31-46.29-13.79-57.07-34.54-2.65-5.1-4.46-10.86-8.7-14.72s-10.3-5.38-13.22-10.18c-3.36-5.56-.86-12.7-1.44-19.19-.66-7.44-5.53-14-11.54-18.39-5.76-4.24-13.14-5.8-18.47-10.5-4.62-4.07-9-8.94-13.44-13.26-.58-.56-1.26-1.17-2-1.82.74-5.86,1.72-11.66,2.9-17.38.41-2,11.45,8,12.45,8.92,3.78,3.42,8.73,5.57,13.29,7.7,8.89,4.16,19.28,7.8,24.22,17,3.17,5.91,3.32,13,5.79,19.21,4.2,10.58,17.32,8.83,23,17.7,2.21,3.48,2.21,7.86,3.06,11.89,3.15,14.88,23.88,19.69,36.46,21.43,1.76.24,4.05.1,4.62-1.58.49-1.43-.69-2.8-1.37-4.15-1.7-3.43.06-7.78,3-10.2s6.86-3.32,10.63-4c37.92-7.23,77.46-2.14,114.2,9.73,5.11,1.65,10.33,3.52,14.3,7.13s6.45,9.41,4.65,14.48c-1.69,4.78-6.6,7.76-8.78,12.33-3.08,6.45.25,14.52,5.86,18.93s12.92,5.94,20,6.92c6.72.93,13.78,3.65,20.32,4.33,6.75.7,14.88-4.21,20.51-7.56,9.87-5.87,19.45-13.08,30.8-14.79,11.72-1.76,25.13,2.29,34.63-4.8,7.25-5.42,9.21-15.37,14.62-22.61,6.21-8.33,16.73-12.56,27.07-13.47A75.1,75.1,0,0,1,561.27,277.84ZM341.69,281a69.06,69.06,0,0,0-16.38,1.63,16.68,16.68,0,0,0-6.22,2.1,6.06,6.06,0,0,0-3,5.53c.38,2.88,3.32,4.63,6,5.79a85.43,85.43,0,0,0,32.72,7.14c2.35,0,4.83-.06,6.79-1.34s4.92-5.71,4.74-8.29c-.2-3.06-3.74-5-6.13-6.63A38,38,0,0,0,341.69,281Z" transform="translate(0 0)"/><circle class="cls-6" cx="403.84" cy="243.81" r="149.03" transform="translate(-54.12 356.97) rotate(-45)"/><path class="cls-7" d="M243,22.15a233.26,233.26,0,0,1,47.28-15,225.11,225.11,0,0,1,49.24-4.45,217.26,217.26,0,0,1,48.94,6,220.39,220.39,0,0,1,46.44,16.37l-.52-.34a2.3,2.3,0,0,0,1.57.56l-1-.21A233.12,233.12,0,0,1,488,60.66a225.08,225.08,0,0,1,22.33,23,227.48,227.48,0,0,1,18.87,25.84l-.4-1.26c.31,1.53.53,1.32.44,1.32l.06.1.12.2.25.4.49.8.91,1.59,1.82,3.18,3.63,6.38c2.38,4.26,4.31,8.76,6.49,13.14a204.87,204.87,0,0,1,10.5,27.33,231,231,0,0,1,10,57.62,225.48,225.48,0,0,1-.61,29.29A142,142,0,0,1,561,264.08c-.87,4.81-1.55,9.66-2.56,14.44a214.07,214.07,0,0,1-20,55,225.81,225.81,0,0,1-77.69,86.58,230.77,230.77,0,0,1-52.94,25.75,235.49,235.49,0,0,1-58,11.43,225.21,225.21,0,0,0,112.56-34.59c33.62-21.3,61.9-51.42,80.3-86.94a218.61,218.61,0,0,0,20.72-56.11c1.07-4.88,1.79-9.84,2.7-14.76a145.67,145.67,0,0,0,2-14.86,232.69,232.69,0,0,0,.78-30,226.11,226.11,0,0,0-10.07-59A209.77,209.77,0,0,0,548,133c-2.26-4.47-4.26-9.07-6.72-13.43l-3.75-6.49-1.87-3.25-.94-1.63-.49-.78-.24-.38-.12-.2-.07-.1c-.13-.06.05-.33.32,1.13l-.4-1.26A232.87,232.87,0,0,0,514.26,80.3,229.79,229.79,0,0,0,491.32,57a223.61,223.61,0,0,0-54.59-35.73l-1-.21a2.14,2.14,0,0,1,1.51.55l-.52-.35A224.08,224.08,0,0,0,389.21,5.29,217.24,217.24,0,0,0,339.49,0a227.45,227.45,0,0,0-49.56,5.73A220.28,220.28,0,0,0,243,22.15Z" transform="translate(0 0)"/><path class="cls-7" d="M19.14,238.94C23.1,223,33,212.19,47,203.89c12.9-7.64,24.84-12.52,39.56-13.69,14.28-1.15,28-6.26,42.52-5.42,20.5,1.18,38.89,14,51.52,30.23,10.92,14,20.89,29.42,26.41,46.39,6.57,20.16,2.08,38.93-8.61,54.17-15.49,22.09-44,36.76-70.81,37.46a94.17,94.17,0,0,1-35.18-5.83C59.58,335,20,305.35,15.54,268.24,14.37,258.41,16.76,248.55,19.14,238.94Z" transform="translate(0 0)"/><path class="cls-8" d="M191.76,316.62c-15.49,22.09-44,36.75-70.82,37.46a94.2,94.2,0,0,1-35.18-5.83c-32.85-12.23-72.48-41.85-76.9-79-1.17-9.83,1.23-19.69,3.61-29.3,4-16,13.87-26.75,27.88-35.05,12.9-7.64,24.85-12.52,39.57-13.69,14.28-1.15,28-6.26,42.52-5.42,20.49,1.18,38.89,14,51.52,30.23,10.92,14,20.89,29.42,26.41,46.39C206.94,282.61,202.45,301.38,191.76,316.62Z" transform="translate(0 0)"/><path class="cls-9" d="M129.2,291a130.9,130.9,0,0,0,14.57,13c5.08,3.84,10.7,6.37,16,9.75,6.25,4,18.45,5.6,25,1.25,3.9-2.59,5.35-6.77,7.37-10.71a83.61,83.61,0,0,0,6.22-14.46c3.52-12.06-.2-25.93-4.77-37.3-3.45-8.62-9-15.25-15-22.21-11.15-12.9-22.55-23.56-37-32.67a48,48,0,0,0-10.17-5.18c-7.52-2.53-15.6-1.68-23.24-.19-3.86.76-6,1.35-8.85,4-3,2.87-5.7,6-7,10.09-.75,2.4-.11,5,.79,7.37,3.07,8,9.07,14.75,11.59,23,1.81,5.86,1.73,12.13,2.86,18.16C110.23,268.89,119.25,280.84,129.2,291Z" transform="translate(0 0)"/><path class="cls-10" d="M97.23,345.67a103.08,103.08,0,0,0,29.45,2.56,72.33,72.33,0,0,0,14.95-2.65,61.06,61.06,0,0,0,7.31-2.6c2.23-1,4.45-2.77,6.86-3.17a65,65,0,0,1-15.77.29c-4.38-.35-8.49.23-12.79-.75a122.39,122.39,0,0,1-30.13-11.24c-10.32-5.48-20.06-12.64-26.48-22.4A47.72,47.72,0,0,1,62.85,282c-.49-9.78,3.1-17.61,6.26-26.62,2.46-7,1.67-12.41-1.4-19q-2.28-4.91-4.38-9.9c-1.19-2.83-3.54-6.57-3.48-9.68.11-5.5,6.09-11,9.68-14.51a41.83,41.83,0,0,1,9-6.13c-1.54.86-7.31-.58-9.45-.21-4.58.78-8.92,3.48-13,5.49C50.68,204,45.18,206.57,40,209.53A38.27,38.27,0,0,0,30,217a33.37,33.37,0,0,0-5.67,9.5,59,59,0,0,0-3.19,34.21c1.05,5.24,2.63,11.8,5.77,16.24,1.69,2.4,3.67,4.06,4.94,6.85a79.28,79.28,0,0,1,3,8.92A73.82,73.82,0,0,0,50.5,319.91C62.59,333.26,79.35,341.69,97.23,345.67Z" transform="translate(0 0)"/><path class="cls-11" d="M84.15,257.49c-8.28,1.22-14.83,4.6-15.23,12.14a63.19,63.19,0,0,0,5.42,28.53c4.79,10.14,14,17.51,23.66,23.2,5.14,3,10.62,5.73,16.53,6.5C132,330.13,144,312.21,145.11,296.8c.79-11-3-23.95-12.08-30.84-6.85-5.21-14.71-5.08-22.76-6.57C101.65,257.8,92.93,256.2,84.15,257.49Z" transform="translate(0 0)"/><path class="cls-11" d="M80.66,225.17c-3.68-2.42-7.41-6-7.08-10.41.25-3.24,2.72-5.92,5.49-7.62,5.65-3.47,10.53-2.42,16.78-2.48l24.09-.26a47.71,47.71,0,0,1,9.18.5c3.14.59,6.39,2,7.93,4.81,1.7,3.08.83,7.07-1.22,9.94-7.2,10.08-19.53,14.13-31.56,13.58A47.33,47.33,0,0,1,80.66,225.17Z" transform="translate(0 0)"/><path class="cls-11" d="M27.71,242.63a23.09,23.09,0,0,0,3.12,15.67c1.93,3.13,5.75,6.56,9.71,4.66,1.94-.93,3-3,3.92-4.94,3.22-7.12,9.47-21.28,6.48-29.25-1.31-3.49-5.07-5.64-8.79-5.86C35.16,222.5,28.63,236.86,27.71,242.63Z" transform="translate(0 0)"/><path class="cls-11" d="M181.73,252.08a7,7,0,0,0-.19,3.82l5.1,29.57c.37,2.17.75,4.35,1.12,6.53a3.92,3.92,0,0,0,.94,2.28,2.61,2.61,0,0,0,3.52-.46,6.94,6.94,0,0,0,1.42-3.62c2.19-12.52.23-30.95-10.63-39.37A2.22,2.22,0,0,0,181.73,252.08Z" transform="translate(0 0)"/><path class="cls-11" d="M48,316.41c-.32-.68-.55-1.6,0-2.11a1.76,1.76,0,0,1,1.51-.22,18.67,18.67,0,0,1,5.88,2.66c3.85,2.32,7.83,4.77,10.23,8.57a2,2,0,0,1,.4,1.55c-.29.89-1.52.94-2.43.74C57.62,326.31,50.68,322.1,48,316.41Z" transform="translate(0 0)"/><path class="cls-7" d="M10.38,330.51c6.42-13.94,17.3-18.34,30.63-19.78,24.8-2.69,50.06-4.81,65.41,19.08,13.89,21.62,27.72,50.8,7.86,75.3C99.74,423,73.62,429,53,427.93c-28.05-1.4-46.62-24-49.53-51.58C1.91,362,4.33,343.67,10.38,330.51Z" transform="translate(0 0)"/><path class="cls-12" d="M.44,379C3.35,406.59,21.92,429.22,50,430.62c20.67,1,46.79-4.89,61.33-22.82,19.86-24.5,6-53.69-7.86-75.31C88.09,308.61,62.83,310.73,38,313.41c-13.34,1.45-24.21,5.85-30.63,19.79C1.35,346.36-1.07,364.72.44,379Z" transform="translate(0 0)"/><path class="cls-10" d="M43.59,424.15c-12.88-2.45-25.23-9.5-32.22-20.59-13.66-21.7-10-53.14,4.06-73.61-2.49,6.07-4.93,13.24-1.59,18.89,3.78,6.39,10.51,4.75,15.72,8.5a6.56,6.56,0,0,1,3,5.62c-.25,2.71-2.63,4.64-4.69,6.43a48.5,48.5,0,0,0-6.36,6.69C19,379.24,16.85,383,17,387c.12,3.13,1.63,6,3.35,8.66,5.82,8.87,15.78,14,25.74,16.88,11.71,3.44,23.16,6.18,35,2.85a59.89,59.89,0,0,1,12.68-1.68c-1.17.07-4.16,3.17-5.33,3.86a43.73,43.73,0,0,1-6.64,3,66.07,66.07,0,0,1-13.68,3.78A74.22,74.22,0,0,1,43.59,424.15Z" transform="translate(0 0)"/><path class="cls-9" d="M45.32,338.55c-3.43-9.29-3.17-18.54,8.07-21.85a21.8,21.8,0,0,1,8.33-.36c11.67,1.17,24.64,4,33,12.83,3.72,3.95,6.22,8.87,8.6,13.74,6.33,13,19.5,38.11,9.23,51.68-3.84,5.07-10.57,8.14-16.77,6.7-3.07-.71-5.8-2.41-8.47-4.08l-12.13-7.6c-3.7-2.31-7.43-4.65-10.47-7.77-5.38-5.51-8.19-13-10.85-20.18Q49.58,350.11,45.32,338.55Z" transform="translate(0 0)"/><path class="cls-11" d="M75.57,411c-10.94,3.86-23.2.95-33.67-4-7.75-3.69-15.37-9-18.63-16.92a13.62,13.62,0,0,1-1.15-5.61c.19-4.92,4.06-9,8.44-11.27,8.17-4.19,17.92-3.38,27-2.07,9.3,1.35,18.58,3.13,27.38,6.42,7.63,2.84,14.24,9.2,10.1,18C91.83,402.29,82.43,408.59,75.57,411Z" transform="translate(0 0)"/><path class="cls-11" d="M101.74,348.31a8.57,8.57,0,0,1-.1,4.33,7.08,7.08,0,0,1-4.73,4.16c-5.28,1.64-10.79-1.3-15.54-4.13-5.51-3.28-11.92-6.36-15.83-11.63-5.36-7.24-1.59-14.3,7.6-13.07C85,329.56,99.32,335.11,101.74,348.31Z" transform="translate(0 0)"/><path class="cls-11" d="M29.07,348.86a13.84,13.84,0,0,1-2.95,1.55C16,354,12.61,339.52,18.52,333.64a19.59,19.59,0,0,1,7.69-5.18c3.93-1.23,9.32.52,11.12,4.43C39.73,338.1,34.15,345.42,29.07,348.86Z" transform="translate(0 0)"/></g></g></svg>