<svg xmlns="http://www.w3.org/2000/svg" xmlns:xlink="http://www.w3.org/1999/xlink" viewBox="0 0 1257.83 1487.99"><defs><style>.cls-1{isolation:isolate;}.cls-10,.cls-11,.cls-12,.cls-13,.cls-14,.cls-17,.cls-18,.cls-2,.cls-20,.cls-22,.cls-24,.cls-3,.cls-4,.cls-6,.cls-7,.cls-8,.cls-9{fill-rule:evenodd;}.cls-2{fill:url(#Áåçûìÿííûé_ãðàäèåíò_129);}.cls-3{fill:url(#Áåçûìÿííûé_ãðàäèåíò_104);}.cls-4{fill:url(#Áåçûìÿííûé_ãðàäèåíò_112);}.cls-5{fill:#3c107b;}.cls-6{fill:#31165f;}.cls-7{fill:#0054b5;}.cls-8{fill:#31c7ff;}.cls-9{fill:url(#Áåçûìÿííûé_ãðàäèåíò_129-2);}.cls-10,.cls-16,.cls-19{fill:#fff;}.cls-11{fill:url(#Áåçûìÿííûé_ãðàäèåíò_129-3);}.cls-12{fill:url(#Áåçûìÿííûé_ãðàäèåíò_129-4);}.cls-13{fill:url(#Áåçûìÿííûé_ãðàäèåíò_129-5);}.cls-14{fill:url(#Áåçûìÿííûé_ãðàäèåíò_129-6);}.cls-15{fill:#77439f;}.cls-17{fill:#ff935f;}.cls-18{fill:url(#Áåçûìÿííûé_ãðàäèåíò_176);}.cls-19,.cls-26{mix-blend-mode:soft-light;}.cls-20{fill:url(#Áåçûìÿííûé_ãðàäèåíò_220);}.cls-21,.cls-23,.cls-25,.cls-27,.cls-28,.cls-29,.cls-30{mix-blend-mode:screen;}.cls-21{fill:url(#Áåçûìÿííûé_ãðàäèåíò_217);}.cls-22{fill:url(#Áåçûìÿííûé_ãðàäèåíò_220-2);}.cls-23{fill:url(#Áåçûìÿííûé_ãðàäèåíò_217-2);}.cls-24{fill:url(#Áåçûìÿííûé_ãðàäèåíò_220-3);}.cls-25{fill:url(#Áåçûìÿííûé_ãðàäèåíò_217-3);}.cls-27{fill:url(#Áåçûìÿííûé_ãðàäèåíò_266);}.cls-28{fill:url(#Áåçûìÿííûé_ãðàäèåíò_266-2);}.cls-29{fill:url(#Áåçûìÿííûé_ãðàäèåíò_266-3);}.cls-30{fill:url(#Áåçûìÿííûé_ãðàäèåíò_123);}</style><linearGradient id="Áåçûìÿííûé_ãðàäèåíò_129" x1="486.47" y1="269.35" x2="486.47" y2="-24.55" gradientTransform="matrix(-0.93, 0.37, 0.37, 0.93, 881.89, -134.1)" gradientUnits="userSpaceOnUse"><stop offset="0" stop-color="#ffff29"/><stop offset="1" stop-color="#ff7e59"/></linearGradient><radialGradient id="Áåçûìÿííûé_ãðàäèåíò_104" cx="480.82" cy="-3313.44" r="327.45" gradientTransform="matrix(-0.93, 0.37, 0.52, 1.31, 2710.2, 4498.09)" gradientUnits="userSpaceOnUse"><stop offset="0.02" stop-color="#8343b0"/><stop offset="0.4" stop-color="#7937aa"/><stop offset="0.99" stop-color="#611b9c"/></radialGradient><radialGradient id="Áåçûìÿííûé_ãðàäèåíò_112" cx="458.47" cy="1915.58" r="504.11" gradientTransform="matrix(-0.93, 0.37, 0.24, 0.62, 501.77, -1099.25)" gradientUnits="userSpaceOnUse"><stop offset="0" stop-color="#d4cfff"/><stop offset="1" stop-color="#8d6fc7"/></radialGradient><linearGradient id="Áåçûìÿííûé_ãðàäèåíò_129-2" x1="496.55" y1="422.04" x2="496.55" y2="404.67" xlink:href="#Áåçûìÿííûé_ãðàäèåíò_129"/><linearGradient id="Áåçûìÿííûé_ãðàäèåíò_129-3" x1="700.72" y1="426.11" x2="700.72" y2="410.1" xlink:href="#Áåçûìÿííûé_ãðàäèåíò_129"/><linearGradient id="Áåçûìÿííûé_ãðàäèåíò_129-4" x1="832.33" y1="446.32" x2="832.33" y2="436.08" xlink:href="#Áåçûìÿííûé_ãðàäèåíò_129"/><linearGradient id="Áåçûìÿííûé_ãðàäèåíò_129-5" x1="472.37" y1="425.34" x2="472.37" y2="409.33" gradientTransform="translate(152.59 153.98) rotate(-21.54)" xlink:href="#Áåçûìÿííûé_ãðàäèåíò_129"/><linearGradient id="Áåçûìÿííûé_ãðàäèåíò_129-6" x1="627.65" y1="445.16" x2="627.65" y2="434.92" gradientTransform="translate(152.59 153.98) rotate(-21.54)" xlink:href="#Áåçûìÿííûé_ãðàäèåíò_129"/><radialGradient id="Áåçûìÿííûé_ãðàäèåíò_176" cx="474.83" cy="-3383.55" r="194.22" gradientTransform="matrix(-0.93, 0.37, 0.55, 1.4, 2826.07, 4788.86)" gradientUnits="userSpaceOnUse"><stop offset="0.02" stop-color="#725eb0"/><stop offset="0.38" stop-color="#6d52aa"/><stop offset="0.99" stop-color="#61349c"/></radialGradient><linearGradient id="Áåçûìÿííûé_ãðàäèåíò_220" x1="492.44" y1="343.99" x2="492.44" y2="330.28" gradientTransform="matrix(-0.93, 0.37, 0.37, 0.93, 881.89, -134.1)" gradientUnits="userSpaceOnUse"><stop offset="0" stop-color="#8dc7ff"/><stop offset="0.32" stop-color="#5c4d86"/></linearGradient><radialGradient id="Áåçûìÿííûé_ãðàäèåíò_217" cx="862.85" cy="22.62" r="33.08" gradientTransform="matrix(-1.44, 0.1, -0.08, 1.24, 1785.67, 247.98)" gradientUnits="userSpaceOnUse"><stop offset="0" stop-color="#003cee"/><stop offset="0.06" stop-color="#0036d6"/><stop offset="0.2" stop-color="#00289e"/><stop offset="0.34" stop-color="#001c6d"/><stop offset="0.48" stop-color="#001246"/><stop offset="0.62" stop-color="#000a27"/><stop offset="0.75" stop-color="#000412"/><stop offset="0.88" stop-color="#000104"/><stop offset="1"/></radialGradient><linearGradient id="Áåçûìÿííûé_ãðàäèåíò_220-2" x1="983.9" y1="362.11" x2="983.9" y2="348.4" xlink:href="#Áåçûìÿííûé_ãðàäèåíò_220"/><radialGradient id="Áåçûìÿííûé_ãðàäèåíò_217-2" cx="1168.97" cy="157.37" r="33.08" xlink:href="#Áåçûìÿííûé_ãðàäèåíò_217"/><linearGradient id="Áåçûìÿííûé_ãðàäèåíò_220-3" x1="25.17" y1="362.1" x2="25.17" y2="348.4" xlink:href="#Áåçûìÿííûé_ãðàäèåíò_220"/><radialGradient id="Áåçûìÿííûé_ãðàäèåíò_217-3" cx="561.2" cy="-78.14" r="33.08" xlink:href="#Áåçûìÿííûé_ãðàäèåíò_217"/><radialGradient id="Áåçûìÿííûé_ãðàäèåíò_266" cx="720.94" cy="98.31" r="36.84" gradientTransform="matrix(-2.49, 0.98, 0.54, 1.37, 2307.2, -410.39)" gradientUnits="userSpaceOnUse"><stop offset="0" stop-color="#ff9a00"/><stop offset="0.09" stop-color="#d68100"/><stop offset="0.23" stop-color="#9e5f00"/><stop offset="0.36" stop-color="#6e4200"/><stop offset="0.5" stop-color="#462a00"/><stop offset="0.63" stop-color="#271800"/><stop offset="0.76" stop-color="#120b00"/><stop offset="0.89" stop-color="#040300"/><stop offset="1"/></radialGradient><radialGradient id="Áåçûìÿííûé_ãðàäèåíò_266-2" cx="650.26" cy="104.87" r="13.24" xlink:href="#Áåçûìÿííûé_ãðàäèåíò_266"/><radialGradient id="Áåçûìÿííûé_ãðàäèåíò_266-3" cx="844.03" cy="118.09" r="13.24" xlink:href="#Áåçûìÿííûé_ãðàäèåíò_266"/><linearGradient id="Áåçûìÿííûé_ãðàäèåíò_123" x1="479.09" y1="1425.18" x2="479.09" y2="456.96" gradientTransform="matrix(-0.93, 0.37, 0.37, 0.93, 881.89, -134.1)" gradientUnits="userSpaceOnUse"><stop offset="0"/><stop offset="0.15" stop-color="#000304"/><stop offset="0.32" stop-color="#020d12"/><stop offset="0.5" stop-color="#041e27"/><stop offset="0.68" stop-color="#083546"/><stop offset="0.86" stop-color="#0c526d"/><stop offset="1" stop-color="#106d90"/></linearGradient></defs><title>right_spaceship1</title><g class="cls-1"><g id="Layer_1" data-name="Layer 1"><path class="cls-2" d="M863.56,151.29S616.44-44.2,432.76,17.13C242.16,80.77,189.22,428.94,189.22,428.94Z"/><path class="cls-3" d="M1.82,614.48c6.56,8.32,245.67,15.35,593.58-122,321.36-126.87,525.8-303,516.85-316.39C1106,166.73,846,229.54,539.4,350.61S-3.09,608.26,1.82,614.48Z"/><path class="cls-4" d="M1112.25,176.07S889.42,84,517.18,230.94,1.82,614.48,1.82,614.48s138.74-95.66,562.9-263.12C903.43,217.64,1112.25,176.07,1112.25,176.07Z"/><path class="cls-5" d="M127.43,615l4.94-4c-2.9-3.62,2.27-11.35,14.19-21.18C208.78,538.56,432.69,441,614.41,372.13l1.08-.41C838.2,287.34,1005,241.8,1021.3,261l4.82-4.1c-29-34.15-347.65,84.22-413.26,109.08l-.69.26C430,435.29,205.3,533.23,142.53,585,136.7,589.83,119,604.46,127.43,615Z"/><path class="cls-6" d="M817.22,389.09S618.43,438.85,376.63,565.38C376.63,565.38,612.38,500.89,817.22,389.09Z"/><path class="cls-7" d="M795.64,400S609,447.49,400.78,558.68C400.78,558.68,614.87,501.18,795.64,400Z"/><path class="cls-8" d="M752.58,411.79S554.06,509.4,446.35,533.72C446.35,533.72,628.57,448.72,752.58,411.79Z"/><path class="cls-9" d="M534.35,447.5c1.76,4.46,20,1.45,40.68-6.73s36.06-18.41,34.3-22.87a2.76,2.76,0,0,0-1.67-1.43c-5.21-2.1-21.19,1.11-39,8.14-15.5,6.12-28,13.41-32.58,18.55C534.55,444.89,533.91,446.39,534.35,447.5Z"/><path class="cls-10" d="M536.09,443.25c1.5,3.82,18.78.58,38.57-7.23,17.52-6.92,31.15-15.12,33-19.55-5.21-2.1-21.19,1.11-39,8.14-15.5,6.12-28,13.41-32.58,18.55A.24.24,0,0,0,536.09,443.25Z"/><path class="cls-11" d="M359.73,521.56c1.62,4.1,13.67,3.2,26.89-2,10.94-4.32,19.25-10.24,20.9-14.48h0a3.22,3.22,0,0,0,.1-2.41,2.88,2.88,0,0,0-1.27-1.42c-3.72-2.37-14.22-1.07-25.62,3.42-7,2.77-12.94,6.19-16.73,9.4a17.58,17.58,0,0,0-3.54,3.84A4.18,4.18,0,0,0,359.73,521.56Z"/><path class="cls-10" d="M363.88,516.52c1.62,4.1,13.66,3.19,26.9-2,7-2.77,13-6.19,16.74-9.42h0a3.22,3.22,0,0,0,.1-2.41,2.88,2.88,0,0,0-1.27-1.42c-3.72-2.37-14.22-1.07-25.62,3.42-7,2.77-12.94,6.19-16.73,9.4A3.28,3.28,0,0,0,363.88,516.52Z"/><path class="cls-12" d="M250.34,589.56c1,2.63,10.57,1.33,21.29-2.9,8.86-3.5,15.75-7.91,17.3-10.82h0a1.92,1.92,0,0,0,.22-1.61,1.68,1.68,0,0,0-.92-.87c-2.79-1.35-11.14.13-20.38,3.77a63.44,63.44,0,0,0-13.71,7.2,15.78,15.78,0,0,0-3,2.75C250.38,588.06,250.08,588.91,250.34,589.56Z"/><path class="cls-10" d="M253.9,586c1,2.62,10.57,1.31,21.3-2.93a62.26,62.26,0,0,0,13.73-7.22h0a1.92,1.92,0,0,0,.22-1.61,1.68,1.68,0,0,0-.92-.87c-2.79-1.35-11.14.13-20.38,3.77a63.44,63.44,0,0,0-13.71,7.2A2,2,0,0,0,253.9,586Z"/><path class="cls-13" d="M769.15,359.24c1.62,4.1-7.79,11.67-21,16.9-10.93,4.31-21,5.67-25.15,3.7h0a3.21,3.21,0,0,1-1.72-1.68,2.91,2.91,0,0,1,0-1.92c1.1-4.27,9.66-10.49,21.06-15a62.59,62.59,0,0,1,18.63-4.56,17.44,17.44,0,0,1,5.21.39A4.14,4.14,0,0,1,769.15,359.24Z"/><path class="cls-10" d="M762.68,358.4c1.62,4.1-7.8,11.65-21,16.88-7,2.77-13.7,4.33-18.66,4.56h0a3.21,3.21,0,0,1-1.72-1.68,2.91,2.91,0,0,1,0-1.92c1.1-4.27,9.66-10.49,21.06-15a62.59,62.59,0,0,1,18.63-4.56A3.31,3.31,0,0,1,762.68,358.4Z"/><path class="cls-14" d="M917.36,325.13c1,2.62-6.81,8.19-17.53,12.42-8.86,3.5-16.9,5-20,3.92h0a1.89,1.89,0,0,1-1.26-1,1.63,1.63,0,0,1,.08-1.27c1.11-2.89,8.21-7.52,17.45-11.16A62.69,62.69,0,0,1,911,323.92a15.61,15.61,0,0,1,4.08-.05C916.31,324.05,917.11,324.47,917.36,325.13Z"/><path class="cls-10" d="M912.32,325c1,2.62-6.82,8.17-17.55,12.41a62.28,62.28,0,0,1-15,4.11h0a1.89,1.89,0,0,1-1.26-1,1.63,1.63,0,0,1,.08-1.27c1.11-2.89,8.21-7.52,17.45-11.16A62.69,62.69,0,0,1,911,323.92,1.9,1.9,0,0,1,912.32,325Z"/><path class="cls-15" d="M69.78,532.05c200-197.52,445.74-289.53,616.64-331.92,185.24-45.95,325-45.15,326.35-45.14l0-3.16c-1.39,0-141.43-.81-327,45.21C514.43,239.49,268.13,331.75,67.55,529.8Z"/><path class="cls-5" d="M3.64,617.07c1.32-.92,136.24-94.18,532.23-250.53s575.13-187,576.89-187.34l-1-6.25c-1.77.3-181.34,31.05-578.19,187.7S1.32,611,0,611.89Z"/><path class="cls-15" d="M982.89,209.19l1.15-2.95c-.91-.35-92.45-36-151.51-38.47l-.13,3.16C890.94,173.35,982,208.84,982.89,209.19Z"/><path class="cls-15" d="M99.23,560.17c51.86-93.32,152.05-174.11,153.06-174.91l-2-2.48c-1,.81-101.66,82-153.83,175.85Z"/><path class="cls-16" d="M354.89,87.9s-8.08,22.21-24.22,64.26L304,163.1s4.79-31.09,36.36-69.45Z"/><path class="cls-16" d="M853.81,143.92S591.16-48.6,416.44,27,193.68,404.54,193.68,404.54s54.84-326,213.51-388.79C589.94-56.63,853.81,143.92,853.81,143.92Z"/><path class="cls-17" d="M725.64,160.63S608,137.75,472.35,183.79,268.48,338.92,268.48,338.92,482.74,196.74,725.64,160.63Z"/><path class="cls-16" d="M811.89,132.29S754.82,92,695.5,69.43l-16.78,2.5s66.71,38.86,94.51,64.44Z"/><path class="cls-18" d="M863.56,151.29l-12.46-9.15s-454.29,39.3-657.42,262.4l-2.81,14.7s95.06-90.94,324.35-181.47S863.56,151.29,863.56,151.29Z"/><path class="cls-19" d="M850.36,252.88S566.05,334.51,161.51,530.45C161.51,530.45,444.55,394.08,850.36,252.88Z"/><path class="cls-20" d="M539.89,363.37c1.39,3.52,6,5,10.29,3.3s6.66-5.92,5.27-9.44-6-5-10.3-3.3S538.5,359.85,539.89,363.37Z"/><path class="cls-10" d="M541.54,362.72c1.09,2.77,4.72,3.93,8.11,2.6s5.24-4.67,4.14-7.44-4.72-3.93-8.1-2.6S540.45,360,541.54,362.72Z"/><path class="cls-21" d="M497.71,364.55c-1.5,22.65,18.55,39.55,44.77,37.74s48.7-21.63,50.19-44.28-18.55-39.55-44.78-37.75S499.2,341.9,497.71,364.55Z"/><path class="cls-22" d="M89.44,560.69c1.39,3.52,6,5,10.29,3.3s6.66-5.93,5.27-9.45-6-5-10.3-3.3S88.05,557.17,89.44,560.69Z"/><path class="cls-10" d="M91.09,560c1.09,2.78,4.72,3.94,8.11,2.6s5.24-4.66,4.14-7.43-4.72-3.94-8.1-2.6S90,557.26,91.09,560Z"/><path class="cls-23" d="M47.25,561.86C45.76,584.52,65.81,601.41,92,599.61s48.7-21.64,50.19-44.29-18.55-39.55-44.78-37.74S48.75,539.21,47.25,561.86Z"/><path class="cls-24" d="M981.15,208.63c1.39,3.52,6,5,10.3,3.3s6.65-5.92,5.26-9.44-6-5-10.3-3.3S979.76,205.11,981.15,208.63Z"/><path class="cls-10" d="M982.8,208c1.1,2.77,4.73,3.93,8.11,2.6s5.24-4.67,4.15-7.44-4.73-3.93-8.11-2.6S981.71,205.21,982.8,208Z"/><path class="cls-25" d="M939,209.81c-1.49,22.65,18.55,39.55,44.78,37.74s48.69-21.63,50.18-44.28-18.55-39.55-44.77-37.74S940.46,187.16,939,209.81Z"/><g class="cls-26"><path class="cls-10" d="M548,299.93a6,6,0,0,1-3.15,2.59c-.84.26-1.61.34-2.43.55s-1.46.42-2.19.68a14.59,14.59,0,0,1-3.45.77c-.65,0-.14-.44.34-.79a8,8,0,0,1,1.8-1.08c.92-.39,1.83-.76,2.7-1.21.33-.18.6-.41,1-.58a15.24,15.24,0,0,1,1.5-.62C545.14,299.83,547.29,299.34,548,299.93Z"/><path class="cls-10" d="M534.16,307.5a2.75,2.75,0,0,0,1.15-.57c-.3-.66-3.78.44-4.19,1.33s2.11.11,3.13-.55Z"/><path class="cls-10" d="M517.35,328.39c.29-.52.77-1.05.39-1.35a2.62,2.62,0,0,0-1.64-.28,15.61,15.61,0,0,0-3,.6,7.69,7.69,0,0,0-1.5.48,6.68,6.68,0,0,0-3.3,3.41,3.68,3.68,0,0,0-.32,1.55,5.5,5.5,0,0,1,0,1c0,.29-.18.62.08.81a3.17,3.17,0,0,0,1,.25,9.06,9.06,0,0,0,4.09-.75,10.69,10.69,0,0,0,5-4.39C518.81,328.69,519.46,327.18,517.35,328.39Z"/><path class="cls-10" d="M519.65,323.76c-.72.4-.91.57-1.42.5a.39.39,0,0,1-.36-.55,3.63,3.63,0,0,1,2.42-1.58c.53-.05,1.51-.07,1.65.13.29.4-1.1,1.58-2.13,1.93Z"/><path class="cls-10" d="M488.69,320.49a8.87,8.87,0,0,1-1.17.53l-3.07,1.21c-1.92.75-3.79,1.62-5.72,2.38-1.39.56-2.82,1-4.22,1.47-.73.24-1.5.48-2.21.69,0-.09.37-.24.51-.33.5-.3,1.07-.59,1.54-.9,1-.7,2.15-1.42,3.26-2.1.2-.13.46-.24.63-.38s.42-.37.62-.55a10.27,10.27,0,0,1,1.26-.91,24.82,24.82,0,0,1,3.88-1.73c.44-.17.88-.29,1.32-.46s.94-.36,1.43-.52a18.42,18.42,0,0,1,3-.67c1.11-.17,3-.61,3.49-.21.24.19-.43.56-.94.81s-1.31.57-2,.87C489.49,320.08,488.48,320.61,488.69,320.49Z"/><path class="cls-10" d="M497.54,316.38c.44-.3,1.27-.81,1-1s-1.29.18-1.84.43c-1.3.6.35.72,1.21.33Z"/><path class="cls-10" d="M487.15,314.6a6,6,0,0,1-1.52.75c-.84.26-1.27.15-1.42-.15-.24-.46,0-.91,1.16-1.5a7,7,0,0,1,2.62-.61.64.64,0,0,1,.57.22c.17.27-.36.64-.88,1Z"/><path class="cls-10" d="M444.63,319a9,9,0,0,0,1.19-3,8,8,0,0,0-.46-2.21,12.28,12.28,0,0,1,.55-3.48c.19-1,.18-2-.69-2.59a5,5,0,0,0-3.65-.44,24.3,24.3,0,0,0-3.2.87l-1.49.51c-.33.11-.55.15-.91.3s-.45.26-.38.44a1,1,0,0,0,.89.65,3.5,3.5,0,0,1,1.82,1,12.4,12.4,0,0,1,1.28,1.22c.35.43.7.87,1.07,1.3s.67.72,1,1.09a8.61,8.61,0,0,1,.74,1.18c.21.32.26.72.48,1a2.82,2.82,0,0,1,.37.62,1.17,1.17,0,0,0,.31.47c.14.14.12.33.22.49A2.53,2.53,0,0,0,444.63,319Z"/><path class="cls-10" d="M450.79,311.29a2.13,2.13,0,0,1-.68.6c-.13.06-.42.16-.57.21a.86.86,0,0,1-1.2-.52c-.29-.72,0-1.76,1.07-2.8a9.62,9.62,0,0,1,3.35-1.95,4,4,0,0,1,3.61.28c.56.44,1,1.22,0,2.12a5,5,0,0,1-1.4.92c-.45.2-.91.3-1.36.48a10.18,10.18,0,0,1-1.73.68A2.15,2.15,0,0,1,450.79,311.29Z"/><path class="cls-10" d="M449,307.06a2,2,0,0,0,.93-.47c.31-.24.42-.42.24-.55a2.18,2.18,0,0,0-1.77.32c-.38.24-.53.55-.5.74s.48.25,1,.12Z"/><path class="cls-10" d="M486.58,285.83a2.09,2.09,0,0,1-.9,1,2.2,2.2,0,0,1-.94.43,4.81,4.81,0,0,1-2.58-.11.59.59,0,0,1-.17-.93,7.73,7.73,0,0,1,1.24-1.13c.38-.33.79-.65,1.21-1a5.68,5.68,0,0,1,2.65-1.25c.92-.12,1.77.06,1.86.49s-.12.64-.39,1.06S488.17,285.13,486.58,285.83Z"/><path class="cls-10" d="M483,288.9a1.21,1.21,0,0,0-.67-.45c-.25.11-.43,0-.71.19s-.16.44-.09.56.32.25.65.24c.12,0,.66,0,.65-.16Z"/><path class="cls-10" d="M458.56,320.93a4,4,0,0,1-2,.84c-.72,0-.75-.44-.54-.83a1.22,1.22,0,0,1,.63-.63c.42-.19.9-.35,1.33-.52,1-.42,1.61-1.11,2.74-1.14.46,0,.92.18.9.44-.05.49-1.06,1.13-1.89,1.62Z"/><path class="cls-10" d="M433.37,368.42a3.54,3.54,0,0,1-1.21,1.86l-.46.17a7.7,7.7,0,0,1-2.41.92c-2.53.45-2.62-.62-3-1.49s-1.08-2,2.37-2.88c1.58-.4,4.15-1.1,5.3-.93.61.1.44.33.28.72a3.92,3.92,0,0,1-.91,1.63Z"/><path class="cls-10" d="M223.13,519.64a3.59,3.59,0,0,1-1.2,1.87l-.47.16a7.72,7.72,0,0,1-2.41.93c-2.53.44-2.62-.62-3-1.49s-1.08-2,2.38-2.89c1.58-.39,4.14-1.09,5.29-.92.61.09.44.33.28.71a3.86,3.86,0,0,1-.91,1.63Z"/><path class="cls-10" d="M425.47,359.27c.59-.4,1.75-1.1,1.71-1.5s-.51-.26-1-.32a4.61,4.61,0,0,0-3.71.95c-.6.47-.85,1.15-.56,1.43a2.59,2.59,0,0,0,2.32-.07Z"/><path class="cls-10" d="M615.47,233a9.45,9.45,0,0,1-3.67,1.65,19.67,19.67,0,0,1-4.24.92c-1.63,0-1.57-.84-2.2-1.36s-.71-.68,0-1.49a17.67,17.67,0,0,1,3-2.54,45,45,0,0,1,14.17-5.75c2.93-.6,6.35-1.13,7.7-.26,1.14.73,1,2.13-.72,3.65a21.15,21.15,0,0,1-7.32,3.69c-.65.18-1.3.35-1.94.54-.83.27-1.63.58-2.43.93A2.84,2.84,0,0,1,615.47,233Z"/><path class="cls-10" d="M890.45,261.77a9.31,9.31,0,0,1-3.67,1.65,19.67,19.67,0,0,1-4.24.92c-1.63,0-1.57-.83-2.2-1.36s-.71-.67,0-1.49a18.14,18.14,0,0,1,3-2.54,45,45,0,0,1,14.16-5.74c2.94-.61,6.36-1.14,7.71-.27,1.14.73,1,2.13-.72,3.65a21,21,0,0,1-7.32,3.7l-2,.53q-1.23.42-2.43.93A2.79,2.79,0,0,1,890.45,261.77Z"/><path class="cls-10" d="M609.23,237.65a5.06,5.06,0,0,0-3.15.46,9.31,9.31,0,0,0-1.69.56c-.85.43-1.54,1.28-1.31,1.61s1.73.15,2.34.05a5,5,0,0,0,2.13-.9Z"/><path class="cls-10" d="M636.37,305.19c-1.45.73-3.14,1.62-4.42,1.38-.86-.17-.43-1.12.18-1.81a19.6,19.6,0,0,1,5.1-3.44c1.87-.85,4.24-.75,4.73-.16,1,1.22-4.36,4.19-7,5.32Z"/><path class="cls-10" d="M679.39,384.87c-1.44.74-3.14,1.63-4.41,1.39-.87-.17-.43-1.13.17-1.81a19.77,19.77,0,0,1,5.1-3.44c1.87-.85,4.25-.76,4.74-.16,1,1.22-4.36,4.18-7,5.32Z"/><path class="cls-10" d="M620.28,312.65a11.15,11.15,0,0,0,2.3-.49c.24-.13.24-.26.41-.38.65-.46,1.22-.9,1.23-1.28,0-.8-.83-1.1-2.51-.84a5.47,5.47,0,0,0-2.84,1.24c-.78.73-.89,1.67.39,1.6Z"/><path class="cls-10" d="M404.92,326.49a33.89,33.89,0,0,1-8,3.39c-1.81.56-4.16,1.38-5.22.95-2.51-1,6.42-6,9.31-7.56a52.94,52.94,0,0,1,8-3.38c1.62-.51,5-1.27,6-1,1.34.37.41,1.75-1,2.84-3.19,2.52-8,4.08-11.88,6.21Z"/><path class="cls-10" d="M405.89,327.13c0,.21.14,1.06-.21,1.51a3.78,3.78,0,0,1-1.19,1.1,4.92,4.92,0,0,1-2.27.47c-.39,0-.84-.14-.72-.41a4.06,4.06,0,0,1,.9-.8,18.54,18.54,0,0,1,1.85-1.22c.3-.18.59-.39.95-.57a5.12,5.12,0,0,1,1.3-.32Z"/><path class="cls-10" d="M383.21,337.2l-.92-.31c-.56.27-1.28.45-1.57.82a.55.55,0,0,0,.18.77,2,2,0,0,0,1.56-.15c.78-.32,1-.72,1-1.05Z"/><path class="cls-10" d="M362.66,376.17a4,4,0,0,1-1.9.63c-1,0-1.36-.41-.77-1.06a12.08,12.08,0,0,1,4.64-2.89c1.13-.34,2.62-.3,2.13.4a6.72,6.72,0,0,1-1,1.18,12,12,0,0,1-2.91,1.66Z"/><path class="cls-10" d="M717.81,211.32a3.39,3.39,0,0,1-1.16.87,7.41,7.41,0,0,1-2.2.77,4.59,4.59,0,0,1-3.28-.73c-.53-.42-.52-.91.13-1.68a9.1,9.1,0,0,1,3.31-2.36,7.41,7.41,0,0,1,4.09-.93,5,5,0,0,1,2.56.83c.41.43.19.92-.49,1.63A4.62,4.62,0,0,1,717.81,211.32Z"/><path class="cls-10" d="M710.89,208.85c.42-.18.94-.34,1-.57s-.67-.5-1.15-.49a5.35,5.35,0,0,0-1.72.41,2.41,2.41,0,0,0-.83.66c-.3.35-.27.62.13.7a2.13,2.13,0,0,0,1.42-.06Z"/><path class="cls-10" d="M770.87,201.06a6.76,6.76,0,0,1-1.91.57,9.23,9.23,0,0,1-2.83,0c-1-.17-1.86-.54-2-1.18-.07-.46,1-1.34,2-1.8a15.33,15.33,0,0,1,4.11-1.17c2.12-.19,4.06.19,4.23,1.22C774.67,199.91,770.5,201.6,770.87,201.06Z"/><path class="cls-10" d="M759.12,200.22a3.87,3.87,0,0,0,1.11-.15c.12-.24.56-.47.66-.71s-.11-.39-.38-.46a2.82,2.82,0,0,0-1.6.19c-.73.28-.84.44-1.06.79s-.23.33.09.41a3.44,3.44,0,0,0,.76.09Z"/></g><path class="cls-27" d="M475.4,468.32c11,27.84,60.92,34.2,111.54,14.22s82.73-58.75,71.74-86.58-60.93-34.2-111.54-14.22S464.41,440.48,475.4,468.32Z"/><path class="cls-28" d="M713.45,384.71c3.95,10,21.89,12.29,40.08,5.11s29.73-21.11,25.78-31.11-21.89-12.29-40.08-5.11S709.5,374.71,713.45,384.71Z"/><path class="cls-29" d="M238.6,593.1c4,10,21.9,12.29,40.08,5.11s29.73-21.11,25.78-31.11-21.89-12.29-40.08-5.11S234.66,583.1,238.6,593.1Z"/><path class="cls-30" d="M752.58,411.79l505.25,816.61L654.15,1488,446.35,533.72S666.74,437.09,752.58,411.79Z"/></g></g></svg>