<svg xmlns="http://www.w3.org/2000/svg" xmlns:xlink="http://www.w3.org/1999/xlink" viewBox="0 0 800.68 987.57"><defs><style>.cls-1{isolation:isolate;}.cls-2,.cls-45,.cls-46,.cls-47{mix-blend-mode:screen;}.cls-2{fill:url(#Áåçûìÿííûé_ãðàäèåíò_123);}.cls-10,.cls-11,.cls-12,.cls-13,.cls-14,.cls-15,.cls-16,.cls-17,.cls-19,.cls-20,.cls-21,.cls-22,.cls-23,.cls-24,.cls-25,.cls-26,.cls-27,.cls-28,.cls-29,.cls-3,.cls-30,.cls-31,.cls-32,.cls-33,.cls-34,.cls-36,.cls-37,.cls-38,.cls-39,.cls-4,.cls-40,.cls-42,.cls-43,.cls-44,.cls-5,.cls-6,.cls-7,.cls-9{fill-rule:evenodd;}.cls-3{fill:url(#Áåçûìÿííûé_ãðàäèåíò_269);}.cls-4{fill:url(#Áåçûìÿííûé_ãðàäèåíò_269-2);}.cls-5{fill:url(#Áåçûìÿííûé_ãðàäèåíò_229);}.cls-17,.cls-6{fill:#31165f;}.cls-7{fill:url(#Áåçûìÿííûé_ãðàäèåíò_187);}.cls-8,.cls-9{fill:#53345f;}.cls-10{fill:url(#Áåçûìÿííûé_ãðàäèåíò_136);}.cls-11,.cls-12,.cls-17,.cls-19,.cls-38{opacity:0.5;}.cls-11,.cls-12,.cls-19{mix-blend-mode:multiply;}.cls-11{fill:url(#Áåçûìÿííûé_ãðàäèåíò_183);}.cls-12{fill:url(#Áåçûìÿííûé_ãðàäèåíò_183-2);}.cls-13{fill:url(#Áåçûìÿííûé_ãðàäèåíò_176);}.cls-14{fill:#a6345f;}.cls-15{fill:url(#Áåçûìÿííûé_ãðàäèåíò_129);}.cls-16{fill:url(#Áåçûìÿííûé_ãðàäèåíò_176-2);}.cls-18,.cls-35,.cls-38,.cls-39,.cls-40{fill:#fff;}.cls-19{fill:url(#Áåçûìÿííûé_ãðàäèåíò_183-3);}.cls-20{fill:url(#Áåçûìÿííûé_ãðàäèåíò_220);}.cls-21{fill:url(#Áåçûìÿííûé_ãðàäèåíò_199);}.cls-22{fill:url(#Áåçûìÿííûé_ãðàäèåíò_220-2);}.cls-23{fill:url(#Áåçûìÿííûé_ãðàäèåíò_199-2);}.cls-24{fill:url(#Áåçûìÿííûé_ãðàäèåíò_259);}.cls-25{fill:url(#Áåçûìÿííûé_ãðàäèåíò_259-2);}.cls-26{fill:url(#Áåçûìÿííûé_ãðàäèåíò_259-3);}.cls-27{fill:url(#Áåçûìÿííûé_ãðàäèåíò_259-4);}.cls-28{fill:url(#Áåçûìÿííûé_ãðàäèåíò_259-5);}.cls-29{fill:url(#Áåçûìÿííûé_ãðàäèåíò_259-6);}.cls-30{fill:url(#Áåçûìÿííûé_ãðàäèåíò_259-7);}.cls-31{fill:url(#Áåçûìÿííûé_ãðàäèåíò_259-8);}.cls-32{fill:#6f2561;}.cls-33{fill:url(#Áåçûìÿííûé_ãðàäèåíò_246);}.cls-34{fill:#ff4c61;}.cls-35,.cls-38,.cls-39,.cls-41{mix-blend-mode:soft-light;}.cls-36{fill:url(#Áåçûìÿííûé_ãðàäèåíò_136-2);}.cls-37{fill:url(#Áåçûìÿííûé_ãðàäèåíò_136-3);}.cls-41{opacity:0.36;}.cls-42{fill:url(#Áåçûìÿííûé_ãðàäèåíò_220-3);}.cls-43{fill:url(#Áåçûìÿííûé_ãðàäèåíò_220-4);}.cls-44{fill:url(#Áåçûìÿííûé_ãðàäèåíò_220-5);}.cls-45{fill:url(#Áåçûìÿííûé_ãðàäèåíò_217);}.cls-46{fill:url(#Áåçûìÿííûé_ãðàäèåíò_217-2);}.cls-47{fill:url(#Áåçûìÿííûé_ãðàäèåíò_217-3);}</style><linearGradient id="Áåçûìÿííûé_ãðàäèåíò_123" x1="252.73" y1="1016.51" x2="252.73" y2="775.08" gradientTransform="matrix(-0.51, -0.4, -0.82, 1.05, 999.92, -18.79)" gradientUnits="userSpaceOnUse"><stop offset="0"/><stop offset="0.15" stop-color="#000304"/><stop offset="0.32" stop-color="#020d12"/><stop offset="0.5" stop-color="#041e27"/><stop offset="0.68" stop-color="#083546"/><stop offset="0.86" stop-color="#0c526d"/><stop offset="1" stop-color="#106d90"/></linearGradient><linearGradient id="Áåçûìÿííûé_ãðàäèåíò_269" x1="578.16" y1="813.63" x2="578.16" y2="567.3" gradientTransform="matrix(-0.79, -0.62, -0.62, 0.79, 1028.17, 352.08)" gradientUnits="userSpaceOnUse"><stop offset="0" stop-color="#a43440"/><stop offset="1" stop-color="#c73634"/></linearGradient><linearGradient id="Áåçûìÿííûé_ãðàäèåíò_269-2" x1="244.08" y1="813.62" x2="244.08" y2="567.29" xlink:href="#Áåçûìÿííûé_ãðàäèåíò_269"/><radialGradient id="Áåçûìÿííûé_ãðàäèåíò_229" cx="487.44" cy="-4278.56" r="220.14" gradientTransform="matrix(-0.99, -0.78, -1.42, 1.8, -5008.86, 8280.52)" gradientUnits="userSpaceOnUse"><stop offset="0" stop-color="#f4bab3"/><stop offset="0.77" stop-color="#8d6fc7"/><stop offset="0.96" stop-color="#b695e5"/></radialGradient><radialGradient id="Áåçûìÿííûé_ãðàäèåíò_187" cx="412.62" cy="680.47" r="74.26" gradientTransform="matrix(-0.79, -0.62, -0.56, 0.71, 1469.25, -207.75)" gradientUnits="userSpaceOnUse"><stop offset="0.02" stop-color="#ab5e75"/><stop offset="0.25" stop-color="#9f577b"/><stop offset="0.67" stop-color="#7f458c"/><stop offset="0.99" stop-color="#61349c"/></radialGradient><linearGradient id="Áåçûìÿííûé_ãðàäèåíò_136" x1="409.96" y1="-93.41" x2="409.96" y2="-124.17" gradientTransform="matrix(-0.79, -0.62, -0.62, 0.79, 1028.17, 352.08)" gradientUnits="userSpaceOnUse"><stop offset="0" stop-color="#ffff18"/><stop offset="1" stop-color="#ff7400"/></linearGradient><radialGradient id="Áåçûìÿííûé_ãðàäèåíò_183" cx="410" cy="-3239.07" r="131.18" gradientTransform="matrix(-0.79, -0.62, -1.14, 1.45, -2983.21, 5453.06)" gradientUnits="userSpaceOnUse"><stop offset="0.02" stop-color="#8881bc"/><stop offset="0.29" stop-color="#8375b7"/><stop offset="0.77" stop-color="#7555aa"/><stop offset="0.99" stop-color="#6d43a3"/></radialGradient><radialGradient id="Áåçûìÿííûé_ãðàäèåíò_183-2" cx="410.39" cy="178.77" r="139.48" gradientTransform="matrix(-0.79, -0.62, -0.62, 0.79, 1028.17, 352.08)" xlink:href="#Áåçûìÿííûé_ãðàäèåíò_183"/><radialGradient id="Áåçûìÿííûé_ãðàäèåíò_176" cx="424.56" cy="-3513.81" r="158.05" gradientTransform="matrix(-0.86, -0.68, -1.14, 1.45, -2937.79, 5489.38)" gradientUnits="userSpaceOnUse"><stop offset="0.02" stop-color="#725eb0"/><stop offset="0.38" stop-color="#6d52aa"/><stop offset="0.99" stop-color="#61349c"/></radialGradient><linearGradient id="Áåçûìÿííûé_ãðàäèåíò_129" x1="411.5" y1="265.54" x2="411.5" y2="50.37" gradientTransform="matrix(-0.79, -0.62, -0.62, 0.79, 1028.17, 352.08)" gradientUnits="userSpaceOnUse"><stop offset="0" stop-color="#ffff29"/><stop offset="1" stop-color="#ff7e59"/></linearGradient><radialGradient id="Áåçûìÿííûé_ãðàäèåíò_176-2" cx="412.28" cy="-3129.2" r="51.54" gradientTransform="matrix(-0.79, -0.62, -1.14, 1.45, -2983.21, 5453.06)" xlink:href="#Áåçûìÿííûé_ãðàäèåíò_176"/><radialGradient id="Áåçûìÿííûé_ãðàäèåíò_183-3" cx="411.55" cy="-2.13" r="94.95" gradientTransform="matrix(-0.79, -0.62, -0.62, 0.79, 1028.17, 352.08)" xlink:href="#Áåçûìÿííûé_ãðàäèåíò_183"/><linearGradient id="Áåçûìÿííûé_ãðàäèåíò_220" x1="404.29" y1="455.39" x2="404.29" y2="442.4" gradientTransform="matrix(-0.79, -0.62, -0.62, 0.79, 1028.17, 352.08)" gradientUnits="userSpaceOnUse"><stop offset="0" stop-color="#8dc7ff"/><stop offset="0.32" stop-color="#5c4d86"/></linearGradient><radialGradient id="Áåçûìÿííûé_ãðàäèåíò_199" cx="405.21" cy="446.37" r="5.11" gradientTransform="matrix(-0.79, -0.62, -0.62, 0.79, 1028.17, 352.08)" gradientUnits="userSpaceOnUse"><stop offset="0.02" stop-color="#8881bc"/><stop offset="0.29" stop-color="#8375b7"/><stop offset="0.77" stop-color="#7555aa"/><stop offset="1" stop-color="#6d43a3"/></radialGradient><linearGradient id="Áåçûìÿííûé_ãðàäèåíò_220-2" x1="404.29" y1="423.36" x2="404.29" y2="410.38" xlink:href="#Áåçûìÿííûé_ãðàäèåíò_220"/><radialGradient id="Áåçûìÿííûé_ãðàäèåíò_199-2" cx="405.21" cy="414.34" r="5.11" xlink:href="#Áåçûìÿííûé_ãðàäèåíò_199"/><radialGradient id="Áåçûìÿííûé_ãðàäèåíò_259" cx="298.32" cy="196.04" r="5.11" gradientTransform="matrix(-0.79, -0.62, -0.62, 0.79, 1028.17, 352.08)" gradientUnits="userSpaceOnUse"><stop offset="0" stop-color="#f4bab3"/><stop offset="1" stop-color="#8d6fc7"/></radialGradient><radialGradient id="Áåçûìÿííûé_ãðàäèåíò_259-2" cx="309.71" cy="104.16" r="5.11" xlink:href="#Áåçûìÿííûé_ãðàäèåíò_259"/><radialGradient id="Áåçûìÿííûé_ãðàäèåíò_259-3" cx="359.08" cy="268.61" r="5.11" xlink:href="#Áåçûìÿííûé_ãðàäèåíò_259"/><radialGradient id="Áåçûìÿííûé_ãðàäèåíò_259-4" cx="459.63" cy="276.43" r="5.11" xlink:href="#Áåçûìÿííûé_ãðàäèåíò_259"/><radialGradient id="Áåçûìÿííûé_ãðàäèåíò_259-5" cx="527.7" cy="215.84" r="5.11" xlink:href="#Áåçûìÿííûé_ãðàäèåíò_259"/><radialGradient id="Áåçûìÿííûé_ãðàäèåíò_259-6" cx="517.28" cy="100.79" r="5.11" xlink:href="#Áåçûìÿííûé_ãðàäèåíò_259"/><radialGradient id="Áåçûìÿííûé_ãðàäèåíò_259-7" cx="466.13" cy="41.46" r="5.11" xlink:href="#Áåçûìÿííûé_ãðàäèåíò_259"/><radialGradient id="Áåçûìÿííûé_ãðàäèåíò_259-8" cx="379.98" cy="32.16" r="5.11" xlink:href="#Áåçûìÿííûé_ãðàäèåíò_259"/><linearGradient id="Áåçûìÿííûé_ãðàäèåíò_246" x1="459.59" y1="813.63" x2="459.59" y2="539.91" gradientTransform="matrix(-0.79, -0.62, -0.62, 0.79, 1028.17, 352.08)" gradientUnits="userSpaceOnUse"><stop offset="0" stop-color="#a43411"/><stop offset="1" stop-color="#c73634"/></linearGradient><linearGradient id="Áåçûìÿííûé_ãðàäèåíò_136-2" x1="588.18" y1="138.8" x2="604.4" y2="138.8" xlink:href="#Áåçûìÿííûé_ãðàäèåíò_136"/><linearGradient id="Áåçûìÿííûé_ãðàäèåíò_136-3" x1="221.18" y1="134.35" x2="236.42" y2="134.35" xlink:href="#Áåçûìÿííûé_ãðàäèåíò_136"/><linearGradient id="Áåçûìÿííûé_ãðàäèåíò_220-3" x1="302.82" y1="546.64" x2="302.82" y2="531.64" xlink:href="#Áåçûìÿííûé_ãðàäèåíò_220"/><linearGradient id="Áåçûìÿííûé_ãðàäèåíò_220-4" x1="518.91" y1="531.05" x2="518.91" y2="516.05" xlink:href="#Áåçûìÿííûé_ãðàäèåíò_220"/><linearGradient id="Áåçûìÿííûé_ãðàäèåíò_220-5" x1="416.11" y1="529.87" x2="416.11" y2="514.87" xlink:href="#Áåçûìÿííûé_ãðàäèåíò_220"/><radialGradient id="Áåçûìÿííûé_ãðàäèåíò_217" cx="609.92" cy="148.86" r="29.67" gradientTransform="matrix(-0.75, -1.27, -1.27, 0.75, 1021.83, 1164.24)" gradientUnits="userSpaceOnUse"><stop offset="0" stop-color="#003cee"/><stop offset="0.06" stop-color="#0036d6"/><stop offset="0.2" stop-color="#00289e"/><stop offset="0.34" stop-color="#001c6d"/><stop offset="0.48" stop-color="#001246"/><stop offset="0.62" stop-color="#000a27"/><stop offset="0.75" stop-color="#000412"/><stop offset="0.88" stop-color="#000104"/><stop offset="1"/></radialGradient><radialGradient id="Áåçûìÿííûé_ãðàäèåíò_217-2" cx="671.08" cy="173.42" r="11.44" xlink:href="#Áåçûìÿííûé_ãðàäèåíò_217"/><radialGradient id="Áåçûìÿííûé_ãðàäèåíò_217-3" cx="530.26" cy="130.22" r="11.44" xlink:href="#Áåçûìÿííûé_ãðàäèåíò_217"/></defs><title>rocket</title><g class="cls-1"><g id="Layer_1" data-name="Layer 1"><path class="cls-2" d="M296.1,746.64,87.2,987.57,0,863.66,167.22,647.21S266.37,713.2,296.1,746.64Z"/><path class="cls-3" d="M234.28,464.09l-42-47.72S112.46,501.63,91.11,650.2l4.66,3.66L199.74,514l10.1,7.38Z"/><path class="cls-4" d="M458.56,640.88l57.83,30.4S452.34,768.93,313,824.69L308.33,821,419.76,687l-9.56-8.08Z"/><path class="cls-5" d="M764.47,21.38c63.64,50.05,42.62,281.89-77.69,418.27S335.92,734.08,335.92,734.08l-82.17-63.31-80.89-64.93s99.25-261.31,203.43-410.37S701.26-28.33,764.47,21.38Z"/><path class="cls-6" d="M335.92,734.08s-86.31-81.24-163.06-128.24C172.86,605.84,256.84,686.47,335.92,734.08Z"/><path class="cls-7" d="M799.16,153.23S731.46,53.73,617.35,22.3c0,0,100.61-36.82,147.12-.92C806.31,53.68,799.16,153.23,799.16,153.23Z"/><path class="cls-8" d="M616.87,24.12c106.51,28.22,180,129.19,180.76,130.21l3-2.2c-.74-1-75-103.07-182.85-131.64Z"/><path class="cls-9" d="M781.92,43.27,732.35,8.18S770.1,9.93,781.92,43.27Z"/><path class="cls-10" d="M777.1,35.77A128.66,128.66,0,0,0,750.82,14S773.9-4.57,782.68,1.07,777.1,35.77,777.1,35.77Z"/><path class="cls-11" d="M482.62,625.16S380.54,471.86,251.5,421.7C218.17,492,172.86,605.84,172.86,605.84s69.2,40.26,163.06,128.24C335.92,734.08,415.37,685.16,482.62,625.16Z"/><path class="cls-12" d="M688.64,128.74c53.92,49.65,41,150.28-3.39,212.07s-127.62,55.36-184.54,7.93-73.63-125.4-15.54-185.57C537.69,108.78,628.8,73.64,688.64,128.74Z"/><path class="cls-6" d="M696.11,119.23c53.93,49.65,41,150.28-3.38,212.08s-127.63,55.35-184.55,7.93-73.62-125.41-15.53-185.57C545.17,99.28,636.28,64.14,696.11,119.23Z"/><path class="cls-13" d="M701.33,112.6c53.92,49.65,41,150.28-3.39,212.08S570.32,380,513.4,332.61,439.77,207.2,497.86,147C550.38,92.65,641.49,57.51,701.33,112.6Z"/><path class="cls-14" d="M680.83,130.83c49,43.63,32.49,117.71-2.12,166s-99.89,43-144.62,5.74-58-98.32-12.64-145.26C562.48,114.84,629.67,85.26,680.83,130.83Z"/><path class="cls-15" d="M499.1,247.93V248l0,.11c5.44,20.12,18,39,35.82,53.83,42.59,35.45,110.82,40.78,143.77-5.14a155.63,155.63,0,0,0,24.35-52c9.42-36.86,3.59-76.7-28.41-106.3C627.36,94.75,562,123.26,522.92,163.66,497.84,189.6,491.6,220.05,499.1,247.93Z"/><rect class="cls-8" x="337.9" y="421.56" width="211" height="1.88" transform="translate(-162.85 509.51) rotate(-51.78)"/><path class="cls-8" d="M251.23,422.59c1.08.33,109.47,34.3,230.63,203.13l1.52-1.11C361.81,455.21,252.85,421.12,251.77,420.79Z"/><path class="cls-8" d="M431.43,437.63c82.33,72.28,106,141.74,106.25,142.42l1.79-.58c-.24-.7-24.06-70.63-106.8-143.25Z"/><polygon class="cls-6" points="265.36 609.84 323.95 540.07 308.29 519.71 250.02 597.77 265.36 609.84"/><path class="cls-16" d="M321.29,724.94S255.85,662.43,181.59,614l-21,35.38,134.9,100.36Z"/><path class="cls-17" d="M308.23,737.49s-13.73-31.81-46.06-56.14-96.74-40.15-96.74-40.15L181.59,614S263,666.13,321.29,724.94Z"/><path class="cls-18" d="M627.65,133.24s-20.76,1.47-47.84,13.86l-6-15.12s24.57-13.77,46.09-8.53Z"/><polygon class="cls-18" points="651.28 298.67 629.5 307.59 634.38 320.16 651.53 311.89 651.28 298.67"/><path class="cls-19" d="M794.81,196.7S741.17,79.21,587.33,33.25l30-10.95s92.82,21.54,181.81,130.93Z"/><path class="cls-20" d="M427.79,451a6.49,6.49,0,1,0,9.12-1.09A6.49,6.49,0,0,0,427.79,451Z"/><path class="cls-21" d="M428.87,451.82a5.11,5.11,0,1,0,7.18-.86A5.12,5.12,0,0,0,428.87,451.82Z"/><path class="cls-22" d="M447.59,425.8a6.49,6.49,0,1,0,9.11-1.09A6.48,6.48,0,0,0,447.59,425.8Z"/><path class="cls-23" d="M448.67,426.65a5.11,5.11,0,1,0,7.18-.86A5.12,5.12,0,0,0,448.67,426.65Z"/><path class="cls-6" d="M666.55,320.29a6.49,6.49,0,1,0,9.12-1.09A6.49,6.49,0,0,0,666.55,320.29Z"/><path class="cls-24" d="M667.64,321.14a5.11,5.11,0,1,0,7.17-.85A5.12,5.12,0,0,0,667.64,321.14Z"/><path class="cls-6" d="M714.4,241a6.49,6.49,0,1,0,9.12-1.09A6.5,6.5,0,0,0,714.4,241Z"/><path class="cls-25" d="M715.49,241.88a5.11,5.11,0,1,0,7.18-.86A5.11,5.11,0,0,0,715.49,241.88Z"/><path class="cls-6" d="M573.93,339.77a6.49,6.49,0,1,0,9.12-1.09A6.51,6.51,0,0,0,573.93,339.77Z"/><path class="cls-26" d="M575,340.62a5.11,5.11,0,1,0,7.18-.86A5.11,5.11,0,0,0,575,340.62Z"/><path class="cls-6" d="M490.08,283.75a6.49,6.49,0,1,0,9.11-1.09A6.5,6.5,0,0,0,490.08,283.75Z"/><path class="cls-27" d="M491.16,284.61a5.11,5.11,0,1,0,7.18-.86A5.11,5.11,0,0,0,491.16,284.61Z"/><path class="cls-6" d="M474,194.05a6.49,6.49,0,1,0,9.12-1.09A6.5,6.5,0,0,0,474,194.05Z"/><path class="cls-28" d="M475.11,194.9a5.11,5.11,0,1,0,7.18-.85A5.11,5.11,0,0,0,475.11,194.9Z"/><path class="cls-6" d="M553.33,110.06a6.49,6.49,0,1,0,9.12-1.09A6.51,6.51,0,0,0,553.33,110.06Z"/><path class="cls-29" d="M554.42,110.91a5.11,5.11,0,1,0,7.18-.85A5.11,5.11,0,0,0,554.42,110.91Z"/><path class="cls-6" d="M630.22,95.06A6.49,6.49,0,1,0,639.33,94,6.48,6.48,0,0,0,630.22,95.06Z"/><path class="cls-30" d="M631.3,95.91a5.11,5.11,0,1,0,7.18-.86A5.12,5.12,0,0,0,631.3,95.91Z"/><path class="cls-6" d="M703.68,141a6.49,6.49,0,1,0,9.12-1.09A6.49,6.49,0,0,0,703.68,141Z"/><path class="cls-31" d="M704.76,141.85a5.11,5.11,0,1,0,7.18-.86A5.12,5.12,0,0,0,704.76,141.85Z"/><polygon class="cls-32" points="308.33 821.03 304.58 818.08 416.14 683.96 419.76 687.02 308.33 821.03"/><polygon class="cls-32" points="199.74 513.99 203.57 516.79 98.3 655.85 95.77 653.86 199.74 513.99"/><polygon class="cls-33" points="335.19 493.94 321.76 483.37 165.99 709.08 175.34 716.44 335.19 493.94"/><polygon class="cls-34" points="335.19 493.94 307.09 548.92 175.34 716.44 335.19 493.94"/><polygon class="cls-17" points="316.96 490.32 172.86 605.84 206.74 629.62 180.3 664.09 191.15 672.62 316.96 490.32"/><path class="cls-18" d="M772.73,245.85s13-13.76,10.77-30.25L775.56,210s-4.76,18.32-6.63,32.9Z"/><polygon class="cls-35" points="280.06 385.38 316.34 310.35 312.41 307.26 275.44 381.74 280.06 385.38"/><path class="cls-36" d="M489,86.27s-19.88-23.59-24.47,17.87Z"/><path class="cls-37" d="M767.94,300.52s16.88,23.83-10.94,27Z"/><path class="cls-38" d="M314.73,713.64s210.37-141.35,345.61-264l3.66,7.68S464.47,651.76,332.87,731.24Z"/><polygon class="cls-39" points="325.6 294.13 349.56 249.12 345.83 246.19 321.87 291.19 325.6 294.13"/><path class="cls-39" d="M522.51,552.62s-26.36-50.1-62.13-84.28C460.38,468.34,492.16,507.3,522.51,552.62Z"/><path class="cls-39" d="M494.58,353.55,379.27,498.16S418.22,443.44,494.58,353.55Z"/><path class="cls-39" d="M458,596s-74.42-104.56-181.54-159.3C276.41,436.73,358.47,474,458,596Z"/><path class="cls-40" d="M736.57,197.27s-17.37-5.05-5.72-35.76C730.85,161.51,736.63,181,736.57,197.27Z"/><path class="cls-39" d="M502.51,322.67s-30.37-26.57-40.84-90.38C461.67,232.29,459.54,281.28,502.51,322.67Z"/><path class="cls-39" d="M536.32,304.35s-39.35-6.89-36.83-49C499.49,255.36,503.85,280,536.32,304.35Z"/><g class="cls-41"><path class="cls-40" d="M492.74,370.85c.77,2.4,2.68,6.44.2,8.52-1.16,1-2.63,1.42-3.87,2.26a17.38,17.38,0,0,0-3,2.55,11.56,11.56,0,0,1-5.52,3.18c-1.4.22-1.53-1.26-1.44-2.43a7.19,7.19,0,0,1,1-3.68,24.64,24.64,0,0,0,2.63-4.3c.26-.6.23-1.35.53-2a11.22,11.22,0,0,1,1.61-2.22C486.12,371.26,489.54,369.27,492.74,370.85Z"/><path class="cls-40" d="M483.05,396.9a2,2,0,0,0,1-2c-2.49-1.87-7.15,2.29-5.59,5,1.79,3.17,5-.22,5.41-2.43Z"/><path class="cls-40" d="M503.8,463.41c-.79-1.62-1.19-3.31-2.86-4.1a7.16,7.16,0,0,0-4.45-.44,13.17,13.17,0,0,0-5,2.56c-.76.54-1.62.93-2,1.81-1.51,3.49.18,8.11,2.15,11a25.32,25.32,0,0,0,3.59,4.7c1,.93,2,2,2.9,3,.78.87,1.32,1.89,2.43,2.38a9,9,0,0,0,3,.47,8.32,8.32,0,0,0,7-3.26c2.81-3.87.69-10.39-1.17-14.32C507.9,464,505.15,459.28,503.8,463.41Z"/><path class="cls-40" d="M496,449.05c-.48,1.35-.43,1.93-1.76,1.84a3.27,3.27,0,0,1-2.32-1.54c-1-1.47-1-4.75,1-5.33,1-.29,3.15-.59,4,0,1.73,1.11,1.95,5,.63,6.29Z"/><path class="cls-40" d="M418.11,447.16A6.29,6.29,0,0,1,417,449c-1.15,1.46-2.29,2.92-3.45,4.37-2.17,2.74-3.92,5.8-6.08,8.57a49.6,49.6,0,0,1-5.31,5.44c-.95.89-2,1.8-3,2.6-.18-.26.17-.78.24-1.09.26-1,.72-2,.9-3.08.39-2.35.84-4.77,1.41-7.09a6.21,6.21,0,0,0,.35-1.28c0-.56-.12-1.22-.14-1.78a9.48,9.48,0,0,1,.25-3.05,16.8,16.8,0,0,1,3.79-6.15c.53-.61,1.17-1.08,1.68-1.7a23.92,23.92,0,0,1,1.71-1.92,14.69,14.69,0,0,1,4.8-2.74c2-.8,5-2.59,7.17-1.52,1.07.52.62,1.79.17,2.65-.56,1.08-1.32,2-1.93,3.08C418.72,445.72,418,447.56,418.11,447.16Z"/><path class="cls-40" d="M426.33,432.66c.14-1,.58-2.73-.64-3.33s-2.38.86-2.89,1.75c-1.23,2.13,2.78,2.05,3.6.68Z"/><path class="cls-40" d="M398.27,430a4.37,4.37,0,0,1-1.27,2.64c-1.16,1-2.42.76-3.6-.09-1.79-1.31-2.64-2.69-1.58-4.77a5.83,5.83,0,0,1,4.12-2.49,2.93,2.93,0,0,1,1.89.53c1.14.77,1,2,.86,3.24Z"/><path class="cls-40" d="M316,453.86a47.6,47.6,0,0,0-5.82-9.39C308,442,305.3,440.23,303,438c-3.31-3.14-5.65-6.93-8.46-10.49-2.47-3.15-5.06-5.89-8.76-7.56-2.8-1.27-6.47-1.71-9.33-.38a17.53,17.53,0,0,0-4.71,3.4c-.66.64-1.23,1.27-1.88,1.91a7.71,7.71,0,0,0-1.2,1.11c-.49.7-.26.91.39,1.41a7,7,0,0,0,3.79,1.71,20.85,20.85,0,0,1,6.87,2.56c2.09,1.11,4.21,2.06,6.24,3.3s4,2.43,6,3.61c1.74,1,3.5,2,5.24,3s3.28,2.23,4.93,3.34c1.37.92,2.56,2.07,3.95,3a25.77,25.77,0,0,1,2.53,1.74,13.83,13.83,0,0,0,2,1.32,23,23,0,0,1,1.85,1.4A18.26,18.26,0,0,0,316,453.86Z"/><path class="cls-40" d="M308.22,429.35c.14.65.44,1.36.14,1.95a3.09,3.09,0,0,1-.68.77c-1.18.95-3.16-.51-4.11-1.25-2.63-2.05-5-5.23-5.43-8.62-.27-2.17.28-5.18,2-6.65,2.42-2,6.14-1.35,8.79-.09,2.48,1.18,5.54,3.4,5.86,6.35a4.72,4.72,0,0,1-.55,3.09,23.62,23.62,0,0,1-1.71,1.76c-.7.86-.85,2-1.94,2.49A3.8,3.8,0,0,1,308.22,429.35Z"/><path class="cls-40" d="M292.37,417.2a2,2,0,0,0-.25-3.33,2.22,2.22,0,0,0-3,1.41,2.71,2.71,0,0,0,.93,2.32,2.09,2.09,0,0,0,2.58.11Z"/><path class="cls-40" d="M316.91,344.39a4.29,4.29,0,0,1,.76,3.2,1.63,1.63,0,0,1-.89,1.51,8.67,8.67,0,0,1-6.06.31,5.16,5.16,0,0,1-3-2.72,11.7,11.7,0,0,1-.41-3.69,30.67,30.67,0,0,1,0-3.18c.08-1.85.47-3.7,2.41-4.39a5.86,5.86,0,0,1,5.48,1,8.25,8.25,0,0,1,2.1,3.28C317.91,340.92,318.51,341.91,316.91,344.39Z"/><path class="cls-40" d="M317.58,354.44a7.85,7.85,0,0,0-2.73-1.16c-.26.38-.85.22-1,.75-.26.76.86,1.35,1.33,1.69a3.11,3.11,0,0,0,2.13.55c.27,0,1.45-.2,1-.66Z"/><path class="cls-40" d="M352.32,456.09c-.22,1.29-.45,2.72-2.08,3s-2.9-1.13-3.53-2.35c-.33-.64-.72-1.37-.33-2a22.58,22.58,0,0,1,1.51-1.88c1.13-1.51.47-3.72,2.92-4.09a4.1,4.1,0,0,1,3.22,1.09c1.26,1.46.78,3.61.31,5.29Z"/><path class="cls-40" d="M428.5,604a11.63,11.63,0,0,1,2.51,5.86l-.57.61a5.36,5.36,0,0,1-2.79,3.36c-4.39,2-7.56-1.18-10.72-3.69-3.39-2.68-8-5.71-2.75-9.19,2.4-1.58,6.15-4.32,9.2-4.1,1.61.12,1.89.87,2.61,2.06.92,1.49,2.25,3.31,2.51,5.09Z"/><path class="cls-40" d="M385.47,578.73c.21-1.33.83-3.71-.38-4.9-1-1-1.85-.63-3.08-.69-2.68-.12-5.58.21-5.62,3.75a5.81,5.81,0,0,0,2.76,4.43c1.28.69,4.25.8,4.93-.82Z"/><path class="cls-40" d="M456.35,154.17c-.78,3.56-.78,3.81-3.56,5.84-2.09,1.52-4.2,3.44-6.88,3.82-3.54.49-5.82-2.1-8.68-3.5-2.24-1.1-3.45-1.83-4.1-4.45a22.85,22.85,0,0,1-.28-8.33c1.29-8.42,8.15-16.83,15.51-20.72,4.83-2.55,11-5,16.39-2.75,4.56,1.89,8.17,6.11,8.56,11.06s-2.24,9.75-6,12.87l-2.83,2.08a22.27,22.27,0,0,0-2.81,3.4C460.6,154.64,459,155.21,456.35,154.17Z"/><path class="cls-40" d="M455.54,169.73c-4,0-3.39,0-5.71,2.18-1,1-1.66.86-2.23,2.08a4.77,4.77,0,0,0,1.57,5.12c1.12.74,4.29,0,5.34-.44,1.61-.71,1.89-1.56,2.25-3.21Z"/><path class="cls-40" d="M703.89,364.1c-1.16,2.55-2.45,5.64-6,5.24-2.4-.28-4.09-3.24-4.65-5.44-.79-3.14.11-8.74,1.77-11.53,1.79-3,7.34-3.33,10.09-1.67,5.58,3.36,2,13.57-.75,17.61Z"/><path class="cls-40" d="M688.9,390.43c.76-.38,3.35-1.15,3.74-2.07.18-.43-.18-.82-.13-1.22.18-1.53.18-3-.85-4.13a6.6,6.6,0,0,0-7.89-1.86c-2,.8-3.15,2.27-2.88,4.41.29,2.36,2.68,5.21,5.32,4.66Z"/><path class="cls-40" d="M248.52,486.28c-1.11,5-4.47,8.79-8.32,12.13-2.46,2.12-5.41,5.15-9,4.16-8.34-2.34-2.56-19.65-.35-24.91a34.93,34.93,0,0,1,8.34-12.08c2.17-1.95,7.48-5.06,10.6-4.48,4,.74,5.79,5.09,5.75,8.7-.08,8.32-6.34,14.17-9.11,21.53Z"/><path class="cls-40" d="M252.46,487.94c.56.63,3.25,3.12,3.72,4.54.34,1,.89,2.58.43,3.57-.63,1.36-2.37,1.89-3.72,2a3.09,3.09,0,0,1-2.78-1.06,5.58,5.58,0,0,1-.21-2.61,18.48,18.48,0,0,1,.72-4.1,8.72,8.72,0,0,1,.54-1.93c.5-.94,1.27-.8,2-1.29Z"/><path class="cls-40" d="M230.06,523.7l-2.9-.69c-.51.94-1.59,1.66-1.2,2.84a5,5,0,0,0,2.54,2.25,2.6,2.6,0,0,0,3.06-.85c.83-1.15.19-2.39-.68-3.39Z"/><path class="cls-40" d="M292.84,645c-.48,1.29-1,2.17-2.48,2.36a4.06,4.06,0,0,1-4.65-3c-.72-2.89-.22-7.72,2.26-9.79,1.57-1.31,5-1.54,5.86.65a16,16,0,0,1,1.11,3.76,9.33,9.33,0,0,1-1.87,5.68Z"/><path class="cls-40" d="M623.71,63.75c.19,1.26.39,1.78-.18,2.87a5.13,5.13,0,0,1-2.73,2.85c-2.72,1-6.79-.14-9.35-1.35a7.43,7.43,0,0,1-4.4-5.05,9.58,9.58,0,0,1,.81-7.86c1.53-2.63,3.34-4,6.5-3.81a19.48,19.48,0,0,1,8,1.83,6.53,6.53,0,0,1,3.44,5C626.23,60.26,626.39,63.46,623.71,63.75Z"/><path class="cls-40" d="M601.44,58.14c.43-.65,1.13-1.26.58-2-.69-.9-2.89-1.32-3.93-1.17a4.51,4.51,0,0,0-2.69,1.66,3.09,3.09,0,0,0,0,2.18,2.64,2.64,0,0,0,2.24,2c.78.09,2.59.43,3-.52Z"/><path class="cls-40" d="M713.13,19.72a5.13,5.13,0,0,1-2.66,2.18,14.2,14.2,0,0,1-6.27.74,13.06,13.06,0,0,1-7.66-3c-1.43-1.34-1.53-4.23-.63-5.85a11,11,0,0,1,5.89-4.53c4.16-1.12,9.53-.48,12.81,2.57C718.37,15.31,713.8,21.41,713.13,19.72Z"/><path class="cls-40" d="M684.65,20.19a3.9,3.9,0,0,0,2.05-.75c-.37-.72,0-1.53-.5-2.26a3.22,3.22,0,0,0-2.12-1.29,3.11,3.11,0,0,0-3,1c-.87,1-.64,1.52-.14,2.62.35.8.38,1,1.32,1.2a9.87,9.87,0,0,0,2,.08Z"/></g><path class="cls-42" d="M452.59,585.28c-2.56,3.26-2.73,7.41-.37,9.26s6.34.72,8.9-2.54,2.73-7.4.37-9.26S455.15,582,452.59,585.28Z"/><path class="cls-40" d="M453.49,586c-2,2.56-2.14,5.83-.29,7.29s5,.56,7-2,2.14-5.83.29-7.29S455.51,583.43,453.49,586Z"/><path class="cls-43" d="M291.94,439.1c-2.56,3.25-2.53,7.55.07,9.6s6.79,1.06,9.35-2.19,2.53-7.56-.07-9.61S294.5,435.84,291.94,439.1Z"/><path class="cls-40" d="M292.94,439.88c-2,2.57-2,5.95.06,7.57s5.34.83,7.36-1.73,2-6-.06-7.56S295,437.32,292.94,439.88Z"/><path class="cls-44" d="M372.28,500.79a7.51,7.51,0,1,0,10.54-1.26A7.52,7.52,0,0,0,372.28,500.79Z"/><path class="cls-40" d="M373.54,501.78a5.91,5.91,0,1,0,8.29-1A5.9,5.9,0,0,0,373.54,501.78Z"/><path class="cls-45" d="M354.06,466.41a43.64,43.64,0,1,0,59.79,15.3A43.64,43.64,0,0,0,354.06,466.41Z"/><path class="cls-46" d="M290.82,430.48a16.83,16.83,0,1,0,23.05,5.91A16.82,16.82,0,0,0,290.82,430.48Z"/><path class="cls-47" d="M451,576.32a16.83,16.83,0,1,0,23.06,5.9A16.84,16.84,0,0,0,451,576.32Z"/></g></g></svg>