<svg id="visual" viewBox="0 0 900 600" width="900" height="600" xmlns="http://www.w3.org/2000/svg" xmlns:xlink="http://www.w3.org/1999/xlink" version="1.1">
	<path d="M0 23L18.8 24.7C37.7 26.3 75.3 29.7 112.8 31.7C150.3 33.7 187.7 34.3 225.2 31.8C262.7 29.3 300.3 23.7 337.8 22.5C375.3 21.3 412.7 24.7 450.2 25.5C487.7 26.3 525.3 24.7 562.8 26.5C600.3 28.3 637.7 33.7 675.2 33.3C712.7 33 750.3 27 787.8 23.8C825.3 20.7 862.7 20.3 881.3 20.2L900 20L900 0L881.3 0C862.7 0 825.3 0 787.8 0C750.3 0 712.7 0 675.2 0C637.7 0 600.3 0 562.8 0C525.3 0 487.7 0 450.2 0C412.7 0 375.3 0 337.8 0C300.3 0 262.7 0 225.2 0C187.7 0 150.3 0 112.8 0C75.3 0 37.7 0 18.8 0L0 0Z" fill="#ffffff" stroke-linecap="round" stroke-linejoin="miter"></path>
</svg>