<svg xmlns="http://www.w3.org/2000/svg" xmlns:xlink="http://www.w3.org/1999/xlink" viewBox="0 0 791.46 887.69"><defs><style>.cls-1{fill:none;}.cls-2{isolation:isolate;}.cls-3,.cls-4{fill:#cab3da;}.cls-10,.cls-11,.cls-12,.cls-13,.cls-14,.cls-16,.cls-167,.cls-168,.cls-17,.cls-18,.cls-20,.cls-21,.cls-22,.cls-23,.cls-4,.cls-5,.cls-6,.cls-7,.cls-8{fill-rule:evenodd;}.cls-5{fill:url(#Áåçûìÿííûé_ãðàäèåíò_25);}.cls-6{fill:#684d73;}.cls-15,.cls-17,.cls-7{fill:#53345f;}.cls-8,.cls-9{fill:#ff6b22;}.cls-10,.cls-16,.cls-167,.cls-168,.cls-17,.cls-20,.cls-22,.cls-23,.cls-27{mix-blend-mode:multiply;}.cls-10{fill:url(#Áåçûìÿííûé_ãðàäèåíò_163);}.cls-11{fill:#311745;}.cls-12{fill:url(#Áåçûìÿííûé_ãðàäèåíò_436);}.cls-13{fill:url(#Áåçûìÿííûé_ãðàäèåíò_25-2);}.cls-14{fill:url(#Áåçûìÿííûé_ãðàäèåíò_436-2);}.cls-16{fill:url(#Áåçûìÿííûé_ãðàäèåíò_36);}.cls-17,.cls-27{opacity:0.5;}.cls-18{fill:url(#Áåçûìÿííûé_ãðàäèåíò_519);}.cls-19{fill:url(#Áåçûìÿííûé_ãðàäèåíò_93);}.cls-20{fill:url(#Áåçûìÿííûé_ãðàäèåíò_36-2);}.cls-21{fill:url(#Áåçûìÿííûé_ãðàäèåíò_20);}.cls-22{fill:url(#Áåçûìÿííûé_ãðàäèåíò_36-3);}.cls-23{fill:url(#Áåçûìÿííûé_ãðàäèåíò_36-4);}.cls-24{fill:#fff;}.cls-166,.cls-25{mix-blend-mode:screen;}.cls-26{clip-path:url(#clip-path);}.cls-27{fill:#a67c4c;}.cls-28{fill:#000001;}.cls-29{fill:#010101;}.cls-30{fill:#010102;}.cls-31{fill:#010103;}.cls-32{fill:#010204;}.cls-33{fill:#020205;}.cls-34{fill:#020206;}.cls-35{fill:#020306;}.cls-36{fill:#030307;}.cls-37{fill:#030308;}.cls-38{fill:#030409;}.cls-39{fill:#04040a;}.cls-40{fill:#04040b;}.cls-41{fill:#05050c;}.cls-42{fill:#05050d;}.cls-43{fill:#05050e;}.cls-44{fill:#06060e;}.cls-45{fill:#06060f;}.cls-46{fill:#060710;}.cls-47{fill:#070711;}.cls-48{fill:#070712;}.cls-49{fill:#070813;}.cls-50{fill:#080814;}.cls-51{fill:#080815;}.cls-52{fill:#090916;}.cls-53{fill:#090917;}.cls-54{fill:#090a18;}.cls-55{fill:#0a0a19;}.cls-56{fill:#0a0a1a;}.cls-57{fill:#0a0b1b;}.cls-58{fill:#0b0b1c;}.cls-59{fill:#0b0c1d;}.cls-60{fill:#0b0c1e;}.cls-61{fill:#0c0c1f;}.cls-62{fill:#0c0d1f;}.cls-63{fill:#0d0d20;}.cls-64{fill:#0d0d21;}.cls-65{fill:#0d0e22;}.cls-66{fill:#0e0e23;}.cls-67{fill:#0e0f24;}.cls-68{fill:#0f0f25;}.cls-69{fill:#0f0f26;}.cls-70{fill:#0f1027;}.cls-71{fill:#101028;}.cls-72{fill:#101129;}.cls-73{fill:#10112a;}.cls-74{fill:#11112b;}.cls-75{fill:#11122c;}.cls-76{fill:#12122d;}.cls-77{fill:#12132e;}.cls-78{fill:#12132f;}.cls-79{fill:#131330;}.cls-80{fill:#131431;}.cls-81{fill:#141432;}.cls-82{fill:#141533;}.cls-83{fill:#141534;}.cls-84{fill:#151635;}.cls-85{fill:#151636;}.cls-86{fill:#161637;}.cls-87{fill:#161738;}.cls-88{fill:#161739;}.cls-89{fill:#17183a;}.cls-90{fill:#17183b;}.cls-91{fill:#18183d;}.cls-92{fill:#18193e;}.cls-93{fill:#18193f;}.cls-94{fill:#191a40;}.cls-95{fill:#191a41;}.cls-96{fill:#1a1a42;}.cls-97{fill:#1a1b43;}.cls-98{fill:#1a1b44;}.cls-99{fill:#1b1c45;}.cls-100{fill:#1b1c46;}.cls-101{fill:#1c1d47;}.cls-102{fill:#1c1d48;}.cls-103{fill:#1c1d49;}.cls-104{fill:#1d1e4a;}.cls-105{fill:#1d1e4b;}.cls-106{fill:#1e1f4c;}.cls-107{fill:#1e1f4d;}.cls-108{fill:#1e1f4e;}.cls-109{fill:#1f204f;}.cls-110{fill:#1f2050;}.cls-111{fill:#202151;}.cls-112{fill:#202152;}.cls-113{fill:#202253;}.cls-114{fill:#212254;}.cls-115{fill:#212255;}.cls-116{fill:#222356;}.cls-117{fill:#222358;}.cls-118{fill:#222459;}.cls-119{fill:#23245a;}.cls-120{fill:#23255b;}.cls-121{fill:#24255c;}.cls-122{fill:#24255d;}.cls-123{fill:#24265e;}.cls-124{fill:#25265f;}.cls-125{fill:#252760;}.cls-126{fill:#262761;}.cls-127{fill:#262862;}.cls-128{fill:#272863;}.cls-129{fill:#272864;}.cls-130{fill:#272965;}.cls-131{fill:#282966;}.cls-132{fill:#282a67;}.cls-133{fill:#292a68;}.cls-134{fill:#292b6a;}.cls-135{fill:#292b6b;}.cls-136{fill:#2a2b6c;}.cls-137{fill:#2a2c6d;}.cls-138{fill:#2b2c6e;}.cls-139{fill:#2b2d6f;}.cls-140{fill:#2b2d70;}.cls-141{fill:#2c2e71;}.cls-142{fill:#2c2e72;}.cls-143{fill:#2d2e73;}.cls-144{fill:#2d2f74;}.cls-145{fill:#2e2f75;}.cls-146{fill:#2e3076;}.cls-147{fill:#2e3077;}.cls-148{fill:#2f3179;}.cls-149{fill:#2f317a;}.cls-150{fill:#30317b;}.cls-151{fill:#30327c;}.cls-152{fill:#31327d;}.cls-153{fill:#31337e;}.cls-154{fill:#31337f;}.cls-155{fill:#323480;}.cls-156{fill:#323481;}.cls-157{fill:#333482;}.cls-158{fill:#333583;}.cls-159{fill:#333584;}.cls-160{fill:#343686;}.cls-161{fill:#343687;}.cls-162{fill:#353788;}.cls-163{fill:#353789;}.cls-164{fill:#36388a;}.cls-165{fill:#36388b;}.cls-166{fill:url(#Áåçûìÿííûé_ãðàäèåíò_217);}.cls-167{fill:url(#Áåçûìÿííûé_ãðàäèåíò_36-5);}.cls-168{fill:url(#Áåçûìÿííûé_ãðàäèåíò_163-2);}</style><radialGradient id="Áåçûìÿííûé_ãðàäèåíò_25" cx="574.85" cy="188.93" r="92.63" gradientTransform="matrix(-0.94, 0.35, 0.35, 0.94, 637.57, 32.52)" gradientUnits="userSpaceOnUse"><stop offset="0" stop-color="#f4dbee"/><stop offset="1" stop-color="#d1bde5"/></radialGradient><linearGradient id="Áåçûìÿííûé_ãðàäèåíò_163" x1="468.36" y1="214.19" x2="578.23" y2="214.19" gradientTransform="matrix(-0.94, 0.35, 0.35, 0.94, 637.57, 32.52)" gradientUnits="userSpaceOnUse"><stop offset="0" stop-color="#9579a7"/><stop offset="1" stop-color="#fff"/></linearGradient><radialGradient id="Áåçûìÿííûé_ãðàäèåíò_436" cx="616.18" cy="510.93" r="98.75" gradientTransform="matrix(-0.94, 0.35, 0.35, 0.94, 637.57, 32.52)" gradientUnits="userSpaceOnUse"><stop offset="0" stop-color="#f4f1ff"/><stop offset="1" stop-color="#d1bde5"/></radialGradient><radialGradient id="Áåçûìÿííûé_ãðàäèåíò_25-2" cx="300.78" cy="277.91" r="101.11" xlink:href="#Áåçûìÿííûé_ãðàäèåíò_25"/><radialGradient id="Áåçûìÿííûé_ãðàäèåíò_436-2" cx="369.85" cy="528.78" r="119.06" xlink:href="#Áåçûìÿííûé_ãðàäèåíò_436"/><linearGradient id="Áåçûìÿííûé_ãðàäèåíò_36" x1="219.84" y1="423.3" x2="569.22" y2="423.3" gradientTransform="matrix(-0.94, 0.35, 0.35, 0.94, 637.57, 32.52)" gradientUnits="userSpaceOnUse"><stop offset="0" stop-color="#fff"/><stop offset="1" stop-color="#9579a7"/></linearGradient><linearGradient id="Áåçûìÿííûé_ãðàäèåíò_519" x1="401.95" y1="174.51" x2="401.95" y2="-178.76" gradientTransform="matrix(-0.94, 0.35, 0.35, 0.94, 637.57, 32.52)" gradientUnits="userSpaceOnUse"><stop offset="0" stop-color="#d1bde5"/><stop offset="1" stop-color="#fff"/></linearGradient><linearGradient id="Áåçûìÿííûé_ãðàäèåíò_93" x1="437.23" y1="112.75" x2="437.23" y2="-169.42" gradientTransform="matrix(-0.94, 0.35, 0.35, 0.94, 637.57, 32.52)" gradientUnits="userSpaceOnUse"><stop offset="0" stop-color="#007c7e"/><stop offset="1" stop-color="#0f183b"/></linearGradient><linearGradient id="Áåçûìÿííûé_ãðàäèåíò_36-2" x1="212.08" y1="70.16" x2="572.27" y2="70.16" xlink:href="#Áåçûìÿííûé_ãðàäèåíò_36"/><linearGradient id="Áåçûìÿííûé_ãðàäèåíò_20" x1="297.8" y1="156.14" x2="297.8" y2="-31.32" gradientTransform="matrix(-0.94, 0.35, 0.35, 0.94, 637.57, 32.52)" gradientUnits="userSpaceOnUse"><stop offset="0" stop-color="#d1bde5"/><stop offset="1" stop-color="#f4dbee"/></linearGradient><linearGradient id="Áåçûìÿííûé_ãðàäèåíò_36-3" x1="530.75" y1="634.78" x2="612.94" y2="634.78" xlink:href="#Áåçûìÿííûé_ãðàäèåíò_36"/><linearGradient id="Áåçûìÿííûé_ãðàäèåíò_36-4" x1="292.29" y1="657.08" x2="369.68" y2="657.08" xlink:href="#Áåçûìÿííûé_ãðàäèåíò_36"/><clipPath id="clip-path"><path class="cls-1" d="M101.64,284.52c.34.56.65,1.14,1,1.68,12.38,12.11,55,43.6,125.83,26.58,87.16-20.93,98.11-96.22,98.11-96.22l17-3c-.47-11.08-.42-21.26,0-30.58l-.05,0S198.8,45.94,73.19,156.29C72.68,209.33,88.19,261,101.64,284.52Z"/></clipPath><radialGradient id="Áåçûìÿííûé_ãðàäèåíò_217" cx="750.73" cy="-564.22" r="30.02" gradientTransform="matrix(-1.47, -0.02, -0.01, 0.66, 1301.09, 506.69)" gradientUnits="userSpaceOnUse"><stop offset="0" stop-color="#003cee"/><stop offset="0.06" stop-color="#0036d6"/><stop offset="0.2" stop-color="#00289e"/><stop offset="0.34" stop-color="#001c6d"/><stop offset="0.48" stop-color="#001246"/><stop offset="0.62" stop-color="#000a27"/><stop offset="0.75" stop-color="#000412"/><stop offset="0.88" stop-color="#000104"/><stop offset="1"/></radialGradient><linearGradient id="Áåçûìÿííûé_ãðàäèåíò_36-5" x1="162.98" y1="317.06" x2="216.34" y2="317.06" xlink:href="#Áåçûìÿííûé_ãðàäèåíò_36"/><linearGradient id="Áåçûìÿííûé_ãðàäèåíò_163-2" x1="658.86" y1="137.38" x2="691.29" y2="137.38" xlink:href="#Áåçûìÿííûé_ãðàäèåíò_163"/></defs><title>spaceman_right</title><g class="cls-2"><g id="Layer_1" data-name="Layer 1"><path class="cls-3" d="M687,665.48c19.93,0,40.86-5.48,62.94-20,49.92-32.78,51.09-100.85,23.54-145.14-28.09-45.12-93.09-78.84-183.87-25.36-145.69,85.83-194.3,41.82-194.75,41.36l-17.75,17c2.39,2.49,60.34,59.8,225-37.19,75.41-44.44,127.18-20.28,150.48,17.15,21.45,34.48,21.38,86.93-16.15,111.56-47.19,31-85.77,11.49-130.45-11.06-17.86-9-36.34-18.35-55.63-24.12-69.76-20.87-120.27,15.44-122.39,17l14.54,19.86c1.74-1.26,43.15-30.53,100.79-13.28,17.21,5.15,33.92,13.58,51.6,22.51C623,650.07,653.55,665.48,687,665.48Z"/><path class="cls-4" d="M566.94,795.93s34.58,41.07,67,28Z"/><path class="cls-5" d="M60.92,424.37C72.52,455.73,144,494,184,488.32a48.36,48.36,0,0,0,5.28-1.06c24-6.36,41.62-31.13,50.91-47.53a143.24,143.24,0,0,0,7.54-15L249,345.09s-1,.21-2.83.66a138.7,138.7,0,0,0-30.6,11.7c-16.11,8.78-71.38,20-100,13.58s-38.87-15.51-45.78-14.58-12.31,12.61-12.31,12.61S48.68,391.28,60.92,424.37Z"/><path class="cls-6" d="M57.43,369.07s12.09-4.47,16.89,3.05,11.2,53.23-13.41,52.23-3.48-55.28-3.48-55.28Z"/><path class="cls-7" d="M63.7,371.81S67.54,396.27,53.54,417C53.54,417,41.59,386.85,63.7,371.81Z"/><path class="cls-8" d="M6.25,369.82C14,386,26.86,396.74,37.66,403.32a88.92,88.92,0,0,0,18.76,8.88s9.66-13.21,7.74-30.75c0,0-1.28-3-3.41-7.35C56,364.45,47.24,348.05,39.4,342.42l-.56,11.29s-9.15-16-33.84-14.94C5,338.77-7,341.85,6.25,369.82Z"/><path class="cls-9" d="M146.93,372.55s14.24,20.29,15.81,62.78-27.44,45.34-27.44,45.34,17,6.76,29.38,7.48c0,0,68.92-17.07,8.84-118.77Z"/><path class="cls-10" d="M240.17,439.73c1,6.23,2.31,12.71,3.92,19.49l24.38-43.39L253.64,344.6l-7.19.4c-.12.25-.2.5-.32.75a138.7,138.7,0,0,0-30.6,11.7S269,410,189.32,487.2c0,0,0,0-.06.06C213.26,480.9,230.88,456.13,240.17,439.73Z"/><path class="cls-11" d="M275.85,821.44s13.93-25.89,80.49-19.26C356.34,802.18,330.25,834.72,275.85,821.44Z"/><path class="cls-11" d="M582.54,726.33s-42.82-.06-64.84,48.22c0,0,18.58,7.67,41.82-6S582.54,726.33,582.54,726.33Z"/><path class="cls-12" d="M323.09,837.21l31-11.45s-.49-8-.8-20.72c-.85-32.18-.79-94.38,10-132.89v0L250,602.86s-.51,7.61-1.15,19.62c-1.72,34.88-14.56,105.17-6.94,133C252.15,793,323.09,837.21,323.09,837.21Z"/><path class="cls-4" d="M250,602.86s38.14,51.36,108,69.94l5.22-.65,27.94-3.55a1.71,1.71,0,0,0,0-.26c0-.12,0-.25,0-.47a3.28,3.28,0,0,1,0-.43c0-.16,0-.34,0-.55.23-12.41,4.07-90.34,61-158.91,0,0-5.21-5.54-16.08-21.43-1-1.48-2-3.05-3.13-4.68C428,474.3,422,464.8,414.94,453c-15.47-25.79-41.41-67.8-59.3-96.66v0c-5.38-8.67-10-16.16-13.48-21.67-1.28-2.08-2.43-3.92-3.35-5.37-1.83-3-2.86-4.62-2.86-4.62s-56.89,27.53-88.16,17.26c0,0-.51,1-1.33,3.09-.12.26-.2.5-.31.76-4.17,10.75-14.22,43.55-6,94,1,6.23,2.31,12.71,3.92,19.49.59,2.38,1.19,4.81,1.85,7.29,0,0-9.2,56.54.47,117.49C247.41,590.27,248.59,596.57,250,602.86Z"/><path class="cls-13" d="M354.52,406l0,.07c1.07,1.87,2.23,3.74,3.42,5.69,18.71,30.39,47.67,60.15,78.2,74.79,18.72,9,38,12.27,55.83,6.6,39.87-12.7,56.83-45.71,61-55.42.12-.34.27-.65.38-.91a5,5,0,0,1,.31-.79c.27-.66.4-1,.4-1S567,426.21,562,411.53s-18.42-35.61-18.42-35.61l-7.81-.36s-4.89-9.87-15.57-9.59-33.7,9.65-66.65,2.43c-29-6.31-72.44-23.82-87.08-31.46a28,28,0,0,1-4.32-2.58c-6.47-5.15-15.92-7.42-15.92-7.42l-4.48,1.4-2.94.92-9.06,2.84S324.18,354.54,354.52,406Z"/><path class="cls-14" d="M391.22,668.61S454.56,724,469.78,739s59.83,37.23,82.85,40.44c.59.08,1.17.17,1.69.19C576.1,781.85,585,767.41,585,767.41s-.56-4.39-1.5-11.34c-1.28-9.21-3.22-22.86-5.48-36.48-3-18.14-6.47-36.16-9.5-43.44-5.19-12.41-66.21-98.29-97.71-142.29C459.69,518.33,452.24,508,452.24,508c-61.53,46.6-61.43,145-61,158.91a3.57,3.57,0,0,0,0,.56,3.22,3.22,0,0,0,0,.43c0,.21,0,.34,0,.46A1.28,1.28,0,0,1,391.22,668.61Z"/><path class="cls-7" d="M324.71,333.43s-28.79,21.77-40.43,25.27-36.5-16.79-36.5-16.79S275.12,345.5,324.71,333.43Z"/><path class="cls-7" d="M346.21,327s-.49,94,74,152.39c0,0-67.65-40.89-95.53-145.92Z"/><path class="cls-7" d="M253.61,344.59s-13.18,70.67-7.69,121.93c0,0-19.94-56.77-6.9-118.76l8.76-5.85Z"/><path class="cls-7" d="M463.64,523.86s-42.62,30.71-62.2,153.7l-10.2-8.95S385,549.12,452.22,508Z"/><path class="cls-7" d="M246.43,584.11s54.41,76.09,116.82,88l-1.9,7.51s-63.87-3.32-112.15-62.76Z"/><path class="cls-6" d="M554.14,435S567,426.21,562,411.53s-18.42-35.61-18.42-35.61l-7.81-.36S509.72,412.27,554.14,435Z"/><path class="cls-7" d="M558,421.91s-25.66-24-14.38-46C543.57,375.92,567.6,412.1,558,421.91Z"/><path class="cls-8" d="M541.39,392.06s-1.43-21.3,15.45-31.85l3.41,9.24S581,346,603.66,356c0,0,3,42.31-49.34,62.44C554.32,418.41,543.88,409.42,541.39,392.06Z"/><path class="cls-9" d="M550.79,647.77s10.23,28.74-25.52,57.72S455.88,726,455.88,726s16.74,17.06,28.38,24.07,70.45-16.23,89.7-53.27c0,0-2.18-15.82-7-23.74S550.79,647.77,550.79,647.77Z"/><path class="cls-9" d="M355.34,720.06S332,746,302.22,760.25s-57.06,4.59-57.06,4.59,10.56,19.21,23.43,29.58c0,0,36.11-2.4,54.62-14.09s30.35-32.6,30.35-32.6Z"/><path class="cls-9" d="M445,366.32s-49.2,67.05,20.52,129.16a77.59,77.59,0,0,1-27.35-8C418,477.9,365.32,388.32,422,359Z"/><path class="cls-15" d="M362.48,672.81l1.56-1.33c-.45-.53-45.52-53.93-61.3-96.6-13.66-36.94-14.88-57.13-16.58-85.08-.64-10.58-1.36-22.57-2.91-36.82a634.76,634.76,0,0,1-3.14-92.26l-2.05-.11a636.82,636.82,0,0,0,3.15,92.59c1.54,14.2,2.27,26.16,2.91,36.72,1.7,28.13,2.93,48.45,16.7,85.67C316.73,618.6,362,672.27,362.48,672.81Z"/><path class="cls-16" d="M350.73,806l2.51-.93c-.85-32.18-.79-94.38,10-132.89l27.94-3.55s63.35,55.38,78.56,70.34,59.83,37.24,82.85,40.45c.59.08,1.17.16,1.69.19l29.22-23.52c-1.28-9.21-3.21-22.86-5.48-36.48l-2.69-.71s-30.09,36.25-65.61,34.2S414.18,668.29,415,653c2.91-57.15,37-99.73,55.9-119.14C459.7,518.32,452.25,508,452.25,508s-5.21-5.54-16.08-21.43c18.72,9,38,12.26,55.84,6.6,39.87-12.7,56.82-45.71,61-55.42C548.27,448,527,485.45,467.82,489.55A63.91,63.91,0,0,1,433,481.87c-47.37-24.87-74.68-101.6-77.05-118a37.83,37.83,0,0,1-.35-7.5v0c.9-14.28,10.83-19.36,10.83-19.36a28.84,28.84,0,0,1-4.32-2.58c-6.47-5.16-15.92-7.42-15.92-7.42l-4.47,1.4c.11,1.58.22,3.71.4,6.29,1.07,14.19,4.1,42.2,12.37,71.38l0,.07c5.05,17.92,12.12,36.33,21.89,52.25,32.56,53,43.1,61.76,43.1,61.76s-24.24,88.28-48.12,110.21-91-12.15-108-29.15c-8.09-8-13.51-13.6-17-17.15,1,6.28,2.18,12.58,3.61,18.87,0,0-.51,7.61-1.15,19.62,16.84,17.95,74.19,80.2,85.15,105.44C346.88,757.62,350.73,806,350.73,806Z"/><path class="cls-17" d="M346.22,326.94s-12.17,51.19-59.11,82-61.78-56.35-61.78-56.35L239,347.76l7.43-2.76Z"/><path class="cls-18" d="M101.64,284.52c.34.56.65,1.14,1,1.68,4.89,7.52,13.87,15.78,25.69,23.5,0,0,.68.48,2,1.27,22,13.93,53.1,26,85.64,29.36,52.83,5.41,130.59-2.44,179.54-39.71s64.88-142.43,50.11-175.3a304.87,304.87,0,0,0-17.23-33.15c-20.83-34.58-56.83-76.6-115.68-88.34C268.32-5,209.11,2.38,164.34,17.14a211,211,0,0,0-36.75,15.71,93.25,93.25,0,0,0-17.48,12.26L108.22,47a39.74,39.74,0,0,0-3.48,3.91C49.67,122,78.66,244.26,101.64,284.52Z"/><path class="cls-19" d="M108.84,276.64c.33.53.61,1.07,1,1.58,11.61,11.35,51.55,40.89,118,24.93,81.75-19.64,92-90.25,92-90.25l15.95-2.79c-.44-10.4-.39-19.94,0-28.68,2.22-49,15.65-72.73,15.09-79.81-.63-8.35-20.48-55.15-80.08-74.1-39.51-12.54-76.77-8.41-103.2-1.65A197.39,197.39,0,0,0,133.18,40.6a87.82,87.82,0,0,0-16.39,11.49L115,53.83a36,36,0,0,0-3.25,3.66c-21.44,27.71-29.27,63.63-29.6,98.88C81.68,206.12,96.23,254.54,108.84,276.64Z"/><path class="cls-20" d="M130.4,311c22,13.93,53.1,26,85.64,29.36,52.83,5.41,130.59-2.44,179.54-39.71s64.88-142.43,50.11-175.3a304.87,304.87,0,0,0-17.23-33.15c-7.15-6.91-16-10.87-26.69-8.65C362.42,91.68,356,220.35,356,220.35l-19.27-1s-10.05,74-87.48,100.89C181.54,343.77,139.87,316.43,130.4,311Z"/><path class="cls-21" d="M416.9,277.39c-18.58,17.21-53.12,11.19-58.76-54.38-5.59-65.81,29.71-130.53,29.71-130.53-54.32,7.22-44.23,121.1-44.23,121.1,1.14,4.82,2.3,9.31,3.52,13.5l.13.46C372.85,316.71,413.4,280.71,416.9,277.39Z"/><path class="cls-7" d="M448.66,134.71c-6.18-22.29-20.51-37.13-33.32-36.46s-45.61,58.82-36.72,123.6,49.64,42.88,57.32,18l4.54-13.53s-30.5,41.73-47.81,2.5c-19.76-44.79,16.14-103.5,35.67-96.21s21.83,44,21.83,44S452.75,149.48,448.66,134.71Z"/><path class="cls-6" d="M361.57,833.1l-4.94-8.28-.27-22.63s-46.72,22.65-80.52,19.24c0,0,16.76,15.9,43.73,20.46,0,0-26.4,13-24.55,41.41Z"/><path class="cls-6" d="M517.88,774.56l45.73,12.38,3.33,9s27.47,29.42,67.07,28c0,0-6.92-33.22-45.16-49.22l-6.3-48.38a81.59,81.59,0,0,1-21.72,35.24C544.7,776.88,520.05,774.78,517.88,774.56Z"/><polygon class="cls-4" points="361.58 833.1 366.26 837.02 297.74 887.69 295.04 883.3 361.58 833.1"/><path class="cls-22" d="M275.84,821.43s16.76,15.9,43.73,20.46c0,0,29.05-8.86,42-8.79l-4.94-8.28-.27-22.63S309.64,824.84,275.84,821.43Z"/><path class="cls-23" d="M517.88,774.56l45.73,12.38a59.61,59.61,0,0,0,25.24-12.23l-6.3-48.38a81.59,81.59,0,0,1-21.72,35.24C544.7,776.88,520.05,774.78,517.88,774.56Z"/><path class="cls-24" d="M323,101.62s-.68-19.35-2.8-25.1c0,0-12.63-10.58-28.27-14.59L281.22,96.37S313.87,99,323,101.62Z"/><path class="cls-24" d="M306.19,226.15s-3.87,16.57-11.2,26.51l-9.66-5.2s7-15,10.05-24Z"/><g class="cls-25"><g class="cls-26"><rect class="cls-27" x="72.68" y="45.94" width="270.99" height="283.86"/><path class="cls-27" d="M40.52,111.2c-1.38,57.7,63.86,106.06,145.71,108S335.56,176,336.93,118.27,273.07,12.2,191.22,10.25,41.89,53.49,40.52,111.2Z"/><ellipse class="cls-28" cx="188.72" cy="114.73" rx="103.76" ry="147.18" transform="translate(69.52 300.67) rotate(-88.63)"/><ellipse class="cls-29" cx="188.72" cy="114.73" rx="103.01" ry="146.12" transform="translate(69.52 300.67) rotate(-88.63)"/><path class="cls-30" d="M43.72,111.27C42.37,167.73,106.2,215.05,186.29,217s146.1-42.31,147.44-98.77S271.25,14.41,191.16,12.5,45.06,54.81,43.72,111.27Z"/><ellipse class="cls-31" cx="188.72" cy="114.73" rx="101.51" ry="143.98" transform="translate(69.52 300.67) rotate(-88.63)"/><ellipse class="cls-32" cx="188.72" cy="114.73" rx="100.76" ry="142.92" transform="translate(69.52 300.67) rotate(-88.63)"/><ellipse class="cls-33" cx="188.72" cy="114.73" rx="100" ry="141.85" transform="translate(69.52 300.67) rotate(-88.63)"/><path class="cls-34" d="M48,111.38C46.67,166.17,108.63,212.1,186.36,214s141.8-41.07,143.11-95.87S268.82,17.36,191.09,15.51,49.29,56.58,48,111.38Z"/><ellipse class="cls-35" cx="188.72" cy="114.73" rx="98.5" ry="139.72" transform="translate(69.52 300.67) rotate(-88.63)"/><ellipse class="cls-36" cx="188.72" cy="114.73" rx="97.75" ry="138.65" transform="translate(69.52 300.67) rotate(-88.63)"/><path class="cls-37" d="M51.18,111.45C49.9,165,110.45,209.89,186.41,211.7S325,171.57,326.27,118,267,19.58,191,17.76,52.46,57.9,51.18,111.45Z"/><ellipse class="cls-38" cx="188.72" cy="114.73" rx="96.24" ry="136.52" transform="translate(69.52 300.67) rotate(-88.63)"/><ellipse class="cls-39" cx="188.72" cy="114.73" rx="95.49" ry="135.45" transform="translate(69.52 300.67) rotate(-88.63)"/><ellipse class="cls-40" cx="188.72" cy="114.73" rx="94.74" ry="134.38" transform="translate(69.52 300.67) rotate(-88.63)"/><path class="cls-41" d="M55.45,111.55c-1.24,51.9,57.42,95.39,131,97.14S320.77,169.81,322,117.91,264.57,22.53,191,20.77,56.68,59.66,55.45,111.55Z"/><path class="cls-42" d="M56.51,111.58c-1.23,51.48,57,94.62,130,96.36s133.21-38.57,134.44-90S264,23.27,191,21.52,57.74,60.1,56.51,111.58Z"/><path class="cls-43" d="M57.58,111.6c-1.22,51.07,56.51,93.86,128.94,95.59s132.13-38.26,133.35-89.33S263.36,24,190.93,22.27,58.8,60.54,57.58,111.6Z"/><path class="cls-44" d="M58.64,111.63c-1.2,50.65,56.05,93.1,127.9,94.81s131.06-38,132.27-88.6S262.75,24.74,190.91,23,59.85,61,58.64,111.63Z"/><ellipse class="cls-45" cx="188.72" cy="114.73" rx="90.98" ry="129.05" transform="translate(69.52 300.67) rotate(-88.63)"/><ellipse class="cls-46" cx="188.72" cy="114.73" rx="90.23" ry="127.98" transform="translate(69.52 300.67) rotate(-88.63)"/><path class="cls-47" d="M61.84,111.71c-1.18,49.4,54.68,90.8,124.75,92.47s127.84-37,129-86.42S260.93,27,190.86,25.28,63,62.3,61.84,111.71Z"/><path class="cls-48" d="M62.91,111.73c-1.17,49,54.21,90,123.7,91.7s126.76-36.71,127.93-85.7-54.21-90-123.7-91.7S64.08,62.74,62.91,111.73Z"/><path class="cls-49" d="M64,111.76c-1.15,48.57,53.76,89.28,122.66,90.92s125.69-36.4,126.84-85S259.72,28.43,190.82,26.79,65.13,63.18,64,111.76Z"/><ellipse class="cls-50" cx="188.72" cy="114.73" rx="87.22" ry="123.72" transform="translate(69.52 300.67) rotate(-88.63)"/><path class="cls-51" d="M66.11,111.81c-1.14,47.74,52.83,87.75,120.55,89.37S310.2,165.4,311.34,117.66,258.51,29.9,190.79,28.29,67.25,64.07,66.11,111.81Z"/><ellipse class="cls-52" cx="188.72" cy="114.73" rx="85.72" ry="121.59" transform="translate(69.52 300.67) rotate(-88.63)"/><ellipse class="cls-53" cx="188.72" cy="114.73" rx="84.96" ry="120.52" transform="translate(69.52 300.67) rotate(-88.63)"/><path class="cls-54" d="M69.31,111.88c-1.11,46.5,51.45,85.47,117.41,87S307,164.08,308.14,117.58s-51.45-85.46-117.41-87S70.42,65.39,69.31,111.88Z"/><path class="cls-55" d="M70.37,111.91c-1.1,46.08,51,84.7,116.36,86.26S306,163.64,307.08,117.56s-51-84.71-116.37-86.26S71.47,65.83,70.37,111.91Z"/><ellipse class="cls-56" cx="188.72" cy="114.73" rx="82.71" ry="117.32" transform="translate(69.52 300.67) rotate(-88.63)"/><path class="cls-57" d="M72.5,112c-1.07,45.25,50.08,83.18,114.27,84.71s117.1-33.91,118.17-79.16S254.87,34.33,190.68,32.8,73.58,66.71,72.5,112Z"/><ellipse class="cls-58" cx="188.72" cy="114.73" rx="81.21" ry="115.19" transform="translate(69.52 300.67) rotate(-88.63)"/><ellipse class="cls-59" cx="188.72" cy="114.73" rx="80.45" ry="114.12" transform="translate(69.52 300.67) rotate(-88.63)"/><path class="cls-60" d="M75.7,112c-1,44,48.7,80.88,111.12,82.37s113.88-33,114.93-77-48.7-80.89-111.12-82.38S76.75,68,75.7,112Z"/><path class="cls-61" d="M76.77,112.06c-1,43.59,48.24,80.13,110.07,81.6S299.64,161,300.68,117.4,252.44,37.28,190.61,35.81,77.81,68.47,76.77,112.06Z"/><path class="cls-62" d="M77.84,112.09c-1,43.17,47.78,79.36,109,80.82s111.72-32.36,112.75-75.53S251.83,38,190.59,36.56,78.87,68.91,77.84,112.09Z"/><path class="cls-63" d="M78.9,112.11c-1,42.76,47.32,78.6,108,80.05s110.65-32,111.67-74.81-47.32-78.59-108-80S79.92,69.35,78.9,112.11Z"/><ellipse class="cls-64" cx="188.72" cy="114.73" rx="76.69" ry="108.79" transform="translate(69.52 300.67) rotate(-88.63)"/><ellipse class="cls-65" cx="188.72" cy="114.73" rx="75.94" ry="107.72" transform="translate(69.52 300.67) rotate(-88.63)"/><ellipse class="cls-66" cx="188.72" cy="114.73" rx="75.19" ry="106.65" transform="translate(69.52 300.67) rotate(-88.63)"/><path class="cls-67" d="M83.17,112.21c-1,41.1,45.48,75.55,103.78,76.94s106.35-30.8,107.33-71.9S248.8,41.71,190.5,40.32,84.15,71.11,83.17,112.21Z"/><path class="cls-68" d="M84.23,112.24c-1,40.68,45,74.78,102.74,76.16s105.28-30.49,106.25-71.17-45-74.79-102.74-76.16S85.2,71.56,84.23,112.24Z"/><path class="cls-69" d="M85.3,112.27c-1,40.26,44.57,74,101.69,75.38s104.2-30.18,105.16-70.45-44.57-74-101.69-75.38S86.26,72,85.3,112.27Z"/><path class="cls-70" d="M86.37,112.29c-1,39.86,44.1,73.26,100.63,74.61S290.13,157,291.08,117.17,247,43.92,190.45,42.57,87.32,72.44,86.37,112.29Z"/><path class="cls-71" d="M87.43,112.32c-.94,39.44,43.65,72.49,99.59,73.82s102.06-29.55,103-69-43.65-72.49-99.59-73.83S88.37,72.88,87.43,112.32Z"/><ellipse class="cls-72" cx="188.72" cy="114.73" rx="70.68" ry="100.25" transform="translate(69.52 300.67) rotate(-88.63)"/><path class="cls-73" d="M89.56,112.37c-.92,38.61,42.73,71,97.5,72.27S287,155.71,287.89,117.1s-42.73-71-97.5-72.27S90.49,73.76,89.56,112.37Z"/><ellipse class="cls-74" cx="188.72" cy="114.73" rx="69.17" ry="98.12" transform="translate(69.52 300.67) rotate(-88.63)"/><path class="cls-75" d="M91.7,112.42c-.9,37.78,41.81,69.44,95.39,70.72s97.76-28.31,98.66-66.09-41.81-69.44-95.39-70.72S92.6,74.64,91.7,112.42Z"/><ellipse class="cls-76" cx="188.72" cy="114.73" rx="67.67" ry="95.99" transform="translate(69.52 300.67) rotate(-88.63)"/><ellipse class="cls-77" cx="188.72" cy="114.73" rx="66.92" ry="94.92" transform="translate(69.52 300.67) rotate(-88.63)"/><ellipse class="cls-78" cx="188.72" cy="114.73" rx="66.17" ry="93.86" transform="translate(69.52 300.67) rotate(-88.63)"/><ellipse class="cls-79" cx="188.72" cy="114.73" rx="65.42" ry="92.79" transform="translate(69.52 300.67) rotate(-88.63)"/><path class="cls-80" d="M97,112.54c-.85,35.71,39.51,65.63,90.15,66.84s92.39-26.76,93.24-62.46S240.91,51.3,190.27,50.09,97.88,76.84,97,112.54Z"/><path class="cls-81" d="M98.09,112.57c-.84,35.29,39.06,64.86,89.11,66.06s91.31-26.45,92.15-61.74-39.05-64.86-89.1-66S98.94,77.28,98.09,112.57Z"/><path class="cls-82" d="M99.16,112.6c-.83,34.87,38.59,64.09,88.06,65.27s90.24-26.13,91.07-61-38.59-64.1-88.06-65.28S100,77.72,99.16,112.6Z"/><ellipse class="cls-83" cx="188.72" cy="114.73" rx="62.41" ry="88.52" transform="translate(69.52 300.67) rotate(-88.63)"/><ellipse class="cls-84" cx="188.72" cy="114.73" rx="61.66" ry="87.46" transform="translate(69.52 300.67) rotate(-88.63)"/><ellipse class="cls-85" cx="188.72" cy="114.73" rx="60.9" ry="86.39" transform="translate(69.52 300.67) rotate(-88.63)"/><path class="cls-86" d="M103.43,112.7c-.8,33.21,36.75,61,83.86,62.17S273.23,150,274,116.77s-36.75-61-83.86-62.17S104.22,79.49,103.43,112.7Z"/><ellipse class="cls-87" cx="188.72" cy="114.73" rx="59.4" ry="84.26" transform="translate(69.52 300.67) rotate(-88.63)"/><ellipse class="cls-88" cx="188.72" cy="114.73" rx="58.65" ry="83.19" transform="translate(69.52 300.67) rotate(-88.63)"/><path class="cls-89" d="M106.62,112.77c-.76,32,35.38,58.76,80.72,59.84s82.72-24,83.49-55.92-35.38-58.76-80.72-59.84S107.39,80.81,106.62,112.77Z"/><ellipse class="cls-90" cx="188.72" cy="114.73" rx="57.14" ry="81.06" transform="translate(69.52 300.67) rotate(-88.63)"/><ellipse class="cls-91" cx="188.72" cy="114.73" rx="56.39" ry="79.99" transform="translate(69.52 300.67) rotate(-88.63)"/><ellipse class="cls-92" cx="188.72" cy="114.73" rx="55.64" ry="78.92" transform="translate(69.52 300.67) rotate(-88.63)"/><path class="cls-93" d="M110.89,112.88c-.72,30.3,33.54,55.7,76.53,56.73s78.42-22.71,79.14-53S233,60.88,190,59.86,111.61,82.57,110.89,112.88Z"/><path class="cls-94" d="M112,112.9c-.72,29.89,33.07,54.94,75.47,55.95s77.35-22.39,78.06-52.29S232.41,61.62,190,60.61,112.67,83,112,112.9Z"/><path class="cls-95" d="M113,112.93c-.7,29.47,32.62,54.18,74.43,55.17s76.27-22.09,77-51.56S231.81,62.36,190,61.36,113.73,83.45,113,112.93Z"/><path class="cls-96" d="M114.09,113c-.7,29.06,32.16,53.42,73.38,54.4s75.2-21.78,75.89-50.84S231.2,63.1,190,62.11,114.78,83.89,114.09,113Z"/><path class="cls-97" d="M115.15,113c-.68,28.64,31.71,52.65,72.34,53.62s74.12-21.47,74.81-50.11S230.59,63.84,190,62.87,115.84,84.33,115.15,113Z"/><path class="cls-98" d="M116.22,113c-.67,28.23,31.24,51.89,71.29,52.85s73.05-21.16,73.72-49.39S230,64.57,189.94,63.62,116.89,84.77,116.22,113Z"/><ellipse class="cls-99" cx="188.72" cy="114.73" rx="50.38" ry="71.46" transform="translate(69.52 300.67) rotate(-88.63)"/><path class="cls-100" d="M118.35,113.05c-.65,27.4,30.33,50.37,69.19,51.29s70.9-20.53,71.56-47.93-30.33-50.36-69.19-51.29S119,85.65,118.35,113.05Z"/><path class="cls-101" d="M119.42,113.08c-.64,27,29.86,49.6,68.14,50.51s69.83-20.22,70.47-47.2-29.86-49.6-68.14-50.52S120.06,86.09,119.42,113.08Z"/><path class="cls-102" d="M120.49,113.1c-.64,26.57,29.4,48.84,67.09,49.74s68.75-19.91,69.38-46.48-29.4-48.84-67.09-49.74S121.12,86.54,120.49,113.1Z"/><path class="cls-103" d="M121.55,113.13c-.62,26.15,29,48.07,66,49s67.68-19.6,68.31-45.75-29-48.08-66.05-49S122.18,87,121.55,113.13Z"/><path class="cls-104" d="M122.62,113.16c-.62,25.74,28.48,47.31,65,48.18s66.61-19.29,67.22-45-28.48-47.31-65-48.18S123.23,87.42,122.62,113.16Z"/><path class="cls-105" d="M123.68,113.18c-.6,25.33,28,46.55,63.95,47.41s65.53-19,66.13-44.31-28-46.54-63.94-47.4S124.29,87.86,123.68,113.18Z"/><ellipse class="cls-106" cx="188.72" cy="114.73" rx="45.11" ry="63.99" transform="translate(69.52 300.67) rotate(-88.63)"/><path class="cls-107" d="M125.82,113.23c-.59,24.5,27.1,45,61.85,45.85s63.38-18.35,64-42.85-27.1-45-61.85-45.85S126.4,88.74,125.82,113.23Z"/><path class="cls-108" d="M126.88,113.26c-.57,24.08,26.65,44.26,60.81,45.07s62.3-18,62.88-42.12S223.92,72,189.77,71.14,127.46,89.18,126.88,113.26Z"/><path class="cls-109" d="M128,113.28c-.57,23.67,26.19,43.5,59.75,44.3s61.24-17.73,61.8-41.4-26.19-43.49-59.75-44.29S128.51,89.62,128,113.28Z"/><path class="cls-110" d="M129,113.31c-.56,23.25,25.72,42.73,58.7,43.52s60.16-17.42,60.71-40.67-25.72-42.74-58.7-43.52S129.57,90.06,129,113.31Z"/><ellipse class="cls-111" cx="188.72" cy="114.73" rx="41.35" ry="58.66" transform="translate(69.52 300.67) rotate(-88.63)"/><path class="cls-112" d="M131.15,113.36c-.54,22.42,24.81,41.21,56.61,42s58-16.8,58.54-39.21-24.81-41.21-56.61-42S131.68,90.94,131.15,113.36Z"/><path class="cls-113" d="M132.21,113.39c-.52,22,24.35,40.44,55.56,41.18s56.94-16.49,57.47-38.49-24.35-40.44-55.57-41.19S132.74,91.38,132.21,113.39Z"/><path class="cls-114" d="M133.28,113.41c-.51,21.59,23.89,39.68,54.51,40.41s55.86-16.18,56.38-37.76-23.89-39.68-54.51-40.41S133.8,91.82,133.28,113.41Z"/><path class="cls-115" d="M134.35,113.44c-.51,21.17,23.43,38.91,53.46,39.63s54.79-15.87,55.29-37S219.67,77.11,189.64,76.4,134.85,92.26,134.35,113.44Z"/><path class="cls-116" d="M135.41,113.46c-.49,20.76,23,38.15,52.42,38.86S241.54,136.76,242,116s-23-38.16-52.42-38.86S135.91,92.7,135.41,113.46Z"/><path class="cls-117" d="M136.48,113.49c-.49,20.34,22.51,37.39,51.37,38.08S240.49,136.32,241,116,218.46,78.59,189.6,77.9,137,93.14,136.48,113.49Z"/><path class="cls-118" d="M137.55,113.51c-.48,19.93,22,36.63,50.31,37.3s51.57-14.93,52-34.86-22.05-36.62-50.31-37.3S138,93.58,137.55,113.51Z"/><path class="cls-119" d="M138.61,113.54c-.46,19.51,21.6,35.86,49.27,36.52s50.49-14.62,51-34.13-21.6-35.87-49.27-36.53S139.08,94,138.61,113.54Z"/><path class="cls-120" d="M139.68,113.56c-.46,19.1,21.13,35.1,48.22,35.75S237.32,135,237.77,115.9s-21.13-35.1-48.22-35.75S140.13,94.47,139.68,113.56Z"/><path class="cls-121" d="M140.74,113.59c-.44,18.68,20.68,34.34,47.18,35s48.34-14,48.79-32.68-20.68-34.34-47.18-35S141.19,94.91,140.74,113.59Z"/><path class="cls-122" d="M141.81,113.61c-.44,18.27,20.22,33.58,46.13,34.2s47.26-13.69,47.7-32-20.22-33.57-46.13-34.19S142.25,95.35,141.81,113.61Z"/><path class="cls-123" d="M142.88,113.64c-.43,17.85,19.75,32.81,45.07,33.42s46.2-13.38,46.62-31.23S214.82,83,189.5,82.41,143.3,95.79,142.88,113.64Z"/><path class="cls-124" d="M143.94,113.66c-.41,17.44,19.3,32.05,44,32.64s45.12-13.06,45.54-30.5-19.3-32-44-32.64S144.36,96.23,143.94,113.66Z"/><path class="cls-125" d="M145,113.69c-.41,17,18.84,31.29,43,31.86s44-12.75,44.45-29.77-18.84-31.29-43-31.87S145.42,96.67,145,113.69Z"/><path class="cls-126" d="M146.08,113.72c-.4,16.6,18.37,30.52,41.93,31.08s43-12.44,43.36-29.05S213,85.23,189.44,84.67,146.47,97.11,146.08,113.72Z"/><path class="cls-127" d="M147.14,113.74c-.38,16.19,17.92,29.76,40.89,30.31s41.89-12.13,42.28-28.32S212.39,86,189.42,85.42,147.53,97.55,147.14,113.74Z"/><path class="cls-128" d="M148.21,113.77c-.38,15.77,17.46,29,39.83,29.53s40.83-11.83,41.2-27.6-17.46-29-39.83-29.53S148.58,98,148.21,113.77Z"/><path class="cls-129" d="M149.27,113.79c-.36,15.36,17,28.24,38.79,28.76s39.75-11.52,40.12-26.88-17-28.23-38.79-28.75S149.64,98.43,149.27,113.79Z"/><path class="cls-130" d="M150.34,113.82c-.36,14.94,16.54,27.47,37.74,28s38.67-11.2,39-26.14-16.54-27.47-37.74-28S150.7,98.87,150.34,113.82Z"/><path class="cls-131" d="M151.41,113.84c-.35,14.53,16.08,26.71,36.69,27.2s37.6-10.89,37.94-25.42S210,88.92,189.35,88.42,151.75,99.31,151.41,113.84Z"/><path class="cls-132" d="M152.47,113.87c-.33,14.11,15.62,25.94,35.64,26.42S224.64,129.71,225,115.6s-15.62-25.95-35.65-26.43S152.81,99.75,152.47,113.87Z"/><path class="cls-133" d="M153.54,113.89c-.33,13.7,15.16,25.18,34.59,25.65s35.45-10.27,35.78-24-15.16-25.18-34.59-25.64S153.87,100.19,153.54,113.89Z"/><path class="cls-134" d="M154.61,113.92c-.32,13.28,14.7,24.42,33.54,24.87s34.38-10,34.69-23.24-14.7-24.42-33.54-24.87S154.92,100.63,154.61,113.92Z"/><path class="cls-135" d="M155.67,113.94c-.31,12.87,14.24,23.66,32.5,24.1s33.3-9.65,33.61-22.52-14.24-23.65-32.5-24.09S156,101.07,155.67,113.94Z"/><path class="cls-136" d="M156.74,114c-.3,12.45,13.78,22.89,31.45,23.31s32.22-9.33,32.52-21.78-13.78-22.9-31.45-23.32S157,101.52,156.74,114Z"/><path class="cls-137" d="M157.8,114c-.28,12,13.33,22.12,30.4,22.53s31.16-9,31.45-21.06-13.33-22.13-30.4-22.54S158.09,102,157.8,114Z"/><path class="cls-138" d="M158.87,114c-.28,11.62,12.86,21.37,29.35,21.76s30.08-8.71,30.36-20.34-12.86-21.36-29.35-21.75S159.15,102.4,158.87,114Z"/><path class="cls-139" d="M159.94,114.05c-.27,11.21,12.4,20.6,28.3,21s29-8.4,29.27-19.61-12.4-20.6-28.3-21S160.2,102.84,159.94,114.05Z"/><path class="cls-140" d="M161,114.07c-.26,10.79,11.95,19.84,27.26,20.21s27.93-8.09,28.19-18.89-11.95-19.84-27.26-20.2S161.26,103.28,161,114.07Z"/><path class="cls-141" d="M162.07,114.1c-.25,10.38,11.48,19.07,26.21,19.42s26.85-7.77,27.1-18.15-11.49-19.08-26.21-19.43S162.32,103.72,162.07,114.1Z"/><path class="cls-142" d="M163.14,114.12c-.24,10,11,18.32,25.15,18.65s25.79-7.46,26-17.43-11-18.31-25.15-18.65S163.37,104.16,163.14,114.12Z"/><path class="cls-143" d="M164.2,114.15C164,123.7,174.77,131.7,188.31,132s24.71-7.15,24.94-16.7-10.57-17.55-24.11-17.88S164.43,104.6,164.2,114.15Z"/><path class="cls-144" d="M165.27,114.17c-.22,9.14,10.11,16.79,23.06,17.1s23.63-6.84,23.85-16S202.07,98.5,189.12,98.2,165.49,105,165.27,114.17Z"/><path class="cls-145" d="M166.33,114.2c-.2,8.72,9.65,16,22,16.32s22.56-6.54,22.77-15.25-9.65-16-22-16.32S166.54,105.48,166.33,114.2Z"/><path class="cls-146" d="M167.4,114.22c-.2,8.31,9.19,15.27,21,15.55s21.48-6.23,21.68-14.53-9.19-15.26-21-15.54S167.6,105.92,167.4,114.22Z"/><path class="cls-147" d="M168.47,114.25c-.19,7.89,8.73,14.5,19.91,14.76s20.42-5.91,20.6-13.79-8.73-14.5-19.91-14.77S168.65,106.36,168.47,114.25Z"/><path class="cls-148" d="M169.53,114.27c-.18,7.48,8.27,13.74,18.87,14s19.34-5.6,19.52-13.07-8.27-13.73-18.87-14S169.71,106.8,169.53,114.27Z"/><path class="cls-149" d="M170.6,114.3c-.17,7.06,7.81,13,17.82,13.21s18.26-5.29,18.43-12.35S199,102.19,189,102,170.77,107.24,170.6,114.3Z"/><path class="cls-150" d="M171.66,114.33c-.15,6.64,7.36,12.21,16.78,12.43s17.19-5,17.34-11.62-7.35-12.21-16.77-12.43S171.82,107.68,171.66,114.33Z"/><path class="cls-151" d="M172.73,114.35c-.15,6.23,6.89,11.45,15.73,11.66s16.11-4.67,16.26-10.9-6.89-11.44-15.73-11.65S172.88,108.12,172.73,114.35Z"/><path class="cls-152" d="M173.8,114.38c-.14,5.81,6.43,10.68,14.67,10.88s15-4.36,15.18-10.17-6.43-10.68-14.67-10.88S173.94,108.56,173.8,114.38Z"/><path class="cls-153" d="M174.86,114.4c-.12,5.4,6,9.92,13.63,10.1s14-4,14.1-9.44-6-9.92-13.63-10.1S175,109,174.86,114.4Z"/><path class="cls-154" d="M175.93,114.43c-.12,5,5.51,9.15,12.58,9.32s12.89-3.73,13-8.71-5.51-9.16-12.58-9.33S176.05,109.45,175.93,114.43Z"/><path class="cls-155" d="M177,114.45c-.11,4.57,5.05,8.4,11.53,8.55s11.81-3.42,11.92-8-5-8.39-11.53-8.55S177.11,109.89,177,114.45Z"/><path class="cls-156" d="M178.06,114.48c-.1,4.15,4.6,7.63,10.49,7.77s10.74-3.11,10.84-7.26-4.6-7.63-10.49-7.77S178.16,110.33,178.06,114.48Z"/><path class="cls-157" d="M179.13,114.5c-.09,3.74,4.13,6.87,9.43,7s9.67-2.8,9.76-6.54-4.13-6.87-9.43-7S179.22,110.77,179.13,114.5Z"/><path class="cls-158" d="M180.19,114.53c-.07,3.32,3.68,6.1,8.39,6.22s8.6-2.49,8.67-5.81-3.67-6.11-8.38-6.22S180.27,111.21,180.19,114.53Z"/><path class="cls-159" d="M181.26,114.55c-.07,2.91,3.22,5.35,7.34,5.44s7.52-2.17,7.59-5.08-3.22-5.34-7.34-5.44S181.33,111.65,181.26,114.55Z"/><path class="cls-160" d="M182.33,114.58c-.06,2.49,2.75,4.58,6.29,4.66s6.44-1.86,6.5-4.35-2.75-4.58-6.29-4.67S182.39,112.09,182.33,114.58Z"/><path class="cls-161" d="M183.39,114.61c0,2.07,2.3,3.81,5.24,3.88s5.38-1.55,5.43-3.63-2.3-3.82-5.25-3.89S183.44,112.53,183.39,114.61Z"/><path class="cls-162" d="M184.46,114.63c0,1.66,1.84,3.05,4.19,3.11s4.3-1.24,4.34-2.91-1.84-3-4.19-3.1S184.5,113,184.46,114.63Z"/><path class="cls-163" d="M185.53,114.66c0,1.24,1.37,2.29,3.14,2.33s3.22-.94,3.25-2.18-1.37-2.29-3.14-2.33S185.56,113.41,185.53,114.66Z"/><path class="cls-164" d="M186.59,114.68c0,.83.92,1.53,2.1,1.56s2.15-.63,2.17-1.46-.92-1.52-2.1-1.55S186.61,113.85,186.59,114.68Z"/><path class="cls-165" d="M187.66,114.71c0,.41.46.76,1.05.77s1.07-.31,1.08-.72-.46-.76-1-.78S187.67,114.29,187.66,114.71Z"/></g></g><path class="cls-166" d="M158.54,116.43c-.16,10.95,19.46,20.13,43.84,20.5s44.28-8.19,44.45-19.14S227.37,97.66,203,97.29,158.71,105.48,158.54,116.43Z"/><path class="cls-167" d="M594.85,386.84s-16,17.64-32.58,18.51-20.86-16.25-20.86-16.25-1.9,14,12.91,29.31C554.32,418.41,584,407.63,594.85,386.84Z"/><path class="cls-168" d="M37.66,403.32a88.92,88.92,0,0,0,18.76,8.88s9.66-13.21,7.74-30.75c0,0-1.28-3-3.41-7.35C60.75,374.1,61.47,392,37.66,403.32Z"/><path class="cls-6" d="M301.1,432.79a26.24,26.24,0,1,0,15.51-33.71A26.24,26.24,0,0,0,301.1,432.79Z"/><path class="cls-8" d="M310.24,429.41A16.49,16.49,0,1,0,320,408.22,16.5,16.5,0,0,0,310.24,429.41Z"/><path class="cls-6" d="M411.65,355.75s-24.51,27.63-40.91-16.69C370.74,339.06,400.3,351.52,411.65,355.75Z"/><path class="cls-15" d="M304.21,704.89a390.14,390.14,0,0,0,53.63-4l-.31-2c-.89.13-89.08,13.46-114.75-9.88l-1.38,1.52C253.92,701.84,279.93,704.89,304.21,704.89Z"/><path class="cls-15" d="M423,699.59l2-.2a154.18,154.18,0,0,1,4.4-47.33c10.15-39.43,62.07-88.26,62.6-88.75l-1.4-1.5c-.53.49-52.89,49.72-63.18,89.74A156.24,156.24,0,0,0,423,699.59Z"/><path class="cls-15" d="M527.09,472.87l1.78-1c-45.51-78.53-8.49-104.78-8.11-105l-1.14-1.7C519.22,365.38,480.56,392.56,527.09,472.87Z"/><path class="cls-15" d="M106.41,467.37C139.22,419.79,89.74,362.54,89.24,362l-1.54,1.35c.49.56,48.92,56.63,17,102.89Z"/><path class="cls-24" d="M345.61,499.21s2.16,6.37,8.62,15.65l11.2-5.52s-3.34-9.28-11.17-14.26Z"/><path class="cls-24" d="M496.12,374.87a27.45,27.45,0,0,1-12.91.8l-4.63,5.69s9.49,5.49,16.23.28Z"/><path class="cls-24" d="M526.37,654.1s7.7,6,10.79,14.3l-7.6,6.78L520,660.68Z"/><path class="cls-24" d="M71.59,357.26s5.5,2.31,9.32,9.38l8.48,1.61a32.11,32.11,0,0,0-5.27-6C81,359.53,71.59,357.26,71.59,357.26Z"/><path class="cls-24" d="M254,714.91s-4.72,20.93-2.62,30.92l-9-.18s-3.54-15.4,1.26-30.1Z"/><path class="cls-24" d="M303.4,26.18S253.2,7.77,221.12,8.94C221.12,8.94,334.55-6.35,303.4,26.18Z"/><polygon class="cls-24" points="369.21 138.33 350.2 133.3 345.64 154.02 363.99 157.25 369.21 138.33"/></g></g></svg>