<svg xmlns="http://www.w3.org/2000/svg" xmlns:xlink="http://www.w3.org/1999/xlink" viewBox="0 0 534.33 460.39"><defs><style>.cls-1{isolation:isolate;}.cls-2{fill:url(#linear-gradient);}.cls-3{fill:#ff7c76;}.cls-4{fill:#9185e7;}.cls-10,.cls-4{opacity:0.5;}.cls-15,.cls-16,.cls-17,.cls-4{mix-blend-mode:multiply;}.cls-5{fill:url(#linear-gradient-2);}.cls-6{fill:url(#linear-gradient-3);}.cls-10,.cls-11,.cls-12,.cls-7,.cls-9{fill:#fff;}.cls-7{opacity:0.35;}.cls-10,.cls-11,.cls-7,.cls-9{mix-blend-mode:overlay;}.cls-8{mix-blend-mode:color-burn;fill:url(#linear-gradient-4);}.cls-9{opacity:0.25;}.cls-11{opacity:0.85;}.cls-13{fill:url(#linear-gradient-5);}.cls-14{fill:url(#linear-gradient-6);}.cls-15{fill:#9378c9;}.cls-16{fill:url(#linear-gradient-7);}.cls-17{fill:url(#linear-gradient-8);}.cls-18,.cls-20,.cls-22{opacity:0.55;mix-blend-mode:color-dodge;}.cls-18{fill:url(#radial-gradient);}.cls-19{fill:url(#linear-gradient-9);}.cls-20{fill:url(#radial-gradient-2);}.cls-21{fill:url(#linear-gradient-10);}.cls-22{fill:url(#radial-gradient-3);}.cls-23{fill:url(#linear-gradient-11);}.cls-24{fill:#391160;}.cls-25{fill:url(#linear-gradient-12);}</style><linearGradient id="linear-gradient" x1="68.14" y1="382.74" x2="145.42" y2="382.74" gradientUnits="userSpaceOnUse"><stop offset="0.01" stop-color="#f94e41"/><stop offset="0.12" stop-color="#f2483b"/><stop offset="0.68" stop-color="#d62e21"/><stop offset="1" stop-color="#cc2417"/></linearGradient><linearGradient id="linear-gradient-2" x1="372.24" y1="382.74" x2="449.52" y2="382.74" gradientTransform="matrix(-1, 0, 0, 1, 838.43, 0)" xlink:href="#linear-gradient"/><linearGradient id="linear-gradient-3" x1="92.98" y1="85.98" x2="838.12" y2="85.98" gradientUnits="userSpaceOnUse"><stop offset="0" stop-color="#55fbff"/><stop offset="0.34" stop-color="#3dcff3"/><stop offset="0.99" stop-color="#0b73db"/></linearGradient><linearGradient id="linear-gradient-4" x1="92.98" y1="97.38" x2="838.12" y2="97.38" gradientUnits="userSpaceOnUse"><stop offset="0" stop-color="#fff"/><stop offset="0.15" stop-color="#dfdfe5"/><stop offset="0.47" stop-color="#8f8ca2"/><stop offset="0.95" stop-color="#0f0939"/><stop offset="0.98" stop-color="#060032"/></linearGradient><linearGradient id="linear-gradient-5" x1="-26.54" y1="206.34" x2="504.24" y2="267.88" gradientUnits="userSpaceOnUse"><stop offset="0" stop-color="#998ce6"/><stop offset="0.3" stop-color="#ffe6dc"/><stop offset="0.41" stop-color="#f5dddd"/><stop offset="0.61" stop-color="#d9c4e0"/><stop offset="0.86" stop-color="#ab9ce4"/><stop offset="0.99" stop-color="#9185e7"/></linearGradient><linearGradient id="linear-gradient-6" y1="305.21" x2="534.33" y2="305.21" gradientUnits="userSpaceOnUse"><stop offset="0" stop-color="#7a35bc"/><stop offset="0.99" stop-color="#9185e7"/></linearGradient><linearGradient id="linear-gradient-7" x1="419.06" y1="373.36" x2="419.06" y2="256.54" gradientUnits="userSpaceOnUse"><stop offset="0" stop-color="#fff"/><stop offset="0.16" stop-color="#edeafa"/><stop offset="0.54" stop-color="#c5bcef"/><stop offset="0.83" stop-color="#ada0e8"/><stop offset="1" stop-color="#a496e5"/></linearGradient><linearGradient id="linear-gradient-8" x1="148.93" y1="248" x2="534.33" y2="248" xlink:href="#linear-gradient-7"/><radialGradient id="radial-gradient" cx="273.56" cy="276.3" r="21.31" gradientUnits="userSpaceOnUse"><stop offset="0" stop-color="#fff"/><stop offset="1"/></radialGradient><linearGradient id="linear-gradient-9" x1="273.56" y1="265.99" x2="273.56" y2="286.61" gradientUnits="userSpaceOnUse"><stop offset="0" stop-color="#55fbff"/><stop offset="0.23" stop-color="#53f8fe"/><stop offset="0.4" stop-color="#4eeffc"/><stop offset="0.55" stop-color="#46dff8"/><stop offset="0.68" stop-color="#3ac9f2"/><stop offset="0.81" stop-color="#2aacea"/><stop offset="0.92" stop-color="#178ae1"/><stop offset="0.99" stop-color="#0b73db"/></linearGradient><radialGradient id="radial-gradient-2" cx="71.02" cy="257.64" r="21.31" xlink:href="#radial-gradient"/><linearGradient id="linear-gradient-10" x1="71.02" y1="247.33" x2="71.02" y2="267.96" xlink:href="#linear-gradient-9"/><radialGradient id="radial-gradient-3" cx="455.31" cy="257.7" r="21.31" xlink:href="#radial-gradient"/><linearGradient id="linear-gradient-11" x1="455.31" y1="247.39" x2="455.31" y2="268.01" xlink:href="#linear-gradient-9"/><linearGradient id="linear-gradient-12" x1="253.86" y1="395.62" x2="289.62" y2="395.62" xlink:href="#linear-gradient"/></defs><title>spaceship1</title><g class="cls-1"><g id="Layer_1" data-name="Layer 1"><path class="cls-2" d="M145.42,342.17a132.86,132.86,0,0,0-34.09,34.65C99.67,394.2,90.76,417.62,95.93,446A4.79,4.79,0,0,1,87,449.19c-13.53-24.31-27.5-62.58-12.21-101.08,4.51-11.55,11.77-23.1,22.44-34.32Z"/><path class="cls-3" d="M104.61,323l37.08,21.9c2.25-1.69,3.7-2.65,3.7-2.65L97.27,313.78C51,362.46,69.41,417.59,87,449.17a4.63,4.63,0,0,0,3.79,2.46C74.57,419.35,61.48,368.35,104.61,323Z"/><path class="cls-4" d="M145.42,342.17a132.86,132.86,0,0,0-34.09,34.65c-12.21-12.54-27.17-22.77-36.52-28.71,4.51-11.55,11.77-23.1,22.44-34.32Z"/><path class="cls-5" d="M388.91,342.17A133,133,0,0,1,423,376.82c11.66,17.38,20.57,40.8,15.4,69.18a4.79,4.79,0,0,0,8.91,3.19c13.53-24.31,27.49-62.58,12.21-101.08-4.51-11.55-11.77-23.1-22.44-34.32Z"/><path class="cls-3" d="M429.73,323l-37.08,21.9c-2.25-1.69-3.71-2.65-3.71-2.65l48.12-28.42c46.24,48.68,27.86,103.81,10.28,135.39a4.64,4.64,0,0,1-3.8,2.46C459.77,419.35,472.86,368.35,429.73,323Z"/><path class="cls-4" d="M388.91,342.17A133,133,0,0,1,423,376.82c12.21-12.54,27.17-22.77,36.52-28.71-4.51-11.55-11.77-23.1-22.44-34.32Z"/><path class="cls-6" d="M446,133.21c-45.54,29.3-110.3,38.46-173.47,38.65,0,.09-5.94.09-5.94.09-48.83-.28-98.73-5.72-139.92-21.85A181.61,181.61,0,0,1,93,133.21a75.45,75.45,0,0,1,1.38-9.35,139.19,139.19,0,0,1,5.3-19C113,67.94,152.21,7.16,266.55.38V0c.95,0,1.91.1,3,.19,1-.09,1.91-.19,3-.19V.38c38.65,2.29,68.69,10.78,92.15,22.43C441.29,60.88,446,133.21,446,133.21Z"/><path class="cls-7" d="M411.73,131.67c-37.62,26.37-91.12,34.62-143.3,34.79,0,.09-4.91.09-4.91.09-52.18-.26-105.77-8.51-143.39-34.88a72.73,72.73,0,0,1,1.14-8.41c4.82-26,28.59-103.85,142.25-111.15v-.34a23.86,23.86,0,0,1,2.45.17,21.12,21.12,0,0,1,2.46-.17v.34c31.92,2.06,56.74,9.71,76.12,20.19C407.88,66.57,411.73,131.67,411.73,131.67Z"/><path class="cls-8" d="M446,133.21c-45.54,29.3-110.3,38.46-173.47,38.65,0,.09-5.94.09-5.94.09-63.06-.28-127.71-9.44-173.26-38.55-.1-.09-.21-.09-.31-.19a75.45,75.45,0,0,1,1.38-9.35C265.17,137.22,336,69.28,364.64,22.81,392.46,36.55,410.82,55,422.82,72.62,444.05,103.82,446,133.21,446,133.21Z"/><path class="cls-9" d="M150.61,60.05c-5.16,12.45-2.81,27.64,8.15,36.82C169,105.44,184.43,107.44,198.7,107a151.34,151.34,0,0,0,71-19.75c15.29-8.86,29.55-23,27-38.7-4-25.31-47.1-36.87-72.45-33.5C196.55,18.77,160.43,36.31,150.61,60.05Z"/><path class="cls-10" d="M163.85,58.59c-3.57,8.63-1.95,19.14,5.64,25.49,7.09,5.93,17.77,7.32,27.65,7a104.84,104.84,0,0,0,49.12-13.68c10.59-6.13,20.46-15.9,18.73-26.79-2.77-17.52-32.61-25.52-50.15-23.19C195.65,30,170.65,42.16,163.85,58.59Z"/><path class="cls-11" d="M446,133.21c-45.54,29.3-110.3,38.46-173.47,38.65,0,.09-5.94.09-5.94.09-63.06-.28-127.71-9.44-173.26-38.55,13.38-.66,35.25-.19,67.42,1.63C353.07,145.9,408,103.44,422.82,72.62,444.05,103.82,446,133.21,446,133.21Z"/><path class="cls-12" d="M230.71,33.64c4.15,6.46-1.05,16.15-11.63,21.64S196.56,60,192.4,53.52,193.46,37.36,204,31.87,226.56,27.17,230.71,33.64Z"/><path class="cls-12" d="M258.57,68.41c1.42,3.78-2.44,8.36-8.61,10.23s-12.34.34-13.75-3.44,2.43-8.35,8.61-10.23S257.15,64.64,258.57,68.41Z"/><path class="cls-13" d="M534.33,242l-21,19.47-9.79,9.13-40.7,37.72a222.16,222.16,0,0,1-141.34,59.4l-19.8.66c-10.89.22-22.43.22-34.53.11-19.69.22-38-.11-54.45-.77a221.9,221.9,0,0,1-141.23-59.4L51.81,290,21,261.44,0,242c.11-.11,58.41-99.76,58.41-99.76,6.15-10.67,18.25-16.06,30.46-14.19,5.94,1,12,1.87,17.93,2.64,14.19,2,28.27,3.63,42.13,4.84,11.44,1.1,22.77,2,34,2.53,27.94,1.54,55.11,1.87,81.07,1.43,0-.11,6.38-.11,6.38-.11q22.27.5,45.86,0a936.51,936.51,0,0,0,108.67-8.25c6.82-1,13.75-2,20.57-3.08a29.83,29.83,0,0,1,30.47,14.19l58.29,99.65Z"/><path class="cls-11" d="M77.27,133.32c6.33,1,12.77,1.87,19.1,2.64,15.11,2,30.11,3.63,44.87,4.84,12.18,1.1,24.24,2,36.19,2.53,29.76,1.54,58.69,1.87,86.34,1.43,0-.11,6.79-.11,6.79-.11q23.73.49,48.85,0a1061.06,1061.06,0,0,0,115.74-8.25c7.27-1,14.65-2,21.91-3.08a34.6,34.6,0,0,1,10.95.21A30.13,30.13,0,0,0,445.46,128c-6.82,1.1-13.75,2.09-20.57,3.08a936.51,936.51,0,0,1-108.67,8.25c-15.73.33-31,.33-45.86.11,0-.11-6.38-.11-6.38-.11-26,.55-53.13.22-81.07-1.32-11.21-.55-22.54-1.43-34-2.53-13.86-1.21-27.94-2.86-42.13-4.84-5.94-.77-12-1.65-17.93-2.64a30.2,30.2,0,0,0-22.62,5.51A35,35,0,0,1,77.27,133.32Z"/><path class="cls-9" d="M182.91,138,180.5,316.76,51.81,290,21,261.44,106.8,130.66c3.41.44,6.82,1,10.23,1.32,9.24,1.21,18.37,2.31,27.5,3.08C157.51,136.38,170.27,137.37,182.91,138Z"/><path class="cls-11" d="M144.53,135.06,131,287.4,46.75,267.27S103,172,123.24,133.22C132.48,134.43,135.4,134.29,144.53,135.06Z"/><path class="cls-14" d="M534.33,242l-70,64.89-6.27,5.83a204.86,204.86,0,0,1-120.66,54c-2.31.22-4.73.44-7,.55-18.59,1-39.92,1.54-63.24,1.21-23.32.33-44.66-.22-63.25-1.21h-.44a200.78,200.78,0,0,1-74.68-19,203.14,203.14,0,0,1-52.58-35.53L49.61,288,0,242c6.82,1.65,16.39,4.4,29,7.59,31.68,7.92,82.38,18.26,152.22,22.77q32.34,2.15,70.29,2.2c4.07,0,8.25-.11,12.43-.11h6.38c24.3.22,46.85-.22,67.86-1.21,74.13-3.74,128.14-14.3,162.46-22.55,14.85-3.63,26.06-6.82,33.54-8.8Z"/><path class="cls-15" d="M29,256c31.68,7.91,82.38,18.25,152.22,22.76q32.34,2.14,70.29,2.2c4.07,0,8.25-.11,12.43-.11h6.38c24.3.22,46.85-.22,67.86-1.21,74.13-3.74,128.14-14.3,162.46-22.54,9.63-2.36,17.57-4.49,24.12-6.26l9.53-8.85c-7.59,1.87-18.8,5.06-33.65,8.69-34.32,8.25-88.33,18.81-162.46,22.55-21,1-43.56,1.43-67.86,1.21H264c-4.18,0-8.36.11-12.43.11q-38,0-70.29-2.2C111.42,267.82,60.72,257.48,29,249.56c-12.65-3.19-22.22-5.94-28.93-7.7-.11.11,9.45,9,9.45,9C15,252.32,21.39,254.05,29,256Z"/><path class="cls-9" d="M203.48,367.25a200.78,200.78,0,0,1-74.68-19L29,249.56c31.68,7.92,82.38,18.26,152.22,22.77Z"/><path class="cls-16" d="M500.68,250.66,421.26,340a202.29,202.29,0,0,1-83.81,26.73l.77-93.49C412.35,269.47,466.36,258.91,500.68,250.66Z"/><path class="cls-17" d="M534.33,242l-21,19.47-9.79,9.13-40.7,37.72a222.16,222.16,0,0,1-141.34,59.4l-19.8.66c19.8-24.09,35.09-52.58,40.15-85.46,11.88-78.65-107.68-124.73-192.92-147.39,11.44,1.1,22.77,2,34,2.53,27.94,1.54,55.11,1.87,81.07,1.43,0-.11,6.38-.11,6.38-.11q22.27.5,45.86,0a936.51,936.51,0,0,0,108.67-8.25c6.82-1,13.75-2,20.57-3.08a29.83,29.83,0,0,1,30.47,14.19l58.29,99.65Z"/><path class="cls-18" d="M294.88,276.3A21.32,21.32,0,1,1,273.56,255,21.32,21.32,0,0,1,294.88,276.3Z"/><circle class="cls-19" cx="273.56" cy="276.3" r="10.31"/><path class="cls-10" d="M276.63,282.28c-1.38,2.38-4.89,2.93-7.85,1.22s-4.24-5-2.86-7.41,4.89-2.93,7.85-1.22S278,279.89,276.63,282.28Z"/><circle class="cls-20" cx="71.02" cy="257.64" r="21.31"/><path class="cls-21" d="M81.33,257.64A10.31,10.31,0,1,1,71,247.33,10.32,10.32,0,0,1,81.33,257.64Z"/><path class="cls-10" d="M74.08,263.62c-1.37,2.39-4.89,2.94-7.85,1.23s-4.24-5-2.86-7.41,4.89-2.94,7.85-1.23S75.46,261.24,74.08,263.62Z"/><path class="cls-22" d="M476.62,257.7a21.31,21.31,0,1,1-21.31-21.31A21.31,21.31,0,0,1,476.62,257.7Z"/><path class="cls-23" d="M465.62,257.7a10.32,10.32,0,1,1-10.31-10.31A10.31,10.31,0,0,1,465.62,257.7Z"/><path class="cls-10" d="M458.37,263.68c-1.37,2.38-4.89,2.93-7.85,1.22s-4.24-5-2.86-7.41,4.89-2.93,7.85-1.22S459.75,261.3,458.37,263.68Z"/><path class="cls-9" d="M464.38,306.86l-6.27,5.83a204.86,204.86,0,0,1-120.66,54c-2.31.22-4.73.44-7,.55-18.59,1-39.92,1.54-63.24,1.21-23.32.33-44.66-.22-63.25-1.21h-.44a200.78,200.78,0,0,1-74.68-19,203.14,203.14,0,0,1-52.58-35.53L49.61,288c43.77,5.83,103.5,18.58,150.57,45.31C252.43,362.85,378.92,332.82,464.38,306.86Z"/><ellipse class="cls-24" cx="271.73" cy="341.05" rx="25.74" ry="16.04"/><path class="cls-25" d="M289.49,351.52l-12.42,105.7a3.46,3.46,0,0,1-4.62,3,3.2,3.2,0,0,1-2.42-2.86L254.08,352.18c-1.65-11.11,6.16-21.34,16.39-21.34H273C283,330.84,290.7,340.52,289.49,351.52Z"/><path class="cls-4" d="M289.49,351.52l-12.42,105.7a3.46,3.46,0,0,1-4.62,3c2.86-28.38-.55-106.91-2-129.35H273C283,330.84,290.7,340.52,289.49,351.52Z"/></g></g></svg>