<svg xmlns="http://www.w3.org/2000/svg" xmlns:xlink="http://www.w3.org/1999/xlink" viewBox="0 0 669.36 934.71"><defs><style>.cls-1{fill:none;}.cls-2{isolation:isolate;}.cls-3,.cls-4{fill:#cab3da;}.cls-10,.cls-11,.cls-12,.cls-13,.cls-14,.cls-16,.cls-167,.cls-168,.cls-17,.cls-18,.cls-20,.cls-21,.cls-22,.cls-23,.cls-4,.cls-5,.cls-6,.cls-7,.cls-8{fill-rule:evenodd;}.cls-5{fill:url(#Áåçûìÿííûé_ãðàäèåíò_25);}.cls-6{fill:#684d73;}.cls-15,.cls-17,.cls-7{fill:#53345f;}.cls-8,.cls-9{fill:#ff6b22;}.cls-10,.cls-16,.cls-167,.cls-168,.cls-17,.cls-20,.cls-22,.cls-23,.cls-27{mix-blend-mode:multiply;}.cls-10{fill:url(#Áåçûìÿííûé_ãðàäèåíò_163);}.cls-11{fill:#311745;}.cls-12{fill:url(#Áåçûìÿííûé_ãðàäèåíò_436);}.cls-13{fill:url(#Áåçûìÿííûé_ãðàäèåíò_25-2);}.cls-14{fill:url(#Áåçûìÿííûé_ãðàäèåíò_436-2);}.cls-16{fill:url(#Áåçûìÿííûé_ãðàäèåíò_36);}.cls-17,.cls-27{opacity:0.5;}.cls-18{fill:url(#Áåçûìÿííûé_ãðàäèåíò_519);}.cls-19{fill:url(#Áåçûìÿííûé_ãðàäèåíò_93);}.cls-20{fill:url(#Áåçûìÿííûé_ãðàäèåíò_36-2);}.cls-21{fill:url(#Áåçûìÿííûé_ãðàäèåíò_20);}.cls-22{fill:url(#Áåçûìÿííûé_ãðàäèåíò_36-3);}.cls-23{fill:url(#Áåçûìÿííûé_ãðàäèåíò_36-4);}.cls-24{fill:#fff;}.cls-166,.cls-25{mix-blend-mode:screen;}.cls-26{clip-path:url(#clip-path);}.cls-27{fill:#a67c4c;}.cls-28{fill:#000001;}.cls-29{fill:#010101;}.cls-30{fill:#010102;}.cls-31{fill:#010103;}.cls-32{fill:#010204;}.cls-33{fill:#020205;}.cls-34{fill:#020206;}.cls-35{fill:#020306;}.cls-36{fill:#030307;}.cls-37{fill:#030308;}.cls-38{fill:#030409;}.cls-39{fill:#04040a;}.cls-40{fill:#04040b;}.cls-41{fill:#05050c;}.cls-42{fill:#05050d;}.cls-43{fill:#05050e;}.cls-44{fill:#06060e;}.cls-45{fill:#06060f;}.cls-46{fill:#060710;}.cls-47{fill:#070711;}.cls-48{fill:#070712;}.cls-49{fill:#070813;}.cls-50{fill:#080814;}.cls-51{fill:#080815;}.cls-52{fill:#090916;}.cls-53{fill:#090917;}.cls-54{fill:#090a18;}.cls-55{fill:#0a0a19;}.cls-56{fill:#0a0a1a;}.cls-57{fill:#0a0b1b;}.cls-58{fill:#0b0b1c;}.cls-59{fill:#0b0c1d;}.cls-60{fill:#0b0c1e;}.cls-61{fill:#0c0c1f;}.cls-62{fill:#0c0d1f;}.cls-63{fill:#0d0d20;}.cls-64{fill:#0d0d21;}.cls-65{fill:#0d0e22;}.cls-66{fill:#0e0e23;}.cls-67{fill:#0e0f24;}.cls-68{fill:#0f0f25;}.cls-69{fill:#0f0f26;}.cls-70{fill:#0f1027;}.cls-71{fill:#101028;}.cls-72{fill:#101129;}.cls-73{fill:#10112a;}.cls-74{fill:#11112b;}.cls-75{fill:#11122c;}.cls-76{fill:#12122d;}.cls-77{fill:#12132e;}.cls-78{fill:#12132f;}.cls-79{fill:#131330;}.cls-80{fill:#131431;}.cls-81{fill:#141432;}.cls-82{fill:#141533;}.cls-83{fill:#141534;}.cls-84{fill:#151635;}.cls-85{fill:#151636;}.cls-86{fill:#161637;}.cls-87{fill:#161738;}.cls-88{fill:#161739;}.cls-89{fill:#17183a;}.cls-90{fill:#17183b;}.cls-91{fill:#18183d;}.cls-92{fill:#18193e;}.cls-93{fill:#18193f;}.cls-94{fill:#191a40;}.cls-95{fill:#191a41;}.cls-96{fill:#1a1a42;}.cls-97{fill:#1a1b43;}.cls-98{fill:#1a1b44;}.cls-99{fill:#1b1c45;}.cls-100{fill:#1b1c46;}.cls-101{fill:#1c1d47;}.cls-102{fill:#1c1d48;}.cls-103{fill:#1c1d49;}.cls-104{fill:#1d1e4a;}.cls-105{fill:#1d1e4b;}.cls-106{fill:#1e1f4c;}.cls-107{fill:#1e1f4d;}.cls-108{fill:#1e1f4e;}.cls-109{fill:#1f204f;}.cls-110{fill:#1f2050;}.cls-111{fill:#202151;}.cls-112{fill:#202152;}.cls-113{fill:#202253;}.cls-114{fill:#212254;}.cls-115{fill:#212255;}.cls-116{fill:#222356;}.cls-117{fill:#222358;}.cls-118{fill:#222459;}.cls-119{fill:#23245a;}.cls-120{fill:#23255b;}.cls-121{fill:#24255c;}.cls-122{fill:#24255d;}.cls-123{fill:#24265e;}.cls-124{fill:#25265f;}.cls-125{fill:#252760;}.cls-126{fill:#262761;}.cls-127{fill:#262862;}.cls-128{fill:#272863;}.cls-129{fill:#272864;}.cls-130{fill:#272965;}.cls-131{fill:#282966;}.cls-132{fill:#282a67;}.cls-133{fill:#292a68;}.cls-134{fill:#292b6a;}.cls-135{fill:#292b6b;}.cls-136{fill:#2a2b6c;}.cls-137{fill:#2a2c6d;}.cls-138{fill:#2b2c6e;}.cls-139{fill:#2b2d6f;}.cls-140{fill:#2b2d70;}.cls-141{fill:#2c2e71;}.cls-142{fill:#2c2e72;}.cls-143{fill:#2d2e73;}.cls-144{fill:#2d2f74;}.cls-145{fill:#2e2f75;}.cls-146{fill:#2e3076;}.cls-147{fill:#2e3077;}.cls-148{fill:#2f3179;}.cls-149{fill:#2f317a;}.cls-150{fill:#30317b;}.cls-151{fill:#30327c;}.cls-152{fill:#31327d;}.cls-153{fill:#31337e;}.cls-154{fill:#31337f;}.cls-155{fill:#323480;}.cls-156{fill:#323481;}.cls-157{fill:#333482;}.cls-158{fill:#333583;}.cls-159{fill:#333584;}.cls-160{fill:#343686;}.cls-161{fill:#343687;}.cls-162{fill:#353788;}.cls-163{fill:#353789;}.cls-164{fill:#36388a;}.cls-165{fill:#36388b;}.cls-166{fill:url(#Áåçûìÿííûé_ãðàäèåíò_217);}.cls-167{fill:url(#Áåçûìÿííûé_ãðàäèåíò_36-5);}.cls-168{fill:url(#Áåçûìÿííûé_ãðàäèåíò_163-2);}</style><radialGradient id="Áåçûìÿííûé_ãðàäèåíò_25" cx="522.54" cy="218.45" r="92.63" gradientTransform="translate(10.11 156.4) rotate(-1.03)" gradientUnits="userSpaceOnUse"><stop offset="0" stop-color="#f4dbee"/><stop offset="1" stop-color="#d1bde5"/></radialGradient><linearGradient id="Áåçûìÿííûé_ãðàäèåíò_163" x1="416.05" y1="243.7" x2="525.92" y2="243.7" gradientTransform="translate(10.11 156.4) rotate(-1.03)" gradientUnits="userSpaceOnUse"><stop offset="0" stop-color="#9579a7"/><stop offset="1" stop-color="#fff"/></linearGradient><radialGradient id="Áåçûìÿííûé_ãðàäèåíò_436" cx="563.86" cy="540.46" r="98.75" gradientTransform="translate(10.11 156.4) rotate(-1.03)" gradientUnits="userSpaceOnUse"><stop offset="0" stop-color="#f4f1ff"/><stop offset="1" stop-color="#d1bde5"/></radialGradient><radialGradient id="Áåçûìÿííûé_ãðàäèåíò_25-2" cx="248.46" cy="307.42" r="101.11" xlink:href="#Áåçûìÿííûé_ãðàäèåíò_25"/><radialGradient id="Áåçûìÿííûé_ãðàäèåíò_436-2" cx="317.52" cy="558.3" r="119.06" xlink:href="#Áåçûìÿííûé_ãðàäèåíò_436"/><linearGradient id="Áåçûìÿííûé_ãðàäèåíò_36" x1="167.52" y1="452.82" x2="516.91" y2="452.82" gradientTransform="translate(10.11 156.4) rotate(-1.03)" gradientUnits="userSpaceOnUse"><stop offset="0" stop-color="#fff"/><stop offset="1" stop-color="#9579a7"/></linearGradient><linearGradient id="Áåçûìÿííûé_ãðàäèåíò_519" x1="349.64" y1="204.02" x2="349.64" y2="-149.27" gradientTransform="translate(10.11 156.4) rotate(-1.03)" gradientUnits="userSpaceOnUse"><stop offset="0" stop-color="#d1bde5"/><stop offset="1" stop-color="#fff"/></linearGradient><linearGradient id="Áåçûìÿííûé_ãðàäèåíò_93" x1="384.92" y1="142.26" x2="384.92" y2="-139.92" gradientTransform="translate(10.11 156.4) rotate(-1.03)" gradientUnits="userSpaceOnUse"><stop offset="0" stop-color="#007c7e"/><stop offset="1" stop-color="#0f183b"/></linearGradient><linearGradient id="Áåçûìÿííûé_ãðàäèåíò_36-2" x1="159.77" y1="99.66" x2="519.97" y2="99.66" xlink:href="#Áåçûìÿííûé_ãðàäèåíò_36"/><linearGradient id="Áåçûìÿííûé_ãðàäèåíò_20" x1="245.49" y1="185.64" x2="245.49" y2="-1.82" gradientTransform="translate(10.11 156.4) rotate(-1.03)" gradientUnits="userSpaceOnUse"><stop offset="0" stop-color="#d1bde5"/><stop offset="1" stop-color="#f4dbee"/></linearGradient><linearGradient id="Áåçûìÿííûé_ãðàäèåíò_36-3" x1="478.43" y1="664.31" x2="560.63" y2="664.31" xlink:href="#Áåçûìÿííûé_ãðàäèåíò_36"/><linearGradient id="Áåçûìÿííûé_ãðàäèåíò_36-4" x1="239.96" y1="686.6" x2="317.35" y2="686.6" xlink:href="#Áåçûìÿííûé_ãðàäèåíò_36"/><clipPath id="clip-path" transform="translate(0 11.97)"><path class="cls-1" d="M549.21,226.64c-.11.65-.19,1.3-.35,2-7.13,15.78-35.34,60.61-107.55,70.53-88.81,12.2-126.38-54-126.38-54L298,248.58c-3.59-10.5-7.34-20-11.16-28.47l0-.05S371.94,39.75,529.08,96.85C548.84,146.07,553.17,199.8,549.21,226.64Z"/></clipPath><radialGradient id="Áåçûìÿííûé_ãðàäèåíò_217" cx="688.76" cy="-520.88" r="30.02" gradientTransform="matrix(1.36, -0.56, 0.25, 0.61, -413.74, 808.85)" gradientUnits="userSpaceOnUse"><stop offset="0" stop-color="#003cee"/><stop offset="0.06" stop-color="#0036d6"/><stop offset="0.2" stop-color="#00289e"/><stop offset="0.34" stop-color="#001c6d"/><stop offset="0.48" stop-color="#001246"/><stop offset="0.62" stop-color="#000a27"/><stop offset="0.75" stop-color="#000412"/><stop offset="0.88" stop-color="#000104"/><stop offset="1"/></radialGradient><linearGradient id="Áåçûìÿííûé_ãðàäèåíò_36-5" x1="110.66" y1="346.56" x2="164.02" y2="346.56" xlink:href="#Áåçûìÿííûé_ãðàäèåíò_36"/><linearGradient id="Áåçûìÿííûé_ãðàäèåíò_163-2" x1="606.55" y1="166.89" x2="638.99" y2="166.89" xlink:href="#Áåçûìÿííûé_ãðàäèåíò_163"/></defs><title>spaceman_left</title><g class="cls-2"><g id="Layer_1" data-name="Layer 1"><path class="cls-3" d="M142.54,794.4c-18.56,7.24-40,9.75-65.88,4.29C18.23,786.32-7.62,723.33,1.94,672.05,11.7,619.81,60,564.76,164,581.56c166.92,27,196.19-31.71,196.45-32.31l22.73,9.42c-1.32,3.19-34.46,77.65-223.11,47.18-86.41-14-125.85,27.38-133.94,70.72-7.44,39.91,11.71,88.74,55.62,98,55.22,11.69,84.08-20.49,117.49-57.75,13.36-14.9,27.18-30.3,43.06-42.7,57.38-44.81,117.64-29.36,120.18-28.68l-6.32,23.78c-2.08-.54-51.3-12.74-98.72,24.29-14.15,11.06-26.65,25-39.88,39.74C196.49,756.79,173.65,782.25,142.54,794.4Z" transform="translate(0 11.97)"/><path class="cls-4" d="M301.77,872.26S284.5,923.1,249.5,922.72Z" transform="translate(0 11.97)"/><path class="cls-5" d="M638,342.1c.6,33.44-52.1,95.11-91.37,104.34a49.21,49.21,0,0,1-5.31.93c-24.67,2.81-50.09-13.86-64.71-25.76a143.3,143.3,0,0,1-12.48-11.22L434,336.65s1-.18,2.87-.41a138.3,138.3,0,0,1,32.76-.23c18.21,2.31,73.76-7.37,98.11-23.73s30.57-28.59,37.34-30.23,16,7.27,16,7.27S637.38,306.83,638,342.1Z" transform="translate(0 11.97)"/><path class="cls-6" d="M621.14,289.33s-12.88.23-14.61,9S615.45,352,638,342.09s-16.87-52.76-16.87-52.76Z" transform="translate(0 11.97)"/><path class="cls-7" d="M616.3,294.15s5.32,24.19,25.9,38.39C642.2,332.54,642.37,300.13,616.3,294.15Z" transform="translate(0 11.97)"/><path class="cls-8" d="M669.09,271.41C667.82,289.31,659.68,304,652,314a89.45,89.45,0,0,1-14.25,15.1s-13.8-8.8-18.39-25.83c0,0,.11-3.25.5-8.09.89-10.7,3.11-29.18,8.37-37.28l4.63,10.32S635.59,250.05,659,242C659,242,671.3,240.53,669.09,271.41Z" transform="translate(0 11.97)"/><path class="cls-9" d="M539,325.12s-5.88,24.08,8.1,64.23S589.2,421.6,589.2,421.6s-13.43,12.5-24.65,17.66c0,0-70.41,9.16-51.43-107.43Z" transform="translate(0 11.97)"/><path class="cls-10" d="M476.62,421.61c1.31,6.18,2.47,12.68,3.43,19.58l-38.49-31.55-12.09-71.75,6.84-2.24c.21.19.37.39.57.59a138.3,138.3,0,0,1,32.76-.23S439,404.41,541.25,447.33c0,0,0,0,.08,0C516.66,450.18,491.24,433.51,476.62,421.61Z" transform="translate(0 11.97)"/><path class="cls-11" d="M582.21,790.16s-22.39-19-82,11.33C500.23,801.49,536.37,822.32,582.21,790.16Z" transform="translate(0 11.97)"/><path class="cls-11" d="M261.93,813.1s39.87-15.63,77.94,21.34c0,0-14.52,13.9-41.12,9.64S261.93,813.1,261.93,813.1Z" transform="translate(0 11.97)"/><path class="cls-12" d="M543.94,822l-33,.59s-2.46-7.63-6.8-19.6c-10.9-30.28-33.59-88.2-57.68-120.13v0l80.31-105.69S530,584.06,535,595c14.29,31.87,51.82,92.67,54.85,121.42C593.93,755,543.94,822,543.94,822Z" transform="translate(0 11.97)"/><path class="cls-4" d="M526.78,577.16s-16.86,61.7-75.21,104.44l-5.1,1.29-27.32,6.85a1.29,1.29,0,0,1-.08-.24l-.17-.44c0-.11-.09-.23-.17-.39a4.72,4.72,0,0,0-.21-.52c-4.73-11.47-36.65-82.67-114.63-125.83,0,0,2.83-7.05,7.18-25.81.36-1.73.77-3.58,1.22-5.5,1.92-8.88,4.08-19.92,6.36-33.48,5-29.65,13.91-78.22,20.07-111.61v0c1.86-10,3.46-18.71,4.67-25.09.44-2.41.84-4.53,1.17-6.22.62-3.45,1-5.34,1-5.34s63,4.95,88.4-16c0,0,.86.79,2.37,2.4.2.2.36.39.57.59,7.79,8.5,29.08,35.4,39.74,85.37,1.31,6.18,2.46,12.68,3.43,19.58.32,2.44.65,4.91.93,7.47,0,0,29.13,49.32,42.3,109.61C524.63,564.47,525.82,570.77,526.78,577.16Z" transform="translate(0 11.97)"/><path class="cls-13" d="M357.83,431.79a.22.22,0,0,1,0,.08c-.33,2.12-.73,4.29-1.13,6.54-6.37,35.12-22.52,73.37-45.64,98.11-14.17,15.17-30.91,25.24-49.61,26.45-41.75,2.67-69.56-21.91-77-29.42-.25-.27-.49-.51-.7-.7a4.24,4.24,0,0,0-.57-.64c-.49-.51-.73-.78-.73-.78s-15.23-3.53-15.86-19,4.2-39.88,4.2-39.88l7.14-3.17s1-11,11-14.6,34.91-3.26,63-22c24.67-16.4,58.82-48.54,69.67-61a28,28,0,0,0,3.09-4c4.15-7.16,12.14-12.7,12.14-12.7l4.67-.33,3.08-.21,9.47-.65S367.38,372.81,357.83,431.79Z" transform="translate(0 11.97)"/><path class="cls-14" d="M419.16,689.75s-38.87,74.63-47.6,94.1-42.19,56.45-62.46,67.81c-.52.29-1,.58-1.51.79-19.46,10-33-.17-33-.17s-1.07-4.3-2.72-11.11c-2.16-9-5.32-22.47-8.16-36-3.85-18-7.13-36-7-43.92C257,747.83,282.63,645.64,296,593.19c4.75-18.52,7.93-30.86,7.93-30.86,74.26,21,110,112.71,114.63,125.83.08.2.16.36.21.52a3.25,3.25,0,0,1,.16.39,4.08,4.08,0,0,1,.17.44A.91.91,0,0,0,419.16,689.75Z" transform="translate(0 11.97)"/><path class="cls-7" d="M359.21,353.34s34.73,9.81,46.84,8.83S434,333.26,434,333.26,409.79,346.55,359.21,353.34Z" transform="translate(0 11.97)"/><path class="cls-7" d="M336.83,355.13S371.46,442.47,323.29,524c0,0,48.14-62.7,35.92-170.67Z" transform="translate(0 11.97)"/><path class="cls-7" d="M429.49,337.87s38,61.05,51.51,110.79c0,0-2.07-60.14-36.76-113.14L434,333.26Z" transform="translate(0 11.97)"/><path class="cls-7" d="M299.05,581.25s50.87,13.11,113.84,120.56l6.25-12S381.48,576.19,303.91,562.32Z" transform="translate(0 11.97)"/><path class="cls-7" d="M523.3,558.38s-23,90.67-76.81,124.5l4.51,6.3s58.29-26.32,81.65-99.25Z" transform="translate(0 11.97)"/><path class="cls-6" d="M182.45,531.43s-15.23-3.53-15.86-19,4.2-39.88,4.2-39.88l7.14-3.17S215.54,494.07,182.45,531.43Z" transform="translate(0 11.97)"/><path class="cls-7" d="M174.12,520.59s15.16-31.73-3.33-48.08C170.79,472.51,161.56,515,174.12,520.59Z" transform="translate(0 11.97)"/><path class="cls-8" d="M178.7,486.76s-6.43-20.36-26-24.05l.18,9.85s-27.83-14.3-45.34,3.22c0,0,12.56,40.53,68.67,40.22C176.23,516,182.68,503.84,178.7,486.76Z" transform="translate(0 11.97)"/><path class="cls-9" d="M262.94,728.37s.92,30.5,44.76,44.49,72.1-6.13,72.1-6.13-9.39,22-17.68,32.74-71.53,10.51-102.93-17c0,0-3.73-15.54-2.15-24.65S262.94,728.37,262.94,728.37Z" transform="translate(0 11.97)"/><path class="cls-9" d="M471.29,724.63s31.18,15.68,64.11,18.12,54.81-16.48,54.81-16.48-2.85,21.73-11.07,36.07c0,0-34.51,10.91-56,6.75S483,749.75,483,749.75Z" transform="translate(0 11.97)"/><path class="cls-9" d="M259.16,427.71S329.37,472.27,287,555.49a77.73,77.73,0,0,0,22.57-17.41c15.25-16.22,31.76-118.84-31.71-125.5Z" transform="translate(0 11.97)"/><path class="cls-15" d="M447.46,683.21l-1.94-.67c.23-.66,22.79-66.79,22-112.28-.71-39.37-6.92-58.63-15.5-85.28-3.25-10.09-6.94-21.53-10.69-35.36a634.29,634.29,0,0,0-30.62-87.08l1.87-.85a637.43,637.43,0,0,1,30.74,87.4c3.73,13.78,7.4,25.19,10.65,35.26,8.64,26.82,14.88,46.2,15.6,85.88C470.36,616.07,447.69,682.55,447.46,683.21Z" transform="translate(0 11.97)"/><path class="cls-16" d="M506.83,803l-2.68,0c-10.9-30.28-33.59-88.2-57.68-120.13l-27.32,6.85s-38.86,74.63-47.59,94.1-42.19,56.45-62.47,67.81c-.52.29-1,.58-1.51.79l-35.76-11.28c-2.17-9-5.33-22.46-8.17-36l2.25-1.64s41.21,22.82,73.55,8,58.2-113.73,51.91-127.7c-23.5-52.18-70.71-79.46-95.4-90.66,4.75-18.52,7.93-30.86,7.93-30.86s2.83-7.05,7.18-25.81c-14.17,15.17-30.91,25.24-49.61,26.45-41.76,2.67-69.56-21.91-77-29.42,8.18,7.82,41.63,35,98.24,17.28A64,64,0,0,0,312.29,531c35.07-40.4,32.61-121.8,28.84-138a37.64,37.64,0,0,0-2.41-7.11v0c-6-13-17.13-14.1-17.13-14.1a28.49,28.49,0,0,0,3.08-4c4.16-7.16,12.14-12.7,12.14-12.7l4.67-.33c.47,1.52,1.15,3.54,1.91,6,4.17,13.61,11.53,40.8,14.44,71v.08c1.81,18.53,1.93,38.25-1.38,56.63-11.06,61.2-17.69,73.2-17.69,73.2s54.68,73.43,84.9,85.16,80.33-44.4,90-66.42c4.62-10.44,7.65-17.58,9.65-22.17,1.35,6.21,2.54,12.51,3.5,18.9,0,0,3.24,6.9,8.2,17.85C525.83,617.86,495,696.7,494,724.2,492.84,756.54,506.83,803,506.83,803Z" transform="translate(0 11.97)"/><path class="cls-17" d="M336.82,355.12s29.94,43.25,84.87,54.87,37.06-75,37.06-75l-14.51.49-7.93.13Z" transform="translate(0 11.97)"/><path class="cls-18" d="M549.21,226.64c-.11.65-.19,1.3-.35,2-1.83,8.79-7.19,19.75-15.39,31.23,0,0-.46.7-1.43,1.93-15.4,21-40,43.53-69.09,58.49-47.25,24.26-122.54,45.23-181.69,28.31S169,239.47,170.83,203.48a302.28,302.28,0,0,1,4-37.15c6.83-39.78,25.07-92,75.62-124.36C288.63,17.53,346.49,2.91,393.56.38a211.6,211.6,0,0,1,39.95,1.27,93.59,93.59,0,0,1,20.74,5.06l2.43,1a39,39,0,0,1,4.66,2.38C538.52,56.37,556,180.78,549.21,226.64Z" transform="translate(0 11.97)"/><path class="cls-19" d="M539.64,221.92c-.11.61-.18,1.22-.34,1.83-6.68,14.8-33.14,56.84-100.87,66.15-83.29,11.44-118.53-50.6-118.53-50.6L304,242.49c-3.37-9.84-6.88-18.71-10.46-26.7-19.9-44.85-41-62.06-43.09-68.85-2.45-8-1-58.82,47.65-98.15,32.24-26,68.46-35.76,95.53-39.08a198.46,198.46,0,0,1,37.47,1.19,87.78,87.78,0,0,1,19.45,4.75l2.28,1a37.15,37.15,0,0,1,4.37,2.22c30,18,50.41,48.63,63.53,81.35C539.29,146.36,543.35,196.75,539.64,221.92Z" transform="translate(0 11.97)"/><path class="cls-20" d="M532,261.75c-15.4,21-40,43.53-69.09,58.49-47.25,24.26-122.54,45.23-181.69,28.31S169,239.47,170.83,203.48a302.28,302.28,0,0,1,4-37.15c4.15-9,10.92-15.93,21.71-17.76,39.63-6.71,92.4,110.82,92.4,110.82l17.57-7.95s36.29,65.28,118.19,62.17C496.34,310.9,525.21,270.28,532,261.75Z" transform="translate(0 11.97)"/><path class="cls-21" d="M252.94,334.66c23.58,9.28,53.56-8.89,35-72-18.73-63.34-75.16-110.78-75.16-110.78C266,138.83,298,248.58,298,248.58c.69,4.9,1.25,9.5,1.63,13.85l.05.47C308.28,355.27,257.42,336.48,252.94,334.66Z" transform="translate(0 11.97)"/><path class="cls-7" d="M171.47,213.3c-2.35-23,5.6-42,17.78-46.07s63.88,38.2,79.16,101.77-30.65,58-46.84,37.64l-9.15-11s43.59,27.79,45.44-15.05c2.12-48.92-52.68-90.55-68.22-76.65s-4.32,48.94-4.32,48.94S173,228.55,171.47,213.3Z" transform="translate(0 11.97)"/><path class="cls-6" d="M506.6,832.19l1.59-9.51-8-21.18s51.76,4.11,82-11.35c0,0-9.83,20.9-33.3,35,0,0,29.33,2.51,37.94,29.64Z" transform="translate(0 11.97)"/><path class="cls-6" d="M339.71,834.51l-38.1,28.17.18,9.6s-14.89,37.39-52.3,50.46c0,0-5.65-33.46,24.16-62.28l-11.73-47.35A81.68,81.68,0,0,0,295,838C315.56,846.43,337.77,835.51,339.71,834.51Z" transform="translate(0 11.97)"/><polygon class="cls-4" points="506.59 844.17 503.66 849.52 585.92 871.8 586.84 866.73 506.59 844.17"/><path class="cls-22" d="M582.22,790.15s-9.83,20.9-33.3,35c0,0-30.28,2.31-42.32,7.08l1.59-9.51-8-21.18S552,805.61,582.22,790.15Z" transform="translate(0 11.97)"/><path class="cls-23" d="M339.71,834.51l-38.1,28.17a59.53,59.53,0,0,1-28-2.22l-11.73-47.35A81.68,81.68,0,0,0,295,838C315.56,846.43,337.77,835.51,339.71,834.51Z" transform="translate(0 11.97)"/><path class="cls-24" d="M276.53,136.77s-6.41-18.28-6.52-24.4c0,0,7.91-14.45,21-23.88l22.47,28.2S284,131,276.53,136.77Z" transform="translate(0 11.97)"/><path class="cls-24" d="M337.44,246.67s9.64,14,20.08,20.62l7.1-8.36s-12-11.41-18.09-18.72Z" transform="translate(0 11.97)"/><g class="cls-25"><g class="cls-26"><rect class="cls-27" x="279.33" y="33.44" width="270.98" height="283.86" transform="translate(-35.37 174.85) rotate(-21.33)"/><ellipse class="cls-27" cx="406.34" cy="100.16" rx="148.25" ry="104.51" transform="translate(-7.18 176.5) rotate(-22.69)"/><ellipse class="cls-28" cx="406.34" cy="100.16" rx="147.18" ry="103.76" transform="translate(-7.18 176.5) rotate(-22.69)"/><ellipse class="cls-29" cx="406.34" cy="100.16" rx="146.12" ry="103.01" transform="translate(-7.18 176.49) rotate(-22.69)"/><path class="cls-30" d="M540.16,44.2C562,96.3,519.7,163.59,445.79,194.5s-151.48,13.73-173.27-38.38S293,36.73,366.89,5.82,518.37-7.91,540.16,44.2Z" transform="translate(0 11.97)"/><ellipse class="cls-31" cx="406.34" cy="100.16" rx="143.98" ry="101.51" transform="translate(-7.18 176.5) rotate(-22.69)"/><ellipse class="cls-32" cx="406.34" cy="100.16" rx="142.92" ry="100.76" transform="translate(-7.18 176.49) rotate(-22.69)"/><ellipse class="cls-33" cx="406.34" cy="100.16" rx="141.85" ry="100" transform="translate(-7.18 176.49) rotate(-22.69)"/><path class="cls-34" d="M536.22,45.84c21.15,50.57-19.85,115.89-91.59,145.89s-147,13.32-168.17-37.25S296.31,38.59,368.05,8.59,515.07-4.73,536.22,45.84Z" transform="translate(0 11.97)"/><path class="cls-35" d="M535.24,46.26c21,50.18-19.71,115-90.9,144.77s-145.91,13.22-166.9-37,19.71-115,90.9-144.78S514.25-3.93,535.24,46.26Z" transform="translate(0 11.97)"/><path class="cls-36" d="M534.25,46.67c20.83,49.8-19.55,114.13-90.2,143.67s-144.8,13.12-165.63-36.69S298,39.52,368.63,10,513.43-3.14,534.25,46.67Z" transform="translate(0 11.97)"/><ellipse class="cls-37" cx="406.34" cy="100.16" rx="137.58" ry="97" transform="translate(-7.18 176.49) rotate(-22.69)"/><ellipse class="cls-38" cx="406.34" cy="100.16" rx="136.52" ry="96.24" transform="translate(-7.18 176.5) rotate(-22.69)"/><ellipse class="cls-39" cx="406.34" cy="100.16" rx="135.45" ry="95.49" transform="translate(-7.18 176.5) rotate(-22.69)"/><ellipse class="cls-40" cx="406.34" cy="100.16" rx="134.38" ry="94.74" transform="translate(-7.18 176.5) rotate(-22.69)"/><ellipse class="cls-41" cx="406.34" cy="100.16" rx="133.32" ry="93.99" transform="translate(-7.18 176.49) rotate(-22.69)"/><path class="cls-42" d="M528.35,49.14c19.87,47.5-18.65,108.86-86,137s-138.12,12.51-158-35,18.65-108.86,86-137S508.48,1.63,528.35,49.14Z" transform="translate(0 11.97)"/><path class="cls-43" d="M527.37,49.55c19.7,47.12-18.51,108-85.35,135.93S305,197.9,285.31,150.77s18.51-108,85.35-135.93S507.66,2.42,527.37,49.55Z" transform="translate(0 11.97)"/><ellipse class="cls-44" cx="406.34" cy="100.16" rx="130.12" ry="91.73" transform="translate(-7.18 176.5) rotate(-22.69)"/><ellipse class="cls-45" cx="406.34" cy="100.16" rx="129.05" ry="90.98" transform="translate(-7.18 176.49) rotate(-22.69)"/><path class="cls-46" d="M524.42,50.78c19.22,46-18.06,105.35-83.27,132.62s-133.66,12.11-152.89-33.86S306.32,44.19,371.53,16.92,505.19,4.81,524.42,50.78Z" transform="translate(0 11.97)"/><path class="cls-47" d="M523.43,51.19c19.07,45.59-17.9,104.48-82.57,131.52s-132.55,12-151.61-33.58,17.9-104.48,82.57-131.52S504.37,5.6,523.43,51.19Z" transform="translate(0 11.97)"/><ellipse class="cls-48" cx="406.34" cy="100.16" rx="125.85" ry="88.72" transform="translate(-7.18 176.5) rotate(-22.69)"/><ellipse class="cls-49" cx="406.34" cy="100.16" rx="124.79" ry="87.97" transform="translate(-7.18 176.5) rotate(-22.69)"/><ellipse class="cls-50" cx="406.34" cy="100.16" rx="123.72" ry="87.22" transform="translate(-7.18 176.49) rotate(-22.69)"/><path class="cls-51" d="M519.5,52.84c18.42,44.06-17.31,101-79.8,127.09s-128.09,11.61-146.52-32.45,17.3-101,79.8-127.09S501.07,8.78,519.5,52.84Z" transform="translate(0 11.97)"/><ellipse class="cls-52" cx="406.34" cy="100.16" rx="121.59" ry="85.72" transform="translate(-7.18 176.49) rotate(-22.69)"/><ellipse class="cls-53" cx="406.34" cy="100.16" rx="120.52" ry="84.97" transform="translate(-7.18 176.49) rotate(-22.69)"/><path class="cls-54" d="M516.54,54.07c18,42.91-16.85,98.33-77.71,123.78s-124.75,11.3-142.69-31.6S313,47.92,373.85,22.47,498.6,11.16,516.54,54.07Z" transform="translate(0 11.97)"/><path class="cls-55" d="M515.56,54.48c17.78,42.53-16.7,97.45-77,122.68s-123.64,11.2-141.42-31.33,16.7-97.44,77-122.67S497.78,12,515.56,54.48Z" transform="translate(0 11.97)"/><ellipse class="cls-56" cx="406.34" cy="100.16" rx="117.32" ry="82.71" transform="translate(-7.18 176.49) rotate(-22.69)"/><path class="cls-57" d="M513.59,55.31C531.06,97.07,497.19,151,438,175.77s-121.41,11-138.87-30.76,16.4-95.69,75.63-120.46S496.13,13.55,513.59,55.31Z" transform="translate(0 11.97)"/><ellipse class="cls-58" cx="406.34" cy="100.16" rx="115.19" ry="81.21" transform="matrix(0.92, -0.39, 0.39, 0.92, -7.18, 176.49)"/><path class="cls-59" d="M511.62,56.13c17.15,41-16.09,93.94-74.24,118.25s-119.18,10.8-136.33-30.19,16.1-93.94,74.25-118.25S494.48,15.14,511.62,56.13Z" transform="translate(0 11.97)"/><path class="cls-60" d="M510.64,56.54c17,40.61-15.95,93.06-73.55,117.15S319,184.39,302,143.78,318,50.72,375.59,26.63,493.66,15.93,510.64,56.54Z" transform="translate(0 11.97)"/><ellipse class="cls-61" cx="406.34" cy="100.16" rx="111.99" ry="78.95" transform="translate(-7.18 176.49) rotate(-22.69)"/><path class="cls-62" d="M508.67,57.37c16.66,39.84-15.64,91.3-72.16,114.93S320.67,182.8,304,143,319.65,51.65,376.17,28,492,17.52,508.67,57.37Z" transform="translate(0 11.97)"/><path class="cls-63" d="M507.69,57.78c16.5,39.46-15.5,90.42-71.47,113.83S321.49,182,305,142.54s15.5-90.42,71.47-113.83S491.19,18.32,507.69,57.78Z" transform="translate(0 11.97)"/><ellipse class="cls-64" cx="406.34" cy="100.16" rx="108.79" ry="76.69" transform="translate(-7.18 176.49) rotate(-22.69)"/><ellipse class="cls-65" cx="406.34" cy="100.16" rx="107.72" ry="75.94" transform="translate(-7.18 176.49) rotate(-22.69)"/><ellipse class="cls-66" cx="406.34" cy="100.16" rx="106.65" ry="75.19" transform="translate(-7.18 176.49) rotate(-22.69)"/><path class="cls-67" d="M503.75,59.42c15.86,37.93-14.89,86.92-68.69,109.42s-110.27,10-126.13-27.94S323.82,54,377.62,31.48,487.89,21.49,503.75,59.42Z" transform="translate(0 11.97)"/><ellipse class="cls-68" cx="406.34" cy="100.16" rx="104.52" ry="73.69" transform="translate(-7.18 176.5) rotate(-22.69)"/><ellipse class="cls-69" cx="406.34" cy="100.16" rx="103.45" ry="72.93" transform="translate(-7.18 176.49) rotate(-22.69)"/><ellipse class="cls-70" cx="406.34" cy="100.16" rx="102.39" ry="72.18" transform="translate(-7.18 176.5) rotate(-22.69)"/><path class="cls-71" d="M499.82,61.07c15.22,36.4-14.29,83.4-65.92,105s-105.82,9.59-121-26.81,14.29-83.4,65.92-105S484.6,24.67,499.82,61.07Z" transform="translate(0 11.97)"/><ellipse class="cls-72" cx="406.34" cy="100.16" rx="100.25" ry="70.68" transform="translate(-7.18 176.49) rotate(-22.69)"/><ellipse class="cls-73" cx="406.34" cy="100.16" rx="99.19" ry="69.93" transform="translate(-7.18 176.49) rotate(-22.69)"/><path class="cls-74" d="M496.86,62.3C511.6,97.55,483,143.07,433,164s-102.48,9.28-117.22-26,13.85-80.77,63.84-101.68S482.12,27.06,496.86,62.3Z" transform="translate(0 11.97)"/><ellipse class="cls-75" cx="406.34" cy="100.16" rx="97.06" ry="68.42" transform="translate(-7.18 176.49) rotate(-22.69)"/><path class="cls-76" d="M494.9,63.13c14.42,34.48-13.54,79-62.45,99.46s-100.25,9.08-114.67-25.4,13.54-79,62.45-99.46S480.48,28.65,494.9,63.13Z" transform="translate(0 11.97)"/><ellipse class="cls-77" cx="406.34" cy="100.16" rx="94.92" ry="66.92" transform="translate(-7.18 176.49) rotate(-22.69)"/><ellipse class="cls-78" cx="406.34" cy="100.16" rx="93.86" ry="66.17" transform="translate(-7.18 176.5) rotate(-22.69)"/><path class="cls-79" d="M491.94,64.36c13.94,33.33-13.08,76.38-60.36,96.15S334.67,169.29,320.73,136s13.09-76.38,60.37-96.15S478,31,491.94,64.36Z" transform="translate(0 11.97)"/><path class="cls-80" d="M491,64.77c13.78,33-12.94,75.5-59.67,95.05s-95.79,8.68-109.57-24.27,12.94-75.5,59.67-95.05S477.18,31.82,491,64.77Z" transform="translate(0 11.97)"/><path class="cls-81" d="M490,65.18c13.61,32.57-12.79,74.63-59,93.94s-94.68,8.58-108.3-24,12.79-74.63,59-93.94S476.36,32.62,490,65.18Z" transform="translate(0 11.97)"/><path class="cls-82" d="M489,65.6c13.46,32.18-12.63,73.74-58.28,92.83s-93.57,8.48-107-23.71S336.32,61,382,41.89,475.53,33.41,489,65.6Z" transform="translate(0 11.97)"/><ellipse class="cls-83" cx="406.34" cy="100.16" rx="88.52" ry="62.41" transform="translate(-7.18 176.49) rotate(-22.69)"/><path class="cls-84" d="M487,66.42c13.13,31.41-12.34,72-56.9,90.62s-91.34,8.28-104.48-23.14,12.34-72,56.9-90.62S473.89,35,487,66.42Z" transform="translate(0 11.97)"/><path class="cls-85" d="M486,66.83c13,31-12.18,71.11-56.2,89.52s-90.22,8.17-103.2-22.86S338.82,62.38,382.84,44,473.06,35.8,486,66.83Z" transform="translate(0 11.97)"/><ellipse class="cls-86" cx="406.34" cy="100.16" rx="85.32" ry="60.15" transform="translate(-7.18 176.49) rotate(-22.69)"/><ellipse class="cls-87" cx="406.34" cy="100.16" rx="84.26" ry="59.4" transform="translate(-7.18 176.49) rotate(-22.69)"/><path class="cls-88" d="M483.09,68.06C495.59,98,471.35,136.54,429,154.27s-86.88,7.87-99.38-22,11.73-68.48,54.12-86.21S470.59,38.18,483.09,68.06Z" transform="translate(0 11.97)"/><path class="cls-89" d="M482.1,68.48c12.34,29.5-11.58,67.6-53.42,85.09s-85.77,7.77-98.11-21.73S342.16,64.24,384,46.75,469.77,39,482.1,68.48Z" transform="translate(0 11.97)"/><ellipse class="cls-90" cx="406.34" cy="100.16" rx="81.06" ry="57.14" transform="translate(-7.18 176.5) rotate(-22.69)"/><ellipse class="cls-91" cx="406.34" cy="100.16" rx="79.99" ry="56.39" transform="translate(-7.18 176.5) rotate(-22.69)"/><path class="cls-92" d="M479.15,69.71c11.86,28.35-11.13,65-51.34,81.78s-82.43,7.47-94.28-20.88,11.13-65,51.34-81.78S467.3,41.36,479.15,69.71Z" transform="translate(0 11.97)"/><path class="cls-93" d="M478.17,70.12c11.7,28-11,64.09-50.65,80.68s-81.31,7.37-93-20.6,11-64.09,50.65-80.68S466.47,42.15,478.17,70.12Z" transform="translate(0 11.97)"/><path class="cls-94" d="M477.18,70.53c11.54,27.59-10.83,63.21-49.95,79.58s-80.2,7.26-91.74-20.32,10.84-63.21,50-79.58S465.65,43,477.18,70.53Z" transform="translate(0 11.97)"/><path class="cls-95" d="M476.2,70.94c11.38,27.21-10.68,62.34-49.26,78.47s-79.09,7.17-90.46-20S347.16,67,385.74,50.91,464.83,43.74,476.2,70.94Z" transform="translate(0 11.97)"/><path class="cls-96" d="M475.22,71.36c11.21,26.81-10.53,61.45-48.57,77.36s-78,7.06-89.19-19.76S348,67.51,386,51.6,464,44.54,475.22,71.36Z" transform="translate(0 11.97)"/><path class="cls-97" d="M474.23,71.77c11.06,26.43-10.38,60.57-47.87,76.25s-76.86,7-87.91-19.47S348.83,68,386.32,52.3,463.18,45.33,474.23,71.77Z" transform="translate(0 11.97)"/><path class="cls-98" d="M473.25,72.18c10.89,26.05-10.23,59.7-47.18,75.15s-75.74,6.86-86.64-19.19S349.66,68.44,386.61,53,462.35,46.13,473.25,72.18Z" transform="translate(0 11.97)"/><ellipse class="cls-99" cx="406.34" cy="100.16" rx="71.46" ry="50.38" transform="translate(-7.18 176.5) rotate(-22.69)"/><ellipse class="cls-100" cx="406.34" cy="100.16" rx="70.39" ry="49.63" transform="matrix(0.92, -0.39, 0.39, 0.92, -7.18, 176.5)"/><path class="cls-101" d="M470.3,73.41c10.41,24.91-9.78,57.07-45.1,71.84s-72.4,6.56-82.82-18.34,9.78-57.07,45.1-71.84S459.88,48.51,470.3,73.41Z" transform="translate(0 11.97)"/><path class="cls-102" d="M469.31,73.82c10.26,24.52-9.62,56.19-44.4,70.74S353.62,151,343.37,126.5s9.62-56.19,44.4-70.74S459.06,49.31,469.31,73.82Z" transform="translate(0 11.97)"/><path class="cls-103" d="M468.33,74.24c10.09,24.13-9.48,55.31-43.71,69.62s-70.18,6.36-80.27-17.78,9.48-55.3,43.71-69.62S458.24,50.1,468.33,74.24Z" transform="translate(0 11.97)"/><path class="cls-104" d="M467.35,74.65c9.93,23.75-9.33,54.43-43,68.52s-69.06,6.26-79-17.5,9.33-54.43,43-68.52S457.41,50.89,467.35,74.65Z" transform="translate(0 11.97)"/><path class="cls-105" d="M466.36,75.06c9.78,23.37-9.17,53.55-42.32,67.42s-68,6.15-77.72-17.22,9.17-53.55,42.32-67.42S456.59,51.69,466.36,75.06Z" transform="translate(0 11.97)"/><ellipse class="cls-106" cx="406.34" cy="100.16" rx="63.99" ry="45.11" transform="translate(-7.18 176.49) rotate(-22.69)"/><path class="cls-107" d="M464.39,75.88c9.46,22.61-8.87,51.8-40.93,65.21s-65.72,5.95-75.17-16.65,8.87-51.8,40.93-65.21S454.94,53.28,464.39,75.88Z" transform="translate(0 11.97)"/><path class="cls-108" d="M463.41,76.29c9.29,22.22-8.73,50.92-40.24,64.1s-64.61,5.86-73.9-16.36,8.73-50.92,40.24-64.1S454.12,54.07,463.41,76.29Z" transform="translate(0 11.97)"/><path class="cls-109" d="M462.43,76.71c9.13,21.83-8.58,50-39.55,63s-63.49,5.75-72.63-16.08,8.58-50.05,39.55-63S453.29,54.87,462.43,76.71Z" transform="translate(0 11.97)"/><path class="cls-110" d="M461.44,77.12c9,21.45-8.42,49.16-38.85,61.89s-62.38,5.65-71.35-15.81S359.66,74,390.09,61.31,452.47,55.66,461.44,77.12Z" transform="translate(0 11.97)"/><ellipse class="cls-111" cx="406.34" cy="100.16" rx="58.66" ry="41.35" transform="translate(-7.18 176.5) rotate(-22.69)"/><path class="cls-112" d="M459.47,77.94c8.66,20.69-8.12,47.41-37.47,59.68s-60.14,5.45-68.79-15.24S361.33,75,390.67,62.7,450.82,57.25,459.47,77.94Z" transform="translate(0 11.97)"/><path class="cls-113" d="M458.49,78.35c8.49,20.31-8,46.53-36.78,58.58s-59,5.34-67.52-15,8-46.53,36.77-58.58S450,58.05,458.49,78.35Z" transform="translate(0 11.97)"/><path class="cls-114" d="M457.51,78.76c8.33,19.92-7.83,45.65-36.09,57.47s-57.92,5.25-66.25-14.67S363,75.91,391.25,64.09,449.17,58.84,457.51,78.76Z" transform="translate(0 11.97)"/><path class="cls-115" d="M456.52,79.17c8.17,19.54-7.67,44.78-35.39,56.37s-56.8,5.14-65-14.39,7.67-44.78,35.38-56.37S448.35,59.64,456.52,79.17Z" transform="translate(0 11.97)"/><path class="cls-116" d="M455.54,79.59c8,19.15-7.52,43.89-34.7,55.25s-55.69,5-63.7-14.11,7.52-43.89,34.69-55.25S447.53,60.43,455.54,79.59Z" transform="translate(0 11.97)"/><path class="cls-117" d="M454.55,80c7.85,18.77-7.37,43-34,54.15S366,139.1,358.13,120.32s7.37-43,34-54.15S446.7,61.22,454.55,80Z" transform="translate(0 11.97)"/><path class="cls-118" d="M453.57,80.41c7.69,18.39-7.22,42.14-33.31,53.05s-53.46,4.84-61.15-13.55,7.22-42.14,33.3-53S445.88,62,453.57,80.41Z" transform="translate(0 11.97)"/><ellipse class="cls-119" cx="406.34" cy="100.16" rx="50.13" ry="35.34" transform="translate(-7.18 176.5) rotate(-22.69)"/><path class="cls-120" d="M451.6,81.23c7.37,17.62-6.92,40.39-31.92,50.84s-51.23,4.64-58.6-13S368,78.7,393,68.25,444.23,63.61,451.6,81.23Z" transform="translate(0 11.97)"/><path class="cls-121" d="M450.62,81.64c7.21,17.24-6.77,39.51-31.23,49.74s-50.12,4.54-57.33-12.7,6.77-39.51,31.23-49.74S443.41,64.4,450.62,81.64Z" transform="translate(0 11.97)"/><path class="cls-122" d="M449.63,82.05c7.05,16.86-6.62,38.63-30.53,48.63s-49,4.44-56.05-12.41,6.61-38.63,30.53-48.63S442.58,65.2,449.63,82.05Z" transform="translate(0 11.97)"/><path class="cls-123" d="M448.65,82.47c6.89,16.47-6.47,37.75-29.84,47.52s-47.89,4.34-54.78-12.14,6.47-37.75,29.84-47.52S441.76,66,448.65,82.47Z" transform="translate(0 11.97)"/><path class="cls-124" d="M447.67,82.88c6.73,16.09-6.32,36.87-29.15,46.41s-46.78,4.24-53.51-11.85S371.33,80.57,394.16,71,440.94,66.79,447.67,82.88Z" transform="translate(0 11.97)"/><path class="cls-125" d="M446.68,83.29c6.57,15.71-6.17,36-28.45,45.31S372.57,132.74,366,117s6.17-36,28.45-45.31S440.11,67.58,446.68,83.29Z" transform="translate(0 11.97)"/><path class="cls-126" d="M445.7,83.7c6.41,15.33-6,35.12-27.76,44.21s-44.55,4-51-11.29,6-35.12,27.76-44.21S439.29,68.38,445.7,83.7Z" transform="translate(0 11.97)"/><path class="cls-127" d="M444.71,84.11c6.25,14.94-5.86,34.24-27.06,43.1s-43.44,3.94-49.68-11S373.83,82,395,73.11,438.47,69.17,444.71,84.11Z" transform="translate(0 11.97)"/><path class="cls-128" d="M443.73,84.52c6.09,14.56-5.72,33.36-26.37,42S375,130.35,369,115.8s5.72-33.36,26.37-42S437.64,70,443.73,84.52Z" transform="translate(0 11.97)"/><path class="cls-129" d="M442.75,84.94c5.92,14.17-5.57,32.48-25.68,40.89s-41.21,3.73-47.14-10.44,5.57-32.49,25.68-40.9S436.82,70.76,442.75,84.94Z" transform="translate(0 11.97)"/><path class="cls-130" d="M441.76,85.35c5.77,13.79-5.41,31.6-25,39.78s-40.1,3.64-45.86-10.16,5.41-31.6,25-39.78S436,71.55,441.76,85.35Z" transform="translate(0 11.97)"/><path class="cls-131" d="M440.78,85.76c5.61,13.41-5.27,30.73-24.29,38.68s-39,3.53-44.59-9.88,5.27-30.72,24.29-38.68S435.17,72.35,440.78,85.76Z" transform="translate(0 11.97)"/><path class="cls-132" d="M439.79,86.17c5.45,13-5.11,29.85-23.59,37.58s-37.87,3.43-43.32-9.6S378,84.3,396.48,76.57,434.35,73.14,439.79,86.17Z" transform="translate(0 11.97)"/><path class="cls-133" d="M438.81,86.58c5.29,12.64-5,29-22.9,36.47s-36.75,3.33-42-9.31,5-29,22.9-36.47S433.52,73.94,438.81,86.58Z" transform="translate(0 11.97)"/><path class="cls-134" d="M437.83,87c5.12,12.26-4.82,28.1-22.21,35.37s-35.64,3.23-40.77-9,4.82-28.1,22.21-35.37S432.7,74.73,437.83,87Z" transform="translate(0 11.97)"/><path class="cls-135" d="M436.84,87.4c5,11.88-4.66,27.22-21.51,34.26s-34.53,3.13-39.49-8.74,4.66-27.22,21.51-34.26S431.88,75.53,436.84,87.4Z" transform="translate(0 11.97)"/><path class="cls-136" d="M435.86,87.82c4.81,11.49-4.51,26.33-20.82,33.15s-33.41,3-38.22-8.47,4.51-26.33,20.82-33.15S431.05,76.32,435.86,87.82Z" transform="translate(0 11.97)"/><path class="cls-137" d="M434.87,88.23c4.65,11.11-4.36,25.46-20.12,32.05s-32.3,2.92-36.95-8.19,4.37-25.46,20.13-32S430.23,77.12,434.87,88.23Z" transform="translate(0 11.97)"/><path class="cls-138" d="M433.89,88.64c4.49,10.73-4.21,24.58-19.43,30.94s-31.19,2.83-35.67-7.9S383,87.1,398.22,80.74,429.41,77.91,433.89,88.64Z" transform="translate(0 11.97)"/><path class="cls-139" d="M432.91,89.05c4.32,10.34-4.07,23.7-18.74,29.84s-30.07,2.72-34.4-7.62,4.06-23.7,18.74-29.84S428.58,78.71,432.91,89.05Z" transform="translate(0 11.97)"/><path class="cls-140" d="M431.92,89.46c4.17,10-3.91,22.83-18,28.74s-29,2.62-33.12-7.34,3.91-22.83,18-28.74S427.76,79.5,431.92,89.46Z" transform="translate(0 11.97)"/><path class="cls-141" d="M430.94,89.87c4,9.58-3.76,21.95-17.35,27.63s-27.84,2.53-31.85-7,3.76-22,17.35-27.63S426.93,80.29,430.94,89.87Z" transform="translate(0 11.97)"/><path class="cls-142" d="M430,90.28c3.85,9.2-3.61,21.07-16.65,26.53s-26.73,2.42-30.58-6.77S386.34,89,399.38,83.51,426.11,81.09,430,90.28Z" transform="translate(0 11.97)"/><path class="cls-143" d="M429,90.7c3.69,8.81-3.46,20.19-16,25.42s-25.62,2.32-29.3-6.5,3.46-20.19,16-25.41S425.29,81.88,429,90.7Z" transform="translate(0 11.97)"/><path class="cls-144" d="M428,91.11c3.52,8.43-3.31,19.31-15.27,24.31s-24.5,2.22-28-6.21S388,89.9,400,84.9,424.46,82.68,428,91.11Z" transform="translate(0 11.97)"/><path class="cls-145" d="M427,91.52c3.37,8-3.16,18.43-14.57,23.21s-23.39,2.12-26.75-5.93,3.16-18.44,14.57-23.21S423.64,83.47,427,91.52Z" transform="translate(0 11.97)"/><path class="cls-146" d="M426,91.93c3.2,7.66-3,17.56-13.88,22.1s-22.28,2-25.48-5.64,3-17.56,13.88-22.1S422.81,84.27,426,91.93Z" transform="translate(0 11.97)"/><path class="cls-147" d="M425,92.34c3.05,7.28-2.85,16.68-13.18,21s-21.16,1.92-24.21-5.36,2.86-16.68,13.19-21S422,85.06,425,92.34Z" transform="translate(0 11.97)"/><path class="cls-148" d="M424.05,92.75c2.89,6.9-2.71,15.81-12.49,19.9s-20.05,1.81-22.93-5.08,2.71-15.81,12.49-19.9S421.17,85.86,424.05,92.75Z" transform="translate(0 11.97)"/><path class="cls-149" d="M423.07,93.16c2.72,6.52-2.56,14.93-11.8,18.79s-18.93,1.72-21.66-4.79,2.56-14.93,11.8-18.79S420.34,86.65,423.07,93.16Z" transform="translate(0 11.97)"/><path class="cls-150" d="M422.08,93.58c2.57,6.13-2.4,14-11.1,17.68s-17.82,1.61-20.38-4.52,2.4-14,11.1-17.68S419.52,87.45,422.08,93.58Z" transform="translate(0 11.97)"/><path class="cls-151" d="M421.1,94c2.4,5.74-2.26,13.17-10.41,16.58s-16.71,1.51-19.11-4.24S393.84,93.16,402,89.76,418.7,88.24,421.1,94Z" transform="translate(0 11.97)"/><path class="cls-152" d="M420.12,94.4c2.24,5.36-2.11,12.29-9.72,15.47s-15.59,1.41-17.84-4,2.11-12.29,9.72-15.47S417.87,89,420.12,94.4Z" transform="translate(0 11.97)"/><path class="cls-153" d="M419.13,94.81c2.08,5-1.95,11.41-9,14.37s-14.48,1.31-16.56-3.67,1.95-11.41,9-14.37S417.05,89.83,419.13,94.81Z" transform="translate(0 11.97)"/><path class="cls-154" d="M418.15,95.22c1.92,4.6-1.81,10.54-8.33,13.26s-13.37,1.21-15.29-3.38,1.81-10.54,8.33-13.26S416.23,90.62,418.15,95.22Z" transform="translate(0 11.97)"/><path class="cls-155" d="M417.16,95.63c1.77,4.22-1.65,9.66-7.63,12.16s-12.25,1.11-14-3.1,1.65-9.66,7.63-12.16S415.4,91.42,417.16,95.63Z" transform="translate(0 11.97)"/><path class="cls-156" d="M416.18,96.05c1.6,3.83-1.5,8.77-6.94,11s-11.14,1-12.74-2.83,1.5-8.77,6.94-11S414.58,92.21,416.18,96.05Z" transform="translate(0 11.97)"/><path class="cls-157" d="M415.2,96.46c1.44,3.44-1.36,7.9-6.25,9.94s-10,.91-11.47-2.54,1.36-7.9,6.25-9.94S413.75,93,415.2,96.46Z" transform="translate(0 11.97)"/><path class="cls-158" d="M414.21,96.87c1.28,3.06-1.2,7-5.55,8.84s-8.91.81-10.19-2.26,1.2-7,5.55-8.84S412.93,93.8,414.21,96.87Z" transform="translate(0 11.97)"/><path class="cls-159" d="M413.23,97.28c1.12,2.68-1.06,6.14-4.86,7.74s-7.8.7-8.92-2,1.05-6.15,4.86-7.74S412.11,94.6,413.23,97.28Z" transform="translate(0 11.97)"/><path class="cls-160" d="M412.24,97.69c1,2.3-.9,5.27-4.16,6.63s-6.68.61-7.64-1.69.9-5.27,4.16-6.63S411.28,95.39,412.24,97.69Z" transform="translate(0 11.97)"/><path class="cls-161" d="M411.26,98.1c.8,1.92-.75,4.39-3.47,5.53s-5.57.5-6.37-1.41.75-4.39,3.47-5.53S410.46,96.19,411.26,98.1Z" transform="translate(0 11.97)"/><path class="cls-162" d="M410.28,98.51c.64,1.54-.61,3.52-2.78,4.43s-4.46.4-5.1-1.13.61-3.52,2.78-4.42S409.63,97,410.28,98.51Z" transform="translate(0 11.97)"/><path class="cls-163" d="M409.29,98.93c.48,1.14-.45,2.63-2.08,3.31s-3.34.3-3.82-.85.45-2.63,2.08-3.31S408.81,97.78,409.29,98.93Z" transform="translate(0 11.97)"/><path class="cls-164" d="M408.31,99.34c.32.76-.3,1.75-1.39,2.21s-2.23.2-2.55-.57.3-1.75,1.39-2.21S408,98.57,408.31,99.34Z" transform="translate(0 11.97)"/><path class="cls-165" d="M407.32,99.75c.16.38-.15.88-.69,1.1a1,1,0,0,1-1.27-.28c-.16-.38.15-.88.69-1.1A1,1,0,0,1,407.32,99.75Z" transform="translate(0 11.97)"/></g></g><path class="cls-166" d="M435.07,90.77c4.14,10.13-10.8,25.82-33.38,35s-44.23,8.47-48.36-1.67,10.8-25.83,33.38-35S430.93,80.63,435.07,90.77Z" transform="translate(0 11.97)"/><path class="cls-167" d="M127,501.34s21.3,10.62,37.09,5.39S177.6,484,177.6,484s6.85,12.35-1.37,32C176.23,516,144.66,516.76,127,501.34Z" transform="translate(0 11.97)"/><path class="cls-168" d="M652,314a89.45,89.45,0,0,1-14.25,15.1s-13.8-8.8-18.39-25.83c0,0,.11-3.25.5-8.09C619.88,295.22,625.7,312.11,652,314Z" transform="translate(0 11.97)"/><path class="cls-6" d="M417.34,437.31a26.24,26.24,0,1,1-26.71-25.77A26.25,26.25,0,0,1,417.34,437.31Z" transform="translate(0 11.97)"/><path class="cls-8" d="M407.59,437.48a16.49,16.49,0,1,1-16.79-16.19A16.49,16.49,0,0,1,407.59,437.48Z" transform="translate(0 11.97)"/><path class="cls-6" d="M286.33,405.75s32.9,16.83,32.05-30.42C318.38,375.33,295.38,397.68,286.33,405.75Z" transform="translate(0 11.97)"/><path class="cls-15" d="M513.4,691.91A388.93,388.93,0,0,1,462,707.64l-.45-2c.88-.2,87.87-19.86,103.3-50.93l1.83.91C559.14,670.77,536,683.08,513.4,691.91Z" transform="translate(0 11.97)"/><path class="cls-15" d="M400.83,730.17l-2,.56a154.25,154.25,0,0,0-21.32-42.5c-23.79-33-89.92-59.64-90.59-59.91l.77-1.9c.66.27,67.35,27.09,91.49,60.61A156.32,156.32,0,0,1,400.83,730.17Z" transform="translate(0 11.97)"/><path class="cls-15" d="M221.4,556.84l-2-.31c13.83-89.7-30.2-100.69-30.64-100.79l.44-2C189.63,453.84,235.54,465.1,221.4,556.84Z" transform="translate(0 11.97)"/><path class="cls-15" d="M611.27,398.71C563.4,366.32,588.67,295,588.93,294.28l1.93.7c-.26.7-25,70.54,21.56,102Z" transform="translate(0 11.97)"/><path class="cls-24" d="M400,515.37s.3,6.72-2.34,17.71L385.25,532s-.26-9.86,5.22-17.35Z" transform="translate(0 11.97)"/><path class="cls-24" d="M214.61,454.28a27.38,27.38,0,0,0,12.31-3.95L233.3,454s-6.84,8.56-15,6.16Z" transform="translate(0 11.97)"/><path class="cls-24" d="M288,725.38s-5,8.37-4.85,17.25l9.55,3.56,3.61-17Z" transform="translate(0 11.97)"/><path class="cls-24" d="M603.66,283.47s-4.28,4.16-5.27,12.13l-7.31,4.58a31.91,31.91,0,0,1,2.71-7.53C595.7,289,603.66,283.47,603.66,283.47Z" transform="translate(0 11.97)"/><path class="cls-24" d="M563.8,683s12,17.78,13.69,27.86l8.27-3.44s-2.3-15.63-12.11-27.57Z" transform="translate(0 11.97)"/><path class="cls-24" d="M267.31,59.38s40.07-35.41,70.38-46C337.69,13.4,226.47,40.41,267.31,59.38Z" transform="translate(0 11.97)"/><polygon class="cls-24" points="246.8 199.75 262.68 188.15 274.46 205.8 258.55 215.48 246.8 199.75"/></g></g></svg>